<?xml version="1.0" encoding="UTF-8"?>
<svg id="Ebene_1" xmlns="http://www.w3.org/2000/svg" version="1.1" viewBox="0 0 404.5 110.6">
  <!-- Generator: Adobe Illustrator 30.1.0, SVG Export Plug-In . SVG Version: 2.1.1 Build 136)  -->
  <g>
    <polygon points="180.5 34.9 180.5 30.7 156.3 30.7 156.3 79.6 180.5 79.6 180.5 75.4 161 75.4 161 56.6 180 56.6 180 52.4 161 52.4 161 34.9 180.5 34.9" fill="#bb805b"/>
    <g>
      <polygon points="245.7 79.6 269.9 79.6 269.9 75.4 250.3 75.4 250.3 56.6 269.4 56.6 269.4 52.4 250.3 52.4 250.3 34.9 269.9 34.9 269.9 30.7 245.7 30.7 245.7 79.6" fill="#bb805b"/>
      <polygon points="298.6 30.7 294 30.7 294 79.6 316.6 79.6 316.6 75.4 298.6 75.4 298.6 30.7" fill="#bb805b"/>
      <polygon points="340.7 30.7 336.1 30.7 336.1 79.6 358.8 79.6 358.8 75.4 340.7 75.4 340.7 30.7" fill="#bb805b"/>
      <polygon points="400.1 34.9 400.1 30.7 375.9 30.7 375.9 79.6 400.1 79.6 400.1 75.4 380.5 75.4 380.5 56.6 399.6 56.6 399.6 52.4 380.5 52.4 380.5 34.9 400.1 34.9" fill="#bb805b"/>
      <path d="M210.5,30.7h-12v48.9h12c11.6,0,19.1-9.6,19.1-24.4s-7.5-24.5-19.1-24.5h0ZM203.1,34.9h7.4c6.9,0,14.3,5.3,14.3,20.3s-5.5,20.2-14.3,20.2h-7.4s0-40.5,0-40.5Z" fill="#bb805b"/>
    </g>
  </g>
  <path d="M20.2,55.3c-9.4,4.2-16,13.7-16,24.7h4.6c0-10.6,7.4-19.5,17.3-21.8v48.7h5.1c11,0,20.5-6.6,24.7-16,4.2,9.4,13.7,16,24.7,16s27-12.1,27-27-6.6-20.5-16-24.7c9.4-4.2,16-13.7,16-24.7h-4.6c0,10.6-7.4,19.5-17.3,21.8V3.6h-5.1c-11,0-20.5,6.6-24.7,16C51.7,10.2,42.2,3.6,31.2,3.6S4.2,15.7,4.2,30.6s6.6,20.5,16,24.7ZM31.1,102.3h-.4v-44.7h.4c12.3,0,22.3,10,22.3,22.3s-10,22.3-22.3,22.3v.1ZM102.8,80c0,12.3-10,22.3-22.3,22.3s-22.3-10-22.3-22.3v-.4h44.7v.4h-.1ZM80.4,8.3h.4v44.7h-.4c-12.3,0-22.3-10-22.3-22.3s10-22.3,22.3-22.3v-.1ZM8.8,30.7c0-12.3,10-22.3,22.3-22.3s22.3,10,22.3,22.3v.4H8.8v-.4ZM53.9,35.7c2.4,12.5,13.4,21.9,26.5,21.9s19.5,7.4,21.8,17.3h-44.6c-2.4-12.5-13.4-21.9-26.5-21.9s-19.5-7.4-21.8-17.3h44.6Z" fill="#bb805b"/>
</svg>
