<?xml version="1.0" encoding="UTF-8"?>
<svg id="Ebene_1" xmlns="http://www.w3.org/2000/svg" version="1.1" viewBox="0 0 652.5 83.5">
  <!-- Generator: Adobe Illustrator 29.7.1, SVG Export Plug-In . SVG Version: 2.1.1 Build 8)  -->
  <path d="M15.8,62.5c.5,5.3,5.6,9,13,9s11.5-2.2,11.5-6.6-4.3-5.3-13.9-6.5c-14.1-1.8-25.1-4.8-25.1-17.4s10.5-20,26-20c16.3.1,27.4,7.3,28.3,19.7h-15.8c-.5-4.5-5.1-7.8-11.9-7.8s-10.5,2.5-10.5,6.5,5.2,4.8,13.8,5.8c13.8,1.5,25.4,4.7,25.4,18.4s-11.2,19.7-27.5,19.7S.6,75.5,0,62.5h15.8Z"/>
  <path d="M124.8,68.7v14.1h-8.5c-8.6,0-11.3-4.1-11.2-9.9-4.3,6.7-10.4,10.6-19.9,10.6s-22.6-6.3-22.6-17.8,9.7-20.2,27.9-20.2h12.1v-3c0-5.4-4.4-9-11.3-9s-10.4,3-11.1,7.4h-16.1c1.2-12.6,11.8-19.6,28-19.6s27,7.6,27,22.1v21.4c0,3.1,1.4,3.9,3.9,3.9h1.9ZM102.6,56.5h-12.2c-6.9,0-11,2.8-11,7.9s3.4,7,9,7c8.7,0,14.1-5.4,14.2-13.7v-1.2h0Z"/>
  <path d="M143.9,62.5c.5,5.3,5.6,9,13,9s11.5-2.2,11.5-6.6-4.3-5.3-13.9-6.5c-14.1-1.8-25.1-4.8-25.1-17.4s10.5-20,26-20c16.3.1,27.4,7.3,28.3,19.7h-15.8c-.5-4.5-5.1-7.8-11.9-7.8s-10.5,2.5-10.5,6.5,5.2,4.8,13.8,5.8c13.8,1.5,25.4,4.7,25.4,18.4s-11.2,19.7-27.5,19.7-28.4-7.9-29-20.9h15.8Z"/>
  <path d="M205.3,62.5c.5,5.3,5.6,9,13,9s11.5-2.2,11.5-6.6-4.3-5.3-13.9-6.5c-14.1-1.8-25.1-4.8-25.1-17.4s10.5-20,26-20c16.3.1,27.4,7.3,28.3,19.7h-15.8c-.5-4.5-5.1-7.8-11.9-7.8s-10.5,2.5-10.5,6.5,5.2,4.8,13.8,5.8c13.8,1.5,25.4,4.7,25.4,18.4s-11.2,19.7-27.5,19.7-28.4-7.9-29-20.9h15.8Z"/>
  <path d="M282.8,21.3c18.4,0,31.1,11.3,31.3,29.2,0,1.8-.1,3.8-.5,5.7h-44.1v.5c.7,8.7,5.7,14.2,14.3,14.2s11.5-3,12.9-8.6h16.4c-1.9,11.8-12.2,21.3-28.1,21.3s-32.9-12.2-32.9-31c0-19,12.3-31.2,30.6-31.2ZM297.4,45.3c-1.2-7.4-6.4-11.6-13.9-11.6s-12.6,4.4-13.6,11.6h27.5Z"/>
  <path d="M381.2,49.8v33h-16.7v-32c0-10.3-3.9-15.7-12.3-15.7s-13.6,6.1-13.6,16.7v31.1h-16.7V22h14.5l1.5,7.6c3.9-4.7,9.5-8.3,18.8-8.3s24.3,6.4,24.3,28.5Z"/>
  <path d="M453.7,52.2c0,18.8-11.8,31.3-28.3,31.2-8.7,0-14.8-3.8-18.7-9l-1.7,8.3h-14.5V0h16.7v29.7c4-4.8,9.9-8.4,18.3-8.4,16.3,0,28.1,11.7,28.1,31ZM436.8,52.4c0-10.4-5.9-17.5-15-17.5s-14.8,7.1-14.8,17.4,5.7,17.6,14.8,17.6,15-7.1,15-17.5Z"/>
  <path d="M521.5,68.7v14.1h-8.5c-8.6,0-11.3-4.1-11.2-9.9-4.3,6.7-10.4,10.6-19.9,10.6s-22.6-6.3-22.6-17.8,9.7-20.2,27.9-20.2h12.1v-3c0-5.4-4.4-9-11.3-9s-10.4,3-11.1,7.4h-16.1c1.2-12.6,11.8-19.6,28-19.6s27,7.6,27,22.1v21.4c0,3.1,1.4,3.9,3.9,3.9h1.9ZM499.3,56.5h-12.2c-6.9,0-11,2.8-11,7.9s3.4,7,9,7c8.7,0,14.1-5.4,14.2-13.7v-1.2Z"/>
  <path d="M555.9,83.5c-19.2,0-31.3-12.4-31.3-31.1s12.3-31.1,31.4-31.1,27,9,29.3,23.4h-17.3c-1.4-5.9-5.8-9.8-12.2-9.8s-14.3,7.1-14.3,17.5,5.6,17.5,14.3,17.5,11-3.9,12.3-10.2h17.1c-2.2,14.7-12.9,23.8-29.4,23.8Z"/>
  <path d="M652.5,49.8v33h-16.7v-32.3c0-9.9-4-15.5-12.3-15.5s-13.6,6.1-13.6,16.5v31.2h-16.7V0h16.7v29.4c3.9-4.7,9.3-8.2,18-8.2,12.6,0,24.6,6.5,24.6,28.5Z"/>
</svg>