<svg width="499" height="173" viewBox="0 0 499 173" fill="none" xmlns="http://www.w3.org/2000/svg">
<g clip-path="url(#clip0_894_528)">
<path d="M9.49982 52.57H0.569824V50.21H35.9398V52.57H24.4898L43.8598 99.39L59.0198 65.03C60.7098 61.16 61.5498 58.29 61.5498 56.61C61.5498 53.07 57.3398 52.57 54.6498 52.57H49.2598V50.21H76.0398V52.57C68.9698 52.57 67.1198 53.24 63.9198 60.48L38.8098 116.9H37.6298L9.49982 52.57Z" fill="black"/>
<path d="M147.43 68.2299C147.43 58.2899 144.73 49.1999 134.63 49.1999C134.46 49.1999 134.13 49.1999 133.96 49.1999V46.6699C134.13 46.6699 134.46 46.6699 134.63 46.6699C152.82 46.6699 162.25 67.0499 162.25 73.6199C162.25 74.4599 161.74 74.9699 160.73 74.9699H133.95V72.4399H146.24C147.08 72.4399 147.42 71.9399 147.42 71.4299V68.2299H147.43ZM133.96 115.04V112.51C134.8 112.68 135.64 112.68 136.49 112.68C149.46 112.68 158.89 104.09 161.08 91.4599H163.61C161.08 105.61 150.64 115.04 136.5 115.04C135.64 115.04 134.8 115.04 133.96 115.04ZM133.96 49.1999C123.69 49.5399 120.65 58.4599 120.65 68.2299V72.4399H133.96V74.9699H120.65V89.4499C120.49 99.7199 121.83 111.17 133.96 112.52V115.05C117.29 113.87 105.83 100.4 105.83 80.8599C105.83 66.2099 117.45 47.1799 133.96 46.6699V49.1999Z" fill="black"/>
<path d="M206.37 6.42002H194.08V3.89002H206.37C211.25 3.89002 216.31 3.55002 219.34 0.0200195V110.83H231.63V113.19H194.07V110.83H206.36V6.42002H206.37Z" fill="black"/>
<path d="M267 52.57H258.07V50.21H293.44V52.57H281.99L301.36 99.39L316.51 65.03C318.2 61.16 319.04 58.29 319.04 56.61C319.04 53.07 314.83 52.57 312.14 52.57H306.75V50.21H333.53V52.57C326.45 52.57 324.6 53.24 321.4 60.48L296.31 116.9H295.13L267 52.57Z" fill="black"/>
<path d="M404.93 68.2299C404.93 58.2899 402.23 49.1999 392.13 49.1999C391.96 49.1999 391.62 49.1999 391.46 49.1999V46.6699C391.63 46.6699 391.96 46.6699 392.13 46.6699C410.32 46.6699 419.75 67.0499 419.75 73.6199C419.75 74.4599 419.24 74.9699 418.23 74.9699H391.45V72.4399H403.74C404.58 72.4399 404.92 71.9399 404.92 71.4299V68.2299H404.93ZM391.46 115.04V112.51C392.3 112.68 393.14 112.68 393.99 112.68C406.96 112.68 416.38 104.09 418.58 91.4599H421.11C418.58 105.61 408.14 115.04 394 115.04C393.14 115.04 392.3 115.04 391.46 115.04ZM391.46 49.1999C381.19 49.5399 378.16 58.4599 378.16 68.2299V72.4399H391.46V74.9699H378.16V89.4499C377.99 99.7199 379.34 111.17 391.46 112.52V115.05C374.79 113.87 363.33 100.4 363.33 80.8599C363.33 66.2099 374.95 47.1799 391.46 46.6699V49.1999Z" fill="black"/>
<path d="M463.87 52.5699H450.4V50.2099C466.57 50.3799 472.29 43.6399 474.99 28.6499H476.84V50.2099H498.06V52.5699H476.84V104.27C476.84 110.67 479.37 112.69 484.41 112.69C491.99 112.69 495.36 105.62 496.37 102.92L498.73 103.42C497.55 107.13 493.18 115.04 481.72 115.04C470.94 115.04 463.87 111.5 463.87 101.4V52.5699V52.5699Z" fill="black"/>
<path d="M45.5401 170.62H46.0501C48.7501 170.62 50.4301 169.44 50.4301 167.25C50.4301 164.89 48.5801 163.71 45.7201 163.71H45.5501V162.02C47.9101 161.85 49.2601 160.84 49.2601 158.99C49.2601 157.3 48.2501 156.29 45.7201 156.29H45.5501V154.77H46.3901C49.5901 154.77 51.2701 156.62 51.2701 158.98C51.2701 160.66 50.2601 162.01 48.7501 162.52V162.69C51.1101 163.19 52.2901 165.05 52.2901 167.24C52.2901 170.27 50.4301 172.29 45.7201 172.29H45.5501V170.62H45.5401ZM40.8301 170.62H45.5401V172.31H38.8101V154.79H45.5401V156.31H40.8301V162.03H45.3801C45.5501 162.03 45.5501 162.03 45.5501 162.03V163.72H40.8401V170.62H40.8301Z" fill="black"/>
<path d="M68.6098 165.91L62.0498 154.79H64.2298L69.6198 163.89L75.1798 154.79H77.3698L70.6298 165.91V172.31H68.6098V165.91Z" fill="black"/>
<path d="M116.78 160.01C116.61 157.82 114.08 155.8 111.39 155.8C107.35 155.8 104.65 159.34 104.65 163.55C104.65 167.42 106.67 171.13 111.05 171.13C114.42 171.13 116.94 169.11 116.94 165.57H113.57V163.72H118.62V172.31H117.27L117.1 169.78C115.92 171.97 113.39 172.81 111.04 172.81C105.99 172.81 102.45 168.77 102.45 163.55C102.45 158.16 106.66 154.12 111.38 154.12C115.09 154.12 118.28 156.31 118.79 160.01H116.78Z" fill="black"/>
<path d="M137.66 162.71H138.67C140.52 162.71 142.04 161.7 142.04 159.51C142.04 157.49 140.52 156.31 138.67 156.31H137.66V154.79H139C141.86 154.79 143.88 156.31 143.88 159.5C143.88 161.35 142.7 162.7 141.02 163.37C143.21 164.04 143.72 164.55 143.72 167.24V169.09C143.72 170.44 143.88 171.45 144.56 172.29H142.2C142.03 171.62 141.69 171.11 141.69 169.59V167.06C141.69 165.04 141.02 164.36 138.83 164.36H137.65V162.71H137.66ZM133.28 162.71H137.66V164.39H133.28V172.31H131.26V154.79H137.66V156.31H133.28V162.71Z" fill="black"/>
<path d="M162.42 166.58H166.46L162.42 156.81V156.98V154.79H163.43L170.67 172.31H168.65L166.97 168.27H162.42V166.58V166.58ZM158.38 166.58H162.42V168.26H157.7L156.02 172.3H154L161.74 154.78H162.42V156.97L158.38 166.58Z" fill="black"/>
<path d="M180.94 154.79H182.79V162.03H192.23V154.79H194.08V172.31H192.23V163.72H182.79V172.31H180.94V154.79Z" fill="black"/>
<path d="M212.77 166.58H216.81L212.94 156.81L212.77 156.98V154.79H213.78L221.19 172.31H219L217.48 168.27H212.77V166.58V166.58ZM208.9 166.58H212.77V168.26H208.22L206.53 172.3H204.51L212.09 154.78H212.76V156.97L208.9 166.58Z" fill="black"/>
<path d="M231.47 154.79H233.49L240.56 169.44L247.63 154.79H249.49V172.31H247.63V158.83L241.23 172.31H239.72L233.49 158.83H233.32V172.31H231.47V154.79Z" fill="black"/>
<path d="M283.84 159C283.84 157.99 282.99 157.31 281.99 157.31V155.79C281.99 155.79 281.99 155.79 282.16 155.79C284.01 155.79 285.53 156.8 285.53 158.99C285.53 161.01 284.18 161.85 282.67 163.03L286.54 168.08C286.88 167.24 287.22 166.56 287.22 165.72H288.91C288.74 166.9 288.4 168.25 287.56 169.26L289.92 172.29H287.73L286.55 170.6C285.54 171.95 283.86 172.62 282.17 172.62H282V170.93C283.35 170.93 284.53 170.59 285.54 169.41L282 164.86V161.49C283.34 160.52 283.84 159.84 283.84 159ZM281.99 157.32C280.98 157.32 280.31 158.33 280.31 159.34C280.31 160.01 280.98 161.19 281.65 161.7C281.82 161.7 281.82 161.53 281.99 161.53V164.9L281.15 163.89C279.8 164.9 278.79 165.91 278.79 167.6C278.79 169.96 280.64 170.97 281.99 170.97V172.66C279.29 172.49 276.94 170.64 276.94 167.61C276.94 165.42 278.46 163.9 280.14 162.73C279.29 161.55 278.45 160.54 278.45 159.02C278.45 157 280.14 155.82 281.99 155.82V157.32V157.32Z" fill="black"/>
<path d="M326.45 159.34C326.28 156.98 324.26 155.8 321.74 155.8C318.54 155.8 316.86 156.98 316.86 159.17C316.86 164.22 328.65 159.84 328.65 167.42C328.65 170.28 326.29 172.81 321.58 172.81C317.87 172.81 314.84 170.96 314.68 166.91H316.53C316.87 170.11 318.89 171.12 321.92 171.12C324.95 171.12 326.63 169.43 326.63 167.58C326.63 161.85 314.84 166.4 314.84 159.16C314.84 155.62 318.04 154.11 321.58 154.11C325.96 154.11 328.15 155.96 328.48 159.33H326.45V159.34Z" fill="black"/>
<path d="M346.83 163.89H347.16C349.35 163.89 351.03 162.71 351.03 160.02C351.03 157.49 349.35 156.32 347.16 156.32H346.83V154.8H347C350.54 154.8 353.06 156.65 353.06 160.02C353.06 163.56 350.53 165.41 347 165.41H346.83V163.89ZM342.45 163.89H346.83V165.4H342.45V172.31H340.6V154.79H346.83V156.31H342.45V163.89Z" fill="black"/>
<path d="M364.01 154.79H375.12V156.48H366.03V162.03H373.94V163.72H366.03V170.45H375.12V172.31H364.01V154.79Z" fill="black"/>
<path d="M386.24 154.79H388.09L399.03 168.94V154.79H400.89V172.31H399.03L388.26 157.82H388.09V172.31H386.24V154.79Z" fill="black"/>
<path d="M426.49 159.67C425.65 157.14 423.46 155.8 420.94 155.8C417.23 155.8 414.37 159.34 414.37 163.55C414.37 167.42 416.39 171.13 420.94 171.13C423.64 171.13 426.33 169.28 426.66 166.58H428.68C427.83 170.62 424.64 172.81 420.93 172.81C415.71 172.81 412.34 168.77 412.34 163.55C412.34 158.16 416.38 154.12 420.93 154.12C424.8 154.12 427.67 156.14 428.51 159.68H426.49V159.67Z" fill="black"/>
<path d="M439.96 154.79H451.08V156.48H441.81V162.03H449.73V163.72H441.81V170.45H451.08V172.31H439.96V154.79Z" fill="black"/>
<path d="M468.76 162.71H469.77C471.79 162.71 473.14 161.7 473.14 159.51C473.14 157.49 471.79 156.31 469.77 156.31H468.76V154.79H470.11C473.14 154.79 475.16 156.31 475.16 159.5C475.16 161.35 473.98 162.7 472.3 163.37C474.49 164.04 474.83 164.55 474.83 167.24V169.09C474.83 170.44 475.17 171.45 475.84 172.29H473.48C473.15 171.62 472.98 171.11 472.98 169.59V167.06C472.98 165.04 472.3 164.36 470.12 164.36H468.77V162.71H468.76ZM464.38 162.71H468.76V164.39H464.38V172.31H462.53V154.79H468.76V156.31H464.38V162.71Z" fill="black"/>
</g>
<defs>
<clipPath id="clip0_894_528">
<rect width="499" height="173" fill="white"/>
</clipPath>
</defs>
</svg>
