<svg width="1106" height="218" viewBox="0 0 1106 218" fill="none" xmlns="http://www.w3.org/2000/svg">
<g filter="url(#filter0_d_9_270)">
<path d="M58.5132 183.323V162.66C58.5132 159.143 55.4358 156.066 51.9188 156.066H34.3339C29.9377 156.066 27.7396 159.143 27.7396 162.66C27.7396 166.177 29.9377 169.255 34.3339 169.255H45.3245V183.323C45.3245 190.796 39.1698 196.951 31.6962 196.951H30.3773C22.9038 196.951 16.7491 191.236 16.7491 183.762V140.24C16.7491 132.766 22.9038 127.051 30.3773 127.051H31.6962C38.2906 127.051 44.4453 130.128 45.3245 136.283C45.7641 140.679 48.8415 141.998 51.9188 141.998C54.9962 141.998 58.5132 140.24 58.5132 135.843V134.964C57.6339 123.094 46.2038 113.423 32.1358 113.423H30.3773C15.8698 113.423 4 124.853 4 139.36V182.883C4 197.83 15.8698 208.821 30.3773 208.821H31.6962C46.6434 209.7 58.5132 197.83 58.5132 183.323Z" fill="white"/>
<path d="M126.655 183.323V120.457C126.655 116.06 123.577 113.862 120.06 113.862C116.983 113.862 113.466 116.06 113.466 120.457V183.323C113.466 190.357 107.311 196.951 99.8377 196.951H98.5188C91.0452 196.951 84.8905 190.796 84.8905 183.323V120.457C84.8905 116.06 81.8132 113.862 78.2962 113.862C75.2188 113.862 71.7018 116.06 71.7018 120.457V183.323C71.7018 197.83 83.5716 209.7 98.0792 209.7H99.3981C114.785 209.7 126.655 197.83 126.655 183.323Z" fill="white"/>
<path d="M194.796 183.323V162.66C194.796 159.143 191.719 156.066 188.202 156.066H170.617C166.221 156.066 164.023 159.143 164.023 162.66C164.023 166.177 166.221 169.255 170.617 169.255H181.607V183.323C181.607 190.796 175.453 196.951 167.979 196.951H166.66C159.187 196.951 153.032 191.236 153.032 183.762V140.24C153.032 132.766 159.187 127.051 166.66 127.051H167.979C174.574 127.051 180.728 130.128 181.607 136.283C182.047 140.679 185.124 141.998 188.202 141.998C191.279 141.998 194.796 140.24 194.796 135.843V134.964C193.917 123.094 182.487 113.423 168.419 113.423H166.66C152.153 113.423 140.283 124.853 140.283 139.36V182.883C140.283 197.83 152.153 208.821 166.66 208.821H167.979C182.926 209.7 194.796 197.83 194.796 183.323Z" fill="white"/>
<path d="M262.498 183.323V162.66C262.498 159.143 259.421 156.066 255.904 156.066H238.319C233.923 156.066 231.724 159.143 231.724 162.66C231.724 166.177 233.923 169.255 238.319 169.255H249.309V183.323C249.309 190.796 243.155 196.951 235.681 196.951H234.362C226.889 196.951 220.734 191.236 220.734 183.762V140.24C220.734 132.766 226.889 127.051 234.362 127.051H235.681C242.275 127.051 248.43 130.128 249.309 136.283C249.749 140.679 252.826 141.998 255.904 141.998C258.981 141.998 262.498 140.24 262.498 135.843V134.964C261.619 123.094 250.189 113.423 236.121 113.423H234.802C220.294 113.423 208.424 124.853 208.424 139.36V182.883C208.424 197.83 220.294 208.821 234.802 208.821H236.121C250.628 209.7 262.498 197.83 262.498 183.323Z" fill="white"/>
<path d="M330.639 202.666C330.639 199.589 328.441 196.072 324.045 196.072H289.315V167.056H313.055C317.451 167.056 319.649 163.979 319.649 160.462C319.649 157.385 317.451 153.868 313.055 153.868H289.315V127.49H324.045C328.441 127.49 330.639 124.413 330.639 120.896C330.639 117.819 328.441 114.302 324.045 114.302H282.721C279.204 114.302 276.126 117.379 276.126 120.896V202.226C276.126 205.743 279.204 208.821 282.721 208.821H324.045C328.441 208.821 330.639 205.743 330.639 202.666Z" fill="white"/>
<path d="M395.704 203.106V120.457C395.704 116.06 392.187 113.862 389.109 113.862C386.032 113.862 382.515 116.06 382.515 120.457V177.608L356.577 118.698C354.379 113.862 351.302 113.862 349.543 113.862H348.224C343.828 113.862 341.19 116.94 341.19 120.457V203.106C341.19 207.502 344.707 209.7 347.785 209.7C350.862 209.7 354.379 207.502 354.379 203.106V145.515L380.317 204.425C382.515 209.26 386.032 209.7 387.79 209.7H389.109C393.066 209.7 395.704 206.623 395.704 203.106Z" fill="white"/>
<path d="M463.845 203.106V120.457C463.845 116.06 460.768 113.862 457.251 113.862C454.173 113.862 450.656 116.06 450.656 120.457V153.868H422.081V120.457C422.081 116.06 419.004 113.862 415.487 113.862C412.409 113.862 408.892 116.06 408.892 120.457V203.106C408.892 207.502 411.97 209.7 415.487 209.7C418.564 209.7 422.081 207.502 422.081 203.106V167.057H450.656V203.106C450.656 207.502 453.734 209.7 457.251 209.7C460.768 209.7 463.845 207.502 463.845 203.106Z" fill="white"/>
<path d="M531.987 202.666C531.987 199.589 529.788 196.072 525.392 196.072H490.662V167.056H514.402C518.798 167.056 520.996 163.979 520.996 160.462C520.996 157.385 518.798 153.868 514.402 153.868H490.662V127.49H525.392C529.788 127.49 531.987 124.413 531.987 120.896C531.987 117.819 529.788 114.302 525.392 114.302H484.068C480.551 114.302 477.473 117.379 477.473 120.896V202.226C477.473 205.743 480.551 208.821 484.068 208.821H525.392C529.788 208.821 531.987 205.743 531.987 202.666Z" fill="white"/>
<path d="M556.166 203.106V120.457C556.166 116.06 553.088 113.862 549.571 113.862C546.494 113.862 542.977 116.06 542.977 120.457V203.106C542.977 207.502 546.054 209.7 549.571 209.7C553.088 209.7 556.166 207.502 556.166 203.106Z" fill="white"/>
<path d="M639.694 203.106V120.457C639.694 116.94 636.617 113.862 633.1 113.862H631.341C627.824 113.862 626.066 114.742 624.747 117.819L604.964 162.66L584.741 117.819C583.862 115.181 581.664 113.862 578.147 113.862H576.388C572.871 113.862 569.794 116.94 569.794 120.457V203.106C569.794 207.502 572.871 209.7 576.388 209.7C579.466 209.7 582.983 207.502 582.983 203.106V145.515L598.37 179.806C599.688 182.443 602.326 183.762 604.964 183.762C608.041 183.762 610.679 182.443 611.998 179.806L626.505 145.515V203.106C626.505 207.502 629.583 209.7 633.1 209.7C636.617 209.7 639.694 207.502 639.694 203.106Z" fill="white"/>
<path d="M312.175 68.5811V67.2622C312.175 58.9094 307.779 50.9962 301.624 46.1604C308.219 41.7641 311.296 34.2906 311.296 25.9377C311.296 11.4302 300.745 0.439622 285.798 0.439622H265.575C262.058 0.439622 258.981 3.51698 258.981 7.03396V87.9245C258.981 91.4415 262.058 94.5188 265.575 94.5188H285.798C300.306 94.9585 312.175 83.0886 312.175 68.5811ZM298.107 26.3773C298.107 34.7302 292.832 40.4453 285.798 40.4453H272.17V14.0679H285.798C293.272 13.6283 298.107 18.4641 298.107 26.3773ZM299.426 68.5811C299.426 76.0547 293.711 82.2094 285.798 82.2094H272.17V53.1943H285.798C292.832 53.1943 299.426 59.7887 299.426 67.2622V68.5811ZM378.119 69.4604V25.9377C378.119 11.4302 366.249 0 351.741 0H350.423C335.915 0 323.606 11.4302 323.606 25.9377V69.4604C323.606 84.4075 335.475 95.3981 349.983 95.3981H351.302C366.249 95.8377 378.119 84.4075 378.119 69.4604ZM364.93 69.4604C364.93 76.9339 358.775 82.649 351.302 82.649H349.983C342.509 82.649 336.355 76.9339 336.355 69.4604V25.9377C336.355 18.4641 342.509 12.7491 349.983 12.7491H351.302C358.775 12.7491 364.93 18.0245 364.93 25.9377V69.4604ZM441.424 88.8037C441.424 85.7264 439.226 82.2094 434.83 82.2094H404.496V6.59434C404.496 2.19811 401.419 0 397.902 0C394.824 0 391.307 2.19811 391.307 6.59434V88.3641C391.307 91.8811 394.385 94.9585 397.902 94.9585H434.83C439.226 94.9585 441.424 91.8811 441.424 88.8037ZM501.653 88.8037C501.653 85.7264 499.455 82.2094 495.058 82.2094H464.724V6.59434C464.724 2.19811 461.647 0 458.13 0C455.053 0 451.536 2.19811 451.536 6.59434V88.3641C451.536 91.8811 454.613 94.9585 458.13 94.9585H494.619C499.455 94.9585 501.653 91.8811 501.653 88.8037ZM576.388 89.683C576.388 89.2434 576.389 88.8037 575.949 87.4849L550.011 5.27547C549.132 1.75849 545.615 0 542.538 0C539.46 0 535.943 1.75849 535.064 5.27547L509.126 87.4849C509.126 88.3641 508.687 89.2434 508.687 89.683C508.687 93.2 511.324 95.8377 515.281 95.8377C517.919 95.8377 520.556 94.5188 521.875 91.0019L527.151 72.9773H557.485L563.2 91.0019C564.079 94.0792 566.717 95.8377 569.355 95.8377C573.751 95.8377 576.388 93.2 576.388 89.683ZM553.968 60.2283H531.987L542.977 24.1792L553.968 60.2283ZM639.694 69.4604V48.7981C639.694 45.2811 636.617 42.2038 633.1 42.2038H615.515C611.119 42.2038 608.921 45.2811 608.921 48.7981C608.921 51.8754 611.119 55.3924 615.515 55.3924H626.505V69.4604C626.505 76.9339 620.351 83.0886 612.877 83.0886H611.558C604.085 83.0886 597.93 77.3736 597.93 69.9V25.9377C597.93 18.4641 604.085 12.7491 611.558 12.7491H612.877C619.471 12.7491 625.626 15.8264 626.505 21.9811C626.945 26.3773 630.022 27.6962 633.1 27.6962C636.177 27.6962 639.694 25.9377 639.694 21.5415C638.815 9.67169 627.385 0 613.317 0H611.998C597.49 0 585.621 11.4302 585.621 25.9377V69.4604C585.621 84.4075 597.49 95.3981 611.998 95.3981H613.317C627.824 95.8377 639.694 83.9679 639.694 69.4604Z" fill="white"/>
<path d="M711.371 2.62941C711.371 1.75294 710.932 0.876471 709.179 0.876471H682.885C681.571 0.876471 680.694 1.75294 680.694 3.06765V54.7794C680.694 56.0941 681.571 56.5324 682.885 56.5324C684.2 56.5324 684.638 56.0941 684.638 54.7794V29.3618H701.729C703.044 29.3618 703.921 28.4853 703.921 27.1706C703.921 26.2941 703.482 24.9794 701.729 24.9794H685.076V4.82059H709.179C710.494 4.82059 711.371 3.50588 711.371 2.62941ZM746.868 54.3412C746.868 53.903 746.868 53.903 746.868 53.903L729.776 1.75294C729.338 0.876471 728.9 0.438235 728.024 0.438235C727.147 0.438235 726.271 0.876471 726.271 1.75294L709.179 53.903V54.3412C709.179 55.6559 710.056 56.0941 711.371 56.0941C712.247 56.0941 713.123 55.6559 713.123 54.7794L717.068 42.0706H738.979L743.362 54.7794C743.8 55.6559 744.238 56.0941 745.115 56.0941C745.991 56.5324 746.868 55.6559 746.868 54.3412ZM737.665 38.1265H717.944L727.585 7.88824L737.665 38.1265ZM783.241 42.5088C783.241 23.6647 757.385 27.1706 757.385 14.0235C757.385 7.88824 761.768 4.38235 767.465 4.38235H768.341C774.038 4.38235 778.421 7.45 778.421 12.7088C778.421 14.0235 779.297 14.9 780.612 14.9C781.488 14.9 782.365 14.4618 782.365 13.1471C782.365 5.25883 776.229 0.876471 768.341 0.876471H767.465C760.015 0.876471 753.441 6.1353 753.441 14.4618C753.441 31.553 779.297 27.1706 779.297 43.3853C779.297 49.5206 774.476 53.0265 768.341 53.0265H767.465C761.329 53.0265 756.947 49.0824 756.947 42.5088C756.947 41.1941 756.071 40.3177 754.756 40.3177C753.879 40.3177 752.565 40.7559 752.565 42.5088C752.565 51.7118 759.138 56.9706 767.465 56.9706H768.341C776.668 56.5324 783.241 50.8353 783.241 42.5088ZM823.559 54.3412V2.19118C823.559 0.876471 822.682 0 821.368 0C820.491 0 819.615 0.438235 819.615 2.19118V25.4177H797.265V2.19118C797.265 0.876471 796.388 0 795.512 0C794.635 0 793.321 0.438235 793.321 2.19118V54.3412C793.321 55.6559 794.197 56.0941 795.512 56.0941C796.388 56.0941 797.265 55.6559 797.265 54.3412V29.3618H819.615V54.3412C819.615 55.6559 820.491 56.0941 821.368 56.0941C822.682 56.5324 823.559 55.6559 823.559 54.3412ZM840.65 54.3412V2.19118C840.65 0.876471 839.774 0 838.459 0C837.582 0 836.268 0.438235 836.268 2.19118V54.3412C836.268 55.6559 837.144 56.0941 838.459 56.0941C839.774 56.5324 840.65 55.6559 840.65 54.3412ZM883.159 41.6324V14.9C883.159 6.57353 876.585 0.438235 868.697 0.438235H867.821C859.932 0.438235 853.359 7.01177 853.359 14.9V42.0706C853.359 50.3971 859.932 56.5324 867.821 56.5324H868.697C876.585 56.5324 883.159 49.9588 883.159 41.6324ZM879.215 41.6324C879.215 47.7677 874.394 52.15 868.697 52.15H867.821C861.685 52.15 857.303 47.3294 857.303 41.6324V14.9C857.303 8.76471 862.124 4.38235 867.821 4.38235H868.697C874.832 4.38235 879.215 9.20295 879.215 14.9V41.6324ZM924.791 54.3412V2.19118C924.791 0.876471 923.915 0 922.6 0C921.724 0 920.409 0.438235 920.409 2.19118V48.6441L899.812 1.31471C899.374 0.438236 898.497 0 898.059 0H896.744C895.868 0 894.553 0.876471 894.553 2.19118V54.3412C894.553 55.6559 895.429 56.0941 896.744 56.0941C897.621 56.0941 898.935 55.6559 898.935 54.3412V7.88824L919.532 54.7794C919.971 55.6559 920.847 56.0941 921.724 56.0941H923.038C923.915 56.5324 924.791 55.6559 924.791 54.3412Z" fill="white"/>
<path d="M710.494 118.041V104.894C710.494 104.018 709.618 103.141 708.303 103.141H696.471C695.156 103.141 694.279 104.018 694.279 105.332C694.279 106.209 695.156 107.085 696.471 107.085H706.112V118.041C706.112 124.176 701.291 128.559 695.594 128.559H694.718C688.582 128.559 684.2 123.738 684.2 118.041V90.8706C684.2 84.7353 689.021 80.3529 694.718 80.3529H695.594C701.291 80.3529 705.674 84.7353 706.112 89.9941C706.112 91.3088 706.988 91.7471 708.303 91.7471C709.618 91.7471 710.494 90.8706 710.494 89.5559C710.494 81.6676 703.482 75.9706 696.032 75.9706H695.156C687.268 75.9706 680.694 82.5441 680.694 90.4324V117.603C680.694 125.929 687.268 132.065 695.156 132.065H696.032C703.921 132.503 710.494 125.929 710.494 118.041ZM752.565 92.1853V91.3088C752.565 83.4206 745.991 76.8471 738.103 76.8471H723.641C722.765 76.8471 721.888 77.7235 721.888 79.0382V130.75C721.888 132.065 722.765 132.503 723.641 132.503C724.518 132.503 725.832 132.065 725.832 130.75V107.085H736.35L748.182 131.626C748.621 132.503 749.059 132.503 749.935 132.503C750.812 132.503 752.126 132.065 752.126 130.75C752.126 130.312 752.126 130.312 751.688 129.874L740.732 107.085C747.306 105.332 752.565 99.6353 752.565 92.1853ZM748.621 92.1853C748.621 98.3206 743.8 102.703 738.103 102.703H726.271V80.3529H738.103C744.238 80.3529 748.621 85.1735 748.621 90.8706V92.1853ZM792.006 118.041V90.8706C792.006 82.5441 785.432 76.4088 777.544 76.4088H776.668C768.779 76.4088 762.206 82.9824 762.206 90.8706V118.041C762.206 126.368 768.779 132.503 776.668 132.503H777.544C785.432 132.503 792.006 125.929 792.006 118.041ZM788.062 118.041C788.062 124.176 783.241 128.559 777.544 128.559H776.668C770.532 128.559 766.15 123.738 766.15 118.041V90.8706C766.15 84.7353 770.971 80.3529 776.668 80.3529H777.544C783.679 80.3529 788.062 85.1735 788.062 90.8706V118.041ZM833.638 118.041V78.6C833.638 77.2853 832.762 76.4088 831.447 76.4088C830.571 76.4088 829.694 76.8471 829.694 78.6V118.041C829.694 124.176 824.874 128.559 819.177 128.559H818.3C812.165 128.559 807.782 123.738 807.782 118.041V78.6C807.782 77.2853 806.906 76.4088 806.029 76.4088C805.153 76.4088 803.838 76.8471 803.838 78.6V118.041C803.838 126.368 810.412 132.503 818.3 132.503H819.177C827.065 132.503 833.638 125.929 833.638 118.041ZM876.147 91.3088C876.147 83.4206 869.574 76.8471 861.685 76.8471H848.1C847.224 76.8471 845.909 77.7235 845.909 79.0382V130.75C845.909 132.065 846.785 132.503 848.1 132.503C848.977 132.503 849.853 132.065 849.853 130.75V106.209H861.247C869.574 105.771 876.147 99.1971 876.147 91.3088ZM872.203 91.3088C872.203 97.4441 867.382 101.826 861.685 101.826H850.291V80.7912H861.685C867.821 80.7912 872.203 85.6118 872.203 91.3088Z" fill="white"/>
<path d="M711.371 194.012C711.371 175.168 685.515 178.674 685.515 165.526C685.515 159.391 689.897 155.885 695.594 155.885H696.471C702.168 155.885 706.55 158.953 706.55 164.212C706.55 165.526 707.426 166.403 708.741 166.403C709.618 166.403 710.494 165.965 710.494 164.65C710.494 156.762 704.359 152.379 696.471 152.379H695.594C688.144 152.379 681.571 157.638 681.571 165.965C681.571 183.056 707.426 178.674 707.426 194.888C707.426 201.024 702.606 204.529 696.471 204.529H695.594C689.459 204.529 685.076 200.585 685.076 194.012C685.076 192.697 684.2 191.821 682.885 191.821C681.571 191.821 680.694 192.259 680.694 194.012C680.694 203.215 687.268 208.474 695.594 208.474H696.471C704.797 208.035 711.371 202.776 711.371 194.012ZM771.847 153.694C771.847 152.379 770.532 151.941 769.656 151.941C768.779 151.941 767.903 152.379 767.903 153.256L757.823 200.585L746.868 153.256C746.429 152.379 745.991 151.941 745.115 151.941C744.238 151.941 743.362 152.379 743.362 153.256L731.968 200.585L721.888 153.256C721.45 152.379 721.012 151.941 720.135 151.941C719.259 151.941 717.944 152.818 717.944 153.694C717.944 154.132 717.944 154.132 717.944 154.132L728.9 205.406C729.338 207.159 731.091 207.597 731.968 207.597C733.282 207.597 734.597 207.159 735.035 205.406L745.115 162.021L754.756 205.844C755.194 207.597 756.509 208.035 757.823 208.035C758.7 208.035 760.453 207.597 760.891 205.844L771.847 154.571C771.847 154.132 771.847 154.132 771.847 153.694ZM786.309 205.844V153.694C786.309 152.379 785.432 151.503 784.118 151.503C783.241 151.503 781.926 151.941 781.926 153.694V205.844C781.926 207.159 782.803 207.597 784.118 207.597C784.994 208.035 786.309 207.597 786.309 205.844ZM823.559 154.132C823.559 153.256 823.121 151.941 821.368 151.941H796.826C795.512 151.941 794.635 152.818 794.635 154.132C794.635 155.009 795.074 155.885 796.826 155.885H807.344V205.844C807.344 207.159 808.221 207.597 809.097 207.597C809.974 207.597 811.288 207.159 811.288 205.844V156.324H821.806C823.121 156.324 823.559 155.009 823.559 154.132ZM857.741 155.009C857.741 153.694 856.865 152.379 855.55 152.379H832.324C831.009 152.379 830.132 153.256 830.132 154.132C830.132 155.009 830.571 156.324 832.324 156.324H852.921L830.132 203.215C829.694 204.529 829.694 204.529 829.694 205.406V205.844C829.694 206.721 830.571 208.035 831.885 208.035H855.988C857.303 208.035 858.179 207.159 858.179 205.844C858.179 204.968 857.741 204.091 855.988 204.091H834.515L857.303 157.2C857.741 155.885 857.741 155.447 857.741 155.009ZM897.621 205.406C897.621 204.529 897.182 203.653 895.429 203.653H871.327V180.865H888.418C889.732 180.865 890.609 179.988 890.609 179.112C890.609 178.235 890.171 176.921 888.418 176.921H871.765V156.324H895.429C896.744 156.324 897.621 155.447 897.621 154.571C897.621 153.694 897.182 152.379 895.429 152.379H869.135C867.821 152.379 866.944 153.256 866.944 154.571V205.844C866.944 206.721 867.821 208.035 869.135 208.035H895.429C897.182 207.597 897.621 206.721 897.621 205.406ZM937.5 167.718V166.841C937.5 158.953 930.926 152.379 923.038 152.379H909.015C908.138 152.379 907.262 153.256 907.262 154.571V205.844C907.262 207.159 908.138 207.597 909.015 207.597C909.891 207.597 911.206 207.159 911.206 205.844V182.179H921.724L933.556 206.721C933.994 207.597 934.432 207.597 935.309 207.597C936.185 207.597 937.5 207.159 937.5 205.844C937.5 205.406 937.5 205.406 937.062 204.968L926.106 182.179C932.679 180.865 937.5 175.168 937.5 167.718ZM933.556 167.718C933.556 173.853 928.735 178.235 923.038 178.235H911.206V155.885H923.038C929.174 155.885 933.556 160.706 933.556 166.403V167.718ZM974.312 205.406C974.312 204.529 973.874 203.653 972.121 203.653H951.524V153.694C951.524 152.379 950.647 151.503 949.332 151.503C948.456 151.503 947.141 151.941 947.141 153.694V205.406C947.141 206.282 948.018 207.597 949.332 207.597H972.121C973.874 207.597 974.312 206.721 974.312 205.406ZM1019.01 206.282C1019.01 205.844 1019.01 205.844 1019.01 205.844L1001.92 153.256C1001.48 152.379 1001.04 151.941 1000.17 151.941C999.291 151.941 998.415 152.379 998.415 153.256L981.324 205.406V205.844C981.324 207.159 982.2 207.597 983.515 207.597C984.391 207.597 985.268 207.159 985.268 206.282L989.212 193.574H1011.12L1015.51 206.282C1015.94 207.159 1016.38 207.597 1017.26 207.597C1018.14 208.035 1019.01 207.159 1019.01 206.282ZM1009.81 190.068H990.088L999.729 159.829L1009.81 190.068ZM1058.45 205.844V153.694C1058.45 152.379 1057.58 151.503 1056.26 151.503C1055.39 151.503 1054.07 151.941 1054.07 153.694V200.147L1033.47 153.256C1033.04 152.379 1032.16 151.941 1031.72 151.941H1030.41C1029.53 151.941 1028.21 152.818 1028.21 154.132V205.844C1028.21 207.159 1029.09 207.597 1030.41 207.597C1031.28 207.597 1032.6 207.159 1032.6 205.844V159.829L1053.19 206.721C1053.63 207.597 1054.51 208.035 1055.39 208.035H1056.7C1057.58 208.035 1058.45 207.159 1058.45 205.844ZM1100.96 192.697V166.841C1100.96 158.515 1094.39 152.379 1086.5 152.379H1072.91C1071.6 152.379 1070.72 153.256 1070.72 154.571V205.844C1070.72 206.721 1071.6 208.035 1072.91 208.035H1086.5C1094.39 207.597 1100.96 201.024 1100.96 192.697ZM1097.02 192.697C1097.02 198.832 1092.2 203.215 1086.5 203.215H1074.67V156.324H1086.06C1092.2 156.324 1096.58 161.144 1096.58 166.841V192.697H1097.02Z" fill="white"/>
</g>
<defs>
<filter id="filter0_d_9_270" x="0" y="0" width="1105.4" height="217.7" filterUnits="userSpaceOnUse" color-interpolation-filters="sRGB">
<feFlood flood-opacity="0" result="BackgroundImageFix"/>
<feColorMatrix in="SourceAlpha" type="matrix" values="0 0 0 0 0 0 0 0 0 0 0 0 0 0 0 0 0 0 127 0" result="hardAlpha"/>
<feOffset dy="4"/>
<feGaussianBlur stdDeviation="2"/>
<feComposite in2="hardAlpha" operator="out"/>
<feColorMatrix type="matrix" values="0 0 0 0 0 0 0 0 0 0 0 0 0 0 0 0 0 0 0.25 0"/>
<feBlend mode="normal" in2="BackgroundImageFix" result="effect1_dropShadow_9_270"/>
<feBlend mode="normal" in="SourceGraphic" in2="effect1_dropShadow_9_270" result="shape"/>
</filter>
</defs>
</svg>
