<svg width="248" height="48" viewBox="0 0 248 48" fill="none" xmlns="http://www.w3.org/2000/svg">
<path d="M12.4 41.7V37C12.4 36.2 11.7 35.5 10.9 35.5H6.9C5.9 35.5 5.4 36.2 5.4 37C5.4 37.8 5.9 38.5 6.9 38.5H9.4V41.7C9.4 43.4 8 44.8 6.3 44.8H6C4.3 44.8 2.9 43.5 2.9 41.8V31.9C2.9 30.2 4.3 28.9 6 28.9H6.3C7.8 28.9 9.2 29.6 9.4 31C9.5 32 10.2 32.3 10.9 32.3C11.6 32.3 12.4 31.9 12.4 30.9V30.7C12.2 28 9.6 25.8 6.4 25.8H6C2.7 25.8 0 28.4 0 31.7V41.6C0 45 2.7 47.5 6 47.5H6.3C9.7 47.7 12.4 45 12.4 41.7Z" fill="white"/>
<path d="M27.9 41.7V27.4C27.9 26.4 27.2 25.9 26.4 25.9C25.7 25.9 24.9 26.4 24.9 27.4V41.7C24.9 43.3 23.5 44.8 21.8 44.8H21.5C19.8 44.8 18.4 43.4 18.4 41.7V27.4C18.4 26.4 17.7 25.9 16.9 25.9C16.2 25.9 15.4 26.4 15.4 27.4V41.7C15.4 45 18.1 47.7 21.4 47.7H21.7C25.2 47.7 27.9 45 27.9 41.7Z" fill="white"/>
<path d="M43.4 41.7V37C43.4 36.2 42.7 35.5 41.9 35.5H37.9C36.9 35.5 36.4 36.2 36.4 37C36.4 37.8 36.9 38.5 37.9 38.5H40.4V41.7C40.4 43.4 39 44.8 37.3 44.8H37C35.3 44.8 33.9 43.5 33.9 41.8V31.9C33.9 30.2 35.3 28.9 37 28.9H37.3C38.8 28.9 40.2 29.6 40.4 31C40.5 32 41.2 32.3 41.9 32.3C42.6 32.3 43.4 31.9 43.4 30.9V30.7C43.2 28 40.6 25.8 37.4 25.8H37C33.7 25.8 31 28.4 31 31.7V41.6C31 45 33.7 47.5 37 47.5H37.3C40.7 47.7 43.4 45 43.4 41.7Z" fill="white"/>
<path d="M58.8 41.7V37C58.8 36.2 58.1 35.5 57.3 35.5H53.3C52.3 35.5 51.8 36.2 51.8 37C51.8 37.8 52.3 38.5 53.3 38.5H55.8V41.7C55.8 43.4 54.4 44.8 52.7 44.8H52.4C50.7 44.8 49.3 43.5 49.3 41.8V31.9C49.3 30.2 50.7 28.9 52.4 28.9H52.7C54.2 28.9 55.6 29.6 55.8 31C55.9 32 56.6 32.3 57.3 32.3C58 32.3 58.8 31.9 58.8 30.9V30.7C58.6 28 56 25.8 52.8 25.8H52.5C49.2 25.8 46.5 28.4 46.5 31.7V41.6C46.5 45 49.2 47.5 52.5 47.5H52.8C56.1 47.7 58.8 45 58.8 41.7Z" fill="white"/>
<path d="M74.3 46.1C74.3 45.4 73.8 44.6 72.8 44.6H64.9V38H70.3C71.3 38 71.8 37.3 71.8 36.5C71.8 35.8 71.3 35 70.3 35H64.9V29H72.8C73.8 29 74.3 28.3 74.3 27.5C74.3 26.8 73.8 26 72.8 26H63.4C62.6 26 61.9 26.7 61.9 27.5V46C61.9 46.8 62.6 47.5 63.4 47.5H72.8C73.8 47.5 74.3 46.8 74.3 46.1Z" fill="white"/>
<path d="M89.1 46.2V27.4C89.1 26.4 88.3 25.9 87.6 25.9C86.9 25.9 86.1 26.4 86.1 27.4V40.4L80.2 27C79.7 25.9 79 25.9 78.6 25.9H78.3C77.3 25.9 76.7 26.6 76.7 27.4V46.2C76.7 47.2 77.5 47.7 78.2 47.7C78.9 47.7 79.7 47.2 79.7 46.2V33.1L85.6 46.5C86.1 47.6 86.9 47.7 87.3 47.7H87.6C88.5 47.7 89.1 47 89.1 46.2Z" fill="white"/>
<path d="M104.6 46.2V27.4C104.6 26.4 103.9 25.9 103.1 25.9C102.4 25.9 101.6 26.4 101.6 27.4V35H95.1V27.4C95.1 26.4 94.4 25.9 93.6 25.9C92.9 25.9 92.1 26.4 92.1 27.4V46.2C92.1 47.2 92.8 47.7 93.6 47.7C94.3 47.7 95.1 47.2 95.1 46.2V38H101.6V46.2C101.6 47.2 102.3 47.7 103.1 47.7C103.9 47.7 104.6 47.2 104.6 46.2Z" fill="white"/>
<path d="M120.1 46.1C120.1 45.4 119.6 44.6 118.6 44.6H110.7V38H116.1C117.1 38 117.6 37.3 117.6 36.5C117.6 35.8 117.1 35 116.1 35H110.7V29H118.6C119.6 29 120.1 28.3 120.1 27.5C120.1 26.8 119.6 26 118.6 26H109.2C108.4 26 107.7 26.7 107.7 27.5V46C107.7 46.8 108.4 47.5 109.2 47.5H118.6C119.6 47.5 120.1 46.8 120.1 46.1Z" fill="white"/>
<path d="M125.6 46.2V27.4C125.6 26.4 124.9 25.9 124.1 25.9C123.4 25.9 122.6 26.4 122.6 27.4V46.2C122.6 47.2 123.3 47.7 124.1 47.7C124.9 47.7 125.6 47.2 125.6 46.2Z" fill="white"/>
<path d="M144.6 46.2V27.4C144.6 26.6 143.9 25.9 143.1 25.9H142.7C141.9 25.9 141.5 26.1 141.2 26.8L136.7 37L132.1 26.8C131.9 26.2 131.4 25.9 130.6 25.9H130.2C129.4 25.9 128.7 26.6 128.7 27.4V46.2C128.7 47.2 129.4 47.7 130.2 47.7C130.9 47.7 131.7 47.2 131.7 46.2V33.1L135.2 40.9C135.5 41.5 136.1 41.8 136.7 41.8C137.4 41.8 138 41.5 138.3 40.9L141.6 33.1V46.2C141.6 47.2 142.3 47.7 143.1 47.7C143.9 47.7 144.6 47.2 144.6 46.2Z" fill="white"/>
<path d="M70.1 15.6V15.3C70.1 13.4 69.1 11.6 67.7 10.5C69.2 9.5 69.9 7.8 69.9 5.9C69.9 2.6 67.5 0.1 64.1 0.1H59.5C58.7 0.1 58 0.8 58 1.6V20C58 20.8 58.7 21.5 59.5 21.5H64.1C67.4 21.6 70.1 18.9 70.1 15.6ZM66.9 6C66.9 7.9 65.7 9.2 64.1 9.2H61V3.2H64.1C65.8 3.1 66.9 4.2 66.9 6ZM67.2 15.6C67.2 17.3 65.9 18.7 64.1 18.7H61V12.1H64.1C65.7 12.1 67.2 13.6 67.2 15.3V15.6ZM85.1 15.8V5.9C85.1 2.6 82.4 0 79.1 0H78.8C75.5 0 72.7 2.6 72.7 5.9V15.8C72.7 19.2 75.4 21.7 78.7 21.7H79C82.4 21.8 85.1 19.2 85.1 15.8ZM82.1 15.8C82.1 17.5 80.7 18.8 79 18.8H78.7C77 18.8 75.6 17.5 75.6 15.8V5.9C75.6 4.2 77 2.9 78.7 2.9H79C80.7 2.9 82.1 4.1 82.1 5.9V15.8ZM99.5 20.2C99.5 19.5 99 18.7 98 18.7H91.1V1.5C91.1 0.5 90.4 0 89.6 0C88.9 0 88.1 0.5 88.1 1.5V20.1C88.1 20.9 88.8 21.6 89.6 21.6H98C99 21.6 99.5 20.9 99.5 20.2ZM113.2 20.2C113.2 19.5 112.7 18.7 111.7 18.7H104.8V1.5C104.8 0.5 104.1 0 103.3 0C102.6 0 101.8 0.5 101.8 1.5V20.1C101.8 20.9 102.5 21.6 103.3 21.6H111.6C112.7 21.6 113.2 20.9 113.2 20.2ZM130.2 20.4C130.2 20.3 130.2 20.2 130.1 19.9L124.2 1.2C124 0.4 123.2 0 122.5 0C121.8 0 121 0.4 120.8 1.2L114.9 19.9C114.9 20.1 114.8 20.3 114.8 20.4C114.8 21.2 115.4 21.8 116.3 21.8C116.9 21.8 117.5 21.5 117.8 20.7L119 16.6H125.9L127.2 20.7C127.4 21.4 128 21.8 128.6 21.8C129.6 21.8 130.2 21.2 130.2 20.4ZM125.1 13.7H120.1L122.6 5.5L125.1 13.7ZM144.6 15.8V11.1C144.6 10.3 143.9 9.6 143.1 9.6H139.1C138.1 9.6 137.6 10.3 137.6 11.1C137.6 11.8 138.1 12.6 139.1 12.6H141.6V15.8C141.6 17.5 140.2 18.9 138.5 18.9H138.2C136.5 18.9 135.1 17.6 135.1 15.9V5.9C135.1 4.2 136.5 2.9 138.2 2.9H138.5C140 2.9 141.4 3.6 141.6 5C141.7 6 142.4 6.3 143.1 6.3C143.8 6.3 144.6 5.9 144.6 4.9C144.4 2.2 141.8 0 138.6 0H138.3C135 0 132.3 2.6 132.3 5.9V15.8C132.3 19.2 135 21.7 138.3 21.7H138.6C141.9 21.8 144.6 19.1 144.6 15.8Z" fill="white"/>
<path d="M159.1 44.3C159.1 40 153.2 40.8 153.2 37.8C153.2 36.4 154.2 35.6 155.5 35.6H155.7C157 35.6 158 36.3 158 37.5C158 37.8 158.2 38 158.5 38C158.7 38 158.9 37.9 158.9 37.6C158.9 35.8 157.5 34.8 155.7 34.8H155.5C153.8 34.8 152.3 36 152.3 37.9C152.3 41.8 158.2 40.8 158.2 44.5C158.2 45.9 157.1 46.7 155.7 46.7H155.5C154.1 46.7 153.1 45.8 153.1 44.3C153.1 44 152.9 43.8 152.6 43.8C152.3 43.8 152.1 43.9 152.1 44.3C152.1 46.4 153.6 47.6 155.5 47.6H155.7C157.6 47.5 159.1 46.3 159.1 44.3ZM172.9 35.1C172.9 34.8 172.6 34.7 172.4 34.7C172.2 34.7 172 34.8 172 35L169.7 45.8L167.2 35C167.1 34.8 167 34.7 166.8 34.7C166.6 34.7 166.4 34.8 166.4 35L163.8 45.8L161.5 35C161.4 34.8 161.3 34.7 161.1 34.7C160.9 34.7 160.6 34.9 160.6 35.1C160.6 35.2 160.6 35.2 160.6 35.2L163.1 46.9C163.2 47.3 163.6 47.4 163.8 47.4C164.1 47.4 164.4 47.3 164.5 46.9L166.8 37L169 47C169.1 47.4 169.4 47.5 169.7 47.5C169.9 47.5 170.3 47.4 170.4 47L172.9 35.3C172.9 35.2 172.9 35.2 172.9 35.1ZM176.2 47V35.1C176.2 34.8 176 34.6 175.7 34.6C175.5 34.6 175.2 34.7 175.2 35.1V47C175.2 47.3 175.4 47.4 175.7 47.4C175.9 47.5 176.2 47.4 176.2 47ZM184.7 35.2C184.7 35 184.6 34.7 184.2 34.7H178.6C178.3 34.7 178.1 34.9 178.1 35.2C178.1 35.4 178.2 35.6 178.6 35.6H181V47C181 47.3 181.2 47.4 181.4 47.4C181.6 47.4 181.9 47.3 181.9 47V35.7H184.3C184.6 35.7 184.7 35.4 184.7 35.2ZM192.5 35.4C192.5 35.1 192.3 34.8 192 34.8H186.7C186.4 34.8 186.2 35 186.2 35.2C186.2 35.4 186.3 35.7 186.7 35.7H191.4L186.2 46.4C186.1 46.7 186.1 46.7 186.1 46.9V47C186.1 47.2 186.3 47.5 186.6 47.5H192.1C192.4 47.5 192.6 47.3 192.6 47C192.6 46.8 192.5 46.6 192.1 46.6H187.2L192.4 35.9C192.5 35.6 192.5 35.5 192.5 35.4ZM201.6 46.9C201.6 46.7 201.5 46.5 201.1 46.5H195.6V41.3H199.5C199.8 41.3 200 41.1 200 40.9C200 40.7 199.9 40.4 199.5 40.4H195.7V35.7H201.1C201.4 35.7 201.6 35.5 201.6 35.3C201.6 35.1 201.5 34.8 201.1 34.8H195.1C194.8 34.8 194.6 35 194.6 35.3V47C194.6 47.2 194.8 47.5 195.1 47.5H201.1C201.5 47.4 201.6 47.2 201.6 46.9ZM210.7 38.3V38.1C210.7 36.3 209.2 34.8 207.4 34.8H204.2C204 34.8 203.8 35 203.8 35.3V47C203.8 47.3 204 47.4 204.2 47.4C204.4 47.4 204.7 47.3 204.7 47V41.6H207.1L209.8 47.2C209.9 47.4 210 47.4 210.2 47.4C210.4 47.4 210.7 47.3 210.7 47C210.7 46.9 210.7 46.9 210.6 46.8L208.1 41.6C209.6 41.3 210.7 40 210.7 38.3ZM209.8 38.3C209.8 39.7 208.7 40.7 207.4 40.7H204.7V35.6H207.4C208.8 35.6 209.8 36.7 209.8 38V38.3ZM219.1 46.9C219.1 46.7 219 46.5 218.6 46.5H213.9V35.1C213.9 34.8 213.7 34.6 213.4 34.6C213.2 34.6 212.9 34.7 212.9 35.1V46.9C212.9 47.1 213.1 47.4 213.4 47.4H218.6C219 47.4 219.1 47.2 219.1 46.9ZM229.3 47.1C229.3 47 229.3 47 229.3 47L225.4 35C225.3 34.8 225.2 34.7 225 34.7C224.8 34.7 224.6 34.8 224.6 35L220.7 46.9V47C220.7 47.3 220.9 47.4 221.2 47.4C221.4 47.4 221.6 47.3 221.6 47.1L222.5 44.2H227.5L228.5 47.1C228.6 47.3 228.7 47.4 228.9 47.4C229.1 47.5 229.3 47.3 229.3 47.1ZM227.2 43.4H222.7L224.9 36.5L227.2 43.4ZM238.3 47V35.1C238.3 34.8 238.1 34.6 237.8 34.6C237.6 34.6 237.3 34.7 237.3 35.1V45.7L232.6 35C232.5 34.8 232.3 34.7 232.2 34.7H231.9C231.7 34.7 231.4 34.9 231.4 35.2V47C231.4 47.3 231.6 47.4 231.9 47.4C232.1 47.4 232.4 47.3 232.4 47V36.5L237.1 47.2C237.2 47.4 237.4 47.5 237.6 47.5H237.9C238.1 47.5 238.3 47.3 238.3 47ZM248 44V38.1C248 36.2 246.5 34.8 244.7 34.8H241.6C241.3 34.8 241.1 35 241.1 35.3V47C241.1 47.2 241.3 47.5 241.6 47.5H244.7C246.5 47.4 248 45.9 248 44ZM247.1 44C247.1 45.4 246 46.4 244.7 46.4H242V35.7H244.6C246 35.7 247 36.8 247 38.1V44H247.1Z" fill="white"/>
<path d="M159 26.9V23.9C159 23.7 158.8 23.5 158.5 23.5H155.8C155.5 23.5 155.3 23.7 155.3 24C155.3 24.2 155.5 24.4 155.8 24.4H158V26.9C158 28.3 156.9 29.3 155.6 29.3H155.4C154 29.3 153 28.2 153 26.9V20.7C153 19.3 154.1 18.3 155.4 18.3H155.6C156.9 18.3 157.9 19.3 158 20.5C158 20.8 158.2 20.9 158.5 20.9C158.8 20.9 159 20.7 159 20.4C159 18.6 157.4 17.3 155.7 17.3H155.5C153.7 17.3 152.2 18.8 152.2 20.6V26.8C152.2 28.7 153.7 30.1 155.5 30.1H155.7C157.5 30.2 159 28.7 159 26.9ZM168.6 21V20.8C168.6 19 167.1 17.5 165.3 17.5H162C161.8 17.5 161.6 17.7 161.6 18V29.8C161.6 30.1 161.8 30.2 162 30.2C162.2 30.2 162.5 30.1 162.5 29.8V24.4H164.9L167.6 30C167.7 30.2 167.8 30.2 168 30.2C168.2 30.2 168.5 30.1 168.5 29.8C168.5 29.7 168.5 29.7 168.4 29.6L165.9 24.4C167.4 24 168.6 22.7 168.6 21ZM167.7 21C167.7 22.4 166.6 23.4 165.3 23.4H162.6V18.3H165.3C166.7 18.3 167.7 19.4 167.7 20.7V21ZM177.6 26.9V20.7C177.6 18.8 176.1 17.4 174.3 17.4H174.1C172.3 17.4 170.8 18.9 170.8 20.7V26.9C170.8 28.8 172.3 30.2 174.1 30.2H174.3C176.1 30.2 177.6 28.7 177.6 26.9ZM176.7 26.9C176.7 28.3 175.6 29.3 174.3 29.3H174.1C172.7 29.3 171.7 28.2 171.7 26.9V20.7C171.7 19.3 172.8 18.3 174.1 18.3H174.3C175.7 18.3 176.7 19.4 176.7 20.7V26.9ZM187.1 26.9V17.9C187.1 17.6 186.9 17.4 186.6 17.4C186.4 17.4 186.2 17.5 186.2 17.9V26.9C186.2 28.3 185.1 29.3 183.8 29.3H183.6C182.2 29.3 181.2 28.2 181.2 26.9V17.9C181.2 17.6 181 17.4 180.8 17.4C180.6 17.4 180.3 17.5 180.3 17.9V26.9C180.3 28.8 181.8 30.2 183.6 30.2H183.8C185.6 30.2 187.1 28.7 187.1 26.9ZM196.8 20.8C196.8 19 195.3 17.5 193.5 17.5H190.4C190.2 17.5 189.9 17.7 189.9 18V29.8C189.9 30.1 190.1 30.2 190.4 30.2C190.6 30.2 190.8 30.1 190.8 29.8V24.2H193.4C195.3 24.1 196.8 22.6 196.8 20.8ZM195.9 20.8C195.9 22.2 194.8 23.2 193.5 23.2H190.9V18.4H193.5C194.9 18.4 195.9 19.5 195.9 20.8Z" fill="white"/>
<path d="M159 0.6C159 0.4 158.9 0.2 158.5 0.2H152.5C152.2 0.2 152 0.4 152 0.7V12.5C152 12.8 152.2 12.9 152.5 12.9C152.8 12.9 152.9 12.8 152.9 12.5V6.7H156.8C157.1 6.7 157.3 6.5 157.3 6.2C157.3 6 157.2 5.7 156.8 5.7H153V1.1H158.5C158.8 1.1 159 0.8 159 0.6ZM167.1 12.4C167.1 12.3 167.1 12.3 167.1 12.3L163.2 0.4C163.1 0.2 163 0.1 162.8 0.1C162.6 0.1 162.4 0.2 162.4 0.4L158.5 12.3V12.4C158.5 12.7 158.7 12.8 159 12.8C159.2 12.8 159.4 12.7 159.4 12.5L160.3 9.6H165.3L166.3 12.5C166.4 12.7 166.5 12.8 166.7 12.8C166.9 12.9 167.1 12.7 167.1 12.4ZM165 8.7H160.5L162.7 1.8L165 8.7ZM175.4 9.7C175.4 5.4 169.5 6.2 169.5 3.2C169.5 1.8 170.5 1 171.8 1H172C173.3 1 174.3 1.7 174.3 2.9C174.3 3.2 174.5 3.4 174.8 3.4C175 3.4 175.2 3.3 175.2 3C175.2 1.2 173.8 0.2 172 0.2H171.8C170.1 0.2 168.6 1.4 168.6 3.3C168.6 7.2 174.5 6.2 174.5 9.9C174.5 11.3 173.4 12.1 172 12.1H171.8C170.4 12.1 169.4 11.2 169.4 9.7C169.4 9.4 169.2 9.2 168.9 9.2C168.7 9.2 168.4 9.3 168.4 9.7C168.4 11.8 169.9 13 171.8 13H172C173.9 12.9 175.4 11.6 175.4 9.7ZM184.6 12.4V0.5C184.6 0.2 184.4 0 184.1 0C183.9 0 183.7 0.1 183.7 0.5V5.8H178.6V0.5C178.6 0.2 178.4 0 178.2 0C178 0 177.7 0.1 177.7 0.5V12.4C177.7 12.7 177.9 12.8 178.2 12.8C178.4 12.8 178.6 12.7 178.6 12.4V6.7H183.7V12.4C183.7 12.7 183.9 12.8 184.1 12.8C184.4 12.9 184.6 12.7 184.6 12.4ZM188.5 12.4V0.5C188.5 0.2 188.3 0 188 0C187.8 0 187.5 0.1 187.5 0.5V12.4C187.5 12.7 187.7 12.8 188 12.8C188.3 12.9 188.5 12.7 188.5 12.4ZM198.2 9.5V3.4C198.2 1.5 196.7 0.1 194.9 0.1H194.7C192.9 0.1 191.4 1.6 191.4 3.4V9.6C191.4 11.5 192.9 12.9 194.7 12.9H194.9C196.7 12.9 198.2 11.4 198.2 9.5ZM197.3 9.5C197.3 10.9 196.2 11.9 194.9 11.9H194.7C193.3 11.9 192.3 10.8 192.3 9.5V3.4C192.3 2 193.4 1 194.7 1H194.9C196.3 1 197.3 2.1 197.3 3.4V9.5ZM207.7 12.4V0.5C207.7 0.2 207.5 0 207.2 0C207 0 206.7 0.1 206.7 0.5V11.1L202 0.3C201.9 0.1 201.7 0 201.6 0H201.3C201.1 0 200.8 0.2 200.8 0.5V12.4C200.8 12.7 201 12.8 201.3 12.8C201.5 12.8 201.8 12.7 201.8 12.4V1.8L206.5 12.5C206.6 12.7 206.8 12.8 207 12.8H207.3C207.5 12.9 207.7 12.7 207.7 12.4Z" fill="white"/>
</svg>
