<?xml version="1.0" encoding="utf-8"?>
<!-- Generator: Adobe Illustrator 26.0.3, SVG Export Plug-In . SVG Version: 6.00 Build 0)  -->
<svg version="1.1" id="Ebene_1" xmlns="http://www.w3.org/2000/svg" xmlns:xlink="http://www.w3.org/1999/xlink" x="0px" y="0px"
	 viewBox="0 0 404.7 138" style="enable-background:new 0 0 404.7 138;" xml:space="preserve">
<style type="text/css">
	.st0{fill-rule:evenodd;clip-rule:evenodd;}
</style>
<g>
	<g>
		<path d="M0.2,82.1v-7.9h43.6v7.9H37c-0.9,0-1.8,0.3-2.5,0.8c-0.5,0.3-0.7,0.9-0.7,1.7v42.7c0,0.8,0.2,1.3,0.7,1.7
			c0.7,0.5,1.6,0.8,2.5,0.8h6.9v7.9H0.2v-7.9h6.9c0.9,0,1.8-0.3,2.5-0.8c0.5-0.3,0.8-0.9,0.8-1.7V84.5c0-0.8-0.3-1.3-0.9-1.8
			c-0.6-0.4-1.3-0.6-2.3-0.6H0.2z"/>
		<path d="M322.6,117.8h-9.7c-0.7,0.1-0.8,0.6-0.8,0.7l-0.2,3.1c-0.7,8.1-10.7,9.8-17.1,9.7h-12.2V84.5c0-0.8,0.2-1.3,0.7-1.7
			c0.7-0.5,1.5-0.7,2.4-0.7h6.9v-7.9h-44.2v7.9h6.9c1,0,1.7,0.2,2.3,0.6c0.6,0.5,0.8,1,0.8,1.8v42.8c0,0.7-0.2,1.3-0.8,1.6
			c-0.7,0.5-1.5,0.8-2.4,0.8h-6.9v7.9h75.1v-19.1C323.4,118.4,323.2,117.9,322.6,117.8"/>
		<path d="M61.1,74.1v19.2c0.1,0.2,0.2,0.6,0.9,0.7h8.1c0.5-0.1,0.7-0.3,0.8-0.6l0.1-0.4v0v0l0.1-0.8c0.2-2.7,0.5-11.8,17.4-11.8
			h2.3v46.7c0,0.8-0.3,1.3-0.8,1.7c-0.7,0.5-1.7,0.8-2.8,0.8H78v7.9h48.8v-7.9h-9.4c-0.9,0-1.7-0.3-2.4-0.8
			c-0.5-0.3-0.8-0.9-0.8-1.7V80.6c0.8,0,1.8,0,2.5,0c15.4,0.5,15.7,9.5,15.9,12l0.1,0.5v0.1v-0.1v0.3c0.1,0.2,0.3,0.6,0.9,0.7h8
			c0.8-0.1,0.9-0.8,0.9-0.8l0,0.3V74.1H61.1z M114.2,80.5L114.2,80.5L114.2,80.5L114.2,80.5z"/>
		<path class="st0" d="M227.6,130.5L227.6,130.5c0,0-2.8,0.2-4.9-3.2L198.1,75c-0.4-0.6-0.8-0.7-1-0.8h-18.7c-0.4,0.1-0.9,0.2-0.5,1
			l0,0l1.7,4.7l-23.5,45.9v0c0,0-2,4.4-5.5,4.8h-3.7v6.9h24.1v-6.9l-5,0c-0.6-0.2-1.3-0.6-1.1-1.6l5.2-10h24.7l4.7,9.8
			c0.5,1.2-0.2,1.7-0.9,1.9h-5.2v6.9h37.5v-6.9H227.6z M173.6,111.4l9.3-18.6l8.7,18.6H173.6z"/>
		<path d="M404.5,74.1h-25.3v7.9h2.1c0.9,0,3.4,0.4,2.2,2.9l-12.4,17.4l-12.4-17.2c-1.3-2.7,1.3-3.1,2.3-3.2h3.3v-7.9h-40.4v7.9h7.1
			c0.7,0,1.9,0.4,2.8,1.7l18.6,27.7v15.7c0,0.8-0.3,1.3-0.8,1.7c-0.7,0.5-1.5,0.8-2.4,0.8h-7v7.9h44.2v-7.9h-6.9
			c-0.9,0-1.7-0.3-2.4-0.8c-0.5-0.3-0.8-0.9-0.8-1.7v-16.1l18.8-27.7c0.5-0.5,1.3-1.2,2.8-1.3h6.5V74.1z"/>
		<rect x="1.4" y="23" width="69.3" height="2.3"/>
		<rect x="334.5" y="23" width="69.3" height="2.3"/>
		<path class="st0" d="M194.6,13.2c-0.2-3.4-0.6-5.9-1.4-7.5c-0.5-1.1-1.4-2-2.6-2.8c-1.2-0.8-3-1.4-5.5-1.9
			c-2.5-0.5-6.6-0.7-12.2-0.7c-6.6,0-11.5,0.3-14.8,0.8c-2.1,0.4-3.8,1-5.2,1.9c-0.9,0.6-1.6,1.4-2.2,2.5c-0.7,1.4-1.2,3.4-1.3,5.9
			l-0.3,12.5c0.3,8.6,0.5,13.4,0.6,14.4c0.2,2.3,0.9,4,2,5.2c1.1,1.3,2.7,2.2,4.7,2.7c2.8,0.8,8.2,1.2,16.1,1.2
			c6.1,0,10.5-0.3,13.4-0.8c2.1-0.4,3.7-1,4.7-1.8c1.1-0.7,1.9-1.8,2.6-3.3c0.7-1.4,1.2-3.8,1.4-7.2c0.2-3.4,0.3-6.9,0.3-10.7
			C194.9,20.1,194.8,16.7,194.6,13.2 M178.7,25.2c0,0.2,0,0.4,0,0.6c0,3.1-0.1,6-0.2,8.7c-0.1,1.9-0.2,3.2-0.4,3.9
			c-0.1,0.7-0.2,1.3-0.4,1.7c-0.1,0.1-0.1,0.2-0.2,0.4c0,0,0,0.1-0.1,0.1c-0.1,0.2-0.2,0.4-0.3,0.5c-0.1,0.1-0.2,0.2-0.3,0.3h0
			c-0.1,0.1-0.3,0.2-0.4,0.3c0,0-0.1,0.1-0.1,0.1c-0.3,0.2-0.6,0.3-1,0.3c-0.9,0.2-2.4,0.4-3.3,0.4c-1.1,0-2.9,0-3.8-0.4
			c-0.1-0.1-0.2-0.1-0.3-0.2c0,0-0.1,0-0.1,0c0,0,0,0-0.1,0c-0.2-0.1-0.4-0.2-0.5-0.4c0,0,0,0,0,0c-0.1-0.1-0.2-0.1-0.2-0.2
			c-0.3-0.2-0.4-0.5-0.6-0.9c-0.3-0.6-0.4-1.2-0.5-1.9c-0.1-0.5-0.2-1.8-0.3-3.4c0-0.4-0.1-0.7-0.1-1.1c-0.1-2.2-0.2-4.6-0.2-7.2
			c0-1.3,0-2.3,0-2.9v0v-0.2c0-0.1,0-0.3,0-0.5c0-3.5,0.1-6.7,0.2-9.5c0.2-3.1,0.4-4.9,0.6-5.8c0.3-1.1,0.7-1.7,1.7-2.2
			c1-0.5,3.3-0.6,4.6-0.6c1.4,0,2.9,0.2,3.9,0.7c0.9,0.5,1.2,1.1,1.5,1.7c0.4,0.9,0.5,2.9,0.7,5.9c0.1,1.7,0.1,3.4,0.1,5.1
			c0,0.4,0,0.8,0,1.2c0,1,0.1,1.9,0.1,2.8c0,0.7,0,1.3,0,1.9C178.7,24.7,178.7,25,178.7,25.2"/>
		<path class="st0" d="M134.5,13.2c-0.2-3.4-0.6-5.9-1.4-7.5c-0.5-1.1-1.4-2-2.6-2.8c-1.2-0.8-3-1.4-5.5-1.9
			c-2.5-0.5-6.6-0.7-12.2-0.7c-6.6,0-11.5,0.3-14.8,0.8c-2,0.4-3.8,1-5.1,1.9c-0.9,0.6-1.6,1.4-2.2,2.5c-0.7,1.4-1.2,3.4-1.3,5.9
			L89,23.9c0.3,8.6,0.5,13.4,0.6,14.4c0.2,2.3,0.9,4,2,5.2c1.1,1.3,2.7,2.2,4.7,2.7c2.8,0.8,8.2,1.2,16.1,1.2
			c6.1,0,10.5-0.3,13.4-0.8c2.1-0.4,3.7-1,4.7-1.8c1-0.7,1.9-1.8,2.6-3.3c0.7-1.4,1.2-3.8,1.4-7.2c0.2-3.4,0.3-6.9,0.3-10.7
			C134.8,20.1,134.6,16.7,134.5,13.2 M118.6,25.2c0,0.2,0,0.4,0,0.6c0,3.1,0,6-0.2,8.7c-0.2,1.9-0.2,3.2-0.4,3.9
			c-0.1,0.7-0.2,1.3-0.3,1.7c0,0.1-0.1,0.2-0.2,0.4c0,0,0,0.1,0,0.1c-0.1,0.2-0.2,0.4-0.3,0.5v0c-0.1,0.1-0.2,0.2-0.3,0.3
			c-0.1,0.1-0.3,0.2-0.5,0.3c0,0-0.1,0.1-0.1,0.1c-0.3,0.2-0.6,0.3-1,0.3c-1,0.2-2.4,0.4-3.3,0.4c-1.1,0-2.9,0-3.8-0.4
			c-0.1-0.1-0.2-0.1-0.3-0.2c0,0-0.1,0-0.1,0c0,0-0.1,0-0.1,0c-0.2-0.1-0.4-0.2-0.6-0.4v0c-0.1-0.1-0.2-0.1-0.2-0.2
			c-0.2-0.2-0.4-0.5-0.6-0.9c-0.3-0.6-0.4-1.2-0.5-1.9c-0.1-0.5-0.2-1.8-0.3-3.4c0-0.4,0-0.7-0.1-1.1c-0.1-2.2-0.2-4.7-0.2-7.2
			c0-1.3,0-2.2,0-2.8v0v0c0-0.1,0-0.1,0-0.2v-0.5c0-3.5,0.1-6.7,0.2-9.5c0.2-3.1,0.4-4.9,0.6-5.8c0.3-1.1,0.7-1.7,1.7-2.2
			c1-0.5,3.3-0.6,4.6-0.6c1.3,0,2.9,0.2,3.9,0.7c0.9,0.5,1.2,1.1,1.5,1.7c0.4,0.9,0.5,2.9,0.7,5.9c0.1,1.7,0.1,3.4,0.2,5
			c0,0.4,0,0.9,0,1.3c0,0.9,0.1,1.9,0.1,2.8c0,0.7,0,1.3,0,1.9C118.6,24.7,118.6,25,118.6,25.2"/>
		<path class="st0" d="M255.3,28.6c-0.3-1.2-0.8-2.2-1.6-3.1c-0.7-0.9-1.7-1.7-3-2.4c-1.2-0.7-2.9-1.3-5-1.7c-2-0.5-3.2-0.5-5.5-0.7
			h-2.5l18-12.9V1.3H210v10.6c0,0.2,0.2,0.6,0.8,0.7H222c0.7-0.1,0.8-0.7,0.8-0.8V8.2c0-0.5,0.2-0.9,0.6-1.2c0.5-0.3,1-0.5,1.6-0.5
			h16.7l-17.5,12v6.8h9.5c1.3,0,2.3,0.2,3,0.7c1,0.6,1.7,1.4,2,2.3c0.3,1,0.4,2.7,0.4,5.2c0,2.5-0.1,4.2-0.3,5.2
			c-0.2,1-0.5,1.8-1,2.4c-0.5,0.6-1.1,1-1.9,1.4c-0.8,0.3-1.9,0.4-3.4,0.4c-1.7,0-3-0.2-3.9-0.7c-0.9-0.5-1.5-1.2-1.8-2.2
			c-0.2-0.7-0.8-1.9-0.8-3.5c0-0.7,0-3,0-4.1c-0.1-0.2-0.3-0.6-0.9-0.6l-14.2,0c-0.6,0-0.8,0.4-0.9,0.6c-0.1,1.5-0.1,4.4-0.1,5.6
			c0,1.8,0.4,3.3,1.1,4.6c0.8,1.2,1.8,2.2,3,3c1.3,0.7,2.9,1.2,5,1.5c2.1,0.3,6.8,0.5,14.2,0.5c5.7,0,9.7-0.2,11.8-0.5
			c2.2-0.3,3.9-0.8,5.1-1.4c1.2-0.7,2.3-1.5,3.2-2.5c0.9-1.1,1.5-2.2,1.7-3.4c0.4-1.8,0.5-4,0.5-6.6
			C255.7,31.2,255.6,29.7,255.3,28.6"/>
		<path class="st0" d="M314.8,8.4c-0.4-2.1-1.3-3.7-2.6-4.8c-1.3-1.1-3.3-1.9-6-2.4c-2.6-0.5-7.6-0.7-15-0.7c-6,0-10.2,0.2-12.7,0.7
			c-2.5,0.5-4.5,1.5-6,2.8c-1.5,1.4-2.4,3.2-2.7,5.5c0,3.4-0.1,5.1-0.1,5.4c0,2.8,0.2,4.8,0.5,5.9c0.5,1.5,1.3,2.8,2.4,4
			c1.2,1.1,2.8,2.1,4.9,2.8c2.1,0.7,4.9,1.2,8.8,1.4c2.7,0.2,6.1,0.2,7.9,0.1c1.7-0.1,3-0.3,4.7-0.8v9.2c0,1.4-0.3,2.5-0.8,3.3
			c-0.5,0.8-1.1,1.3-1.9,1.7c-0.8,0.3-2.1,0.5-3.7,0.5c-1.7,0-3.6-0.2-4.5-0.8c-0.7-0.4-1.3-1.1-1.6-2.1c-0.4-1.1-0.6-2.6-0.6-3.6
			c0-0.3,0-1.1,0-1.8c-0.1-0.2-0.3-0.6-0.9-0.6h-14.2c-0.5,0-0.7,0.4-0.8,0.6c0,2.1,0.2,6.3,1.2,7.6c1,1.5,2.3,2.6,3.9,3.4
			c1.5,0.8,3.5,1.3,6,1.6c1.7,0.2,5.9,0.3,11.3,0.3c6.1,0,10.1-0.1,11.9-0.3c2.5-0.3,4.5-0.8,5.9-1.5c1.4-0.7,2.6-1.7,3.5-3
			c0.9-1.3,1.4-3,1.6-5.3c0.2-1.7,0.2-6.4,0.2-14.1C315.4,15.5,315.2,10.5,314.8,8.4 M299,14.1L299,14.1l0,0.4h0c0,0.6,0,2,0,4.2
			c0,1.4-0.3,2.2-0.6,2.9c-0.3,0.6-1,1.3-1.7,1.6c-1.1,0.4-2.4,0.5-3.9,0.5c-1.4,0-3,0-4-0.4c-0.7-0.3-1.4-1-1.8-1.5
			c-0.4-0.5-0.8-1.6-0.8-3.1c0-2.6,0-3.2,0-4.2v-0.8h0c0-0.8,0-1.5,0-3.8c0-1.5,0.4-2.6,0.8-3.1c0.4-0.5,1.1-1.2,1.8-1.5
			c1-0.4,2.6-0.4,4-0.4c1.5,0,2.8,0,3.9,0.5c0.8,0.3,1.4,1,1.7,1.6c0.3,0.7,0.6,1.5,0.6,2.9C299,12.2,299,13.6,299,14.1"/>
	</g>
</g>
</svg>
