<?xml version="1.0" encoding="UTF-8"?><svg id="Layer_1" xmlns="http://www.w3.org/2000/svg" viewBox="0 0 1722.05 298.48"><path d="m310.36,30.51h5.94c32.06,0,32.45,12.66,32.45,28.89v94.07l48.68-31.69v-62.38c0-16.23.39-28.89,33.64-28.89h11.87V11.51h-132.58v19Z"/><path d="m457.98,270.74h-41.56c-33.24,0-33.64-12.66-33.64-28.89v-83.58l-34.04,22.1v61.47c0,16.23-.4,28.89-32.45,28.89h-5.94v16.62h224.4l5.94-83.51h-15.83c-8.31,44.72-23.75,66.88-66.88,66.88Z"/><path d="m717.7,0c-88.48,0-155.35,64.02-155.35,149.24,0,27.17,6.22,51.6,17.33,72.47l45.37-29.28c-4.02-15.35-7.9-32.32-7.9-49.32,0-70.54,40.2-121.73,95.25-121.73,41.16,0,71.49,22.32,88.26,56.6l39.1-24.93C811.76,19.61,768.28,0,717.7,0Z"/><path d="m834.35,152.5c0,72.99-46.1,127.44-110.12,127.44-49.5,0-83.51-23.82-102.7-57.47l-29.16,18.94c27.82,35.91,72.76,57.07,125.34,57.07,88.48,0,155.35-64.02,155.35-149.24,0-29.22-7.2-55.26-19.93-77.12l-31.15,20.23c7.06,17.94,12.37,38.31,12.37,60.16Z"/><path d="m1005.66,28.14c45.91,0,78.76,24.54,89.84,70.84h20.58V9.14h-19.79c-.79,15.04-8.31,15.83-24.54,9.1-15.83-6.73-41.16-13.06-65.7-13.06-55.8,0-97.75,36.01-97.75,78.36,0,30.08,13.06,56.2,70.84,74.4l14.81,4.67,51.81-33.78-46.83-14.82c-38.78-12.27-50.26-23.35-50.26-44.33,0-23.75,22.96-41.56,56.99-41.56Z"/><path d="m1073.46,137.96l-34.33,22.29c49.41,15.7,63.09,30.34,63.09,57.85,0,29.68-23.75,56.2-75.99,56.2-40.76,0-90.23-10.29-106.46-70.45h-15.83v86.28h18.2c1.19-17.81,15.04-16.62,26.91-11.48,18.6,7.91,52.63,14.64,76.78,14.64,66.09,0,107.25-33.24,107.25-82.32,0-32.82-15.15-56.23-59.63-73.01Z"/><path d="m1384.91,90.27h19.79l-2.37-78.76h-232.31v19h5.94c32.06,0,32.45,12.66,32.45,27.31v52.39l48.28-31.33V30.51h66.89c38.78,0,53.03,17.02,61.34,59.76Z"/><path d="m1326.34,270.74h-50.66c-33.24,0-33.64-7.52-33.64-23.75v-91.03h64.51c15.83,0,30.87,3.56,34.83,31.27l1.19,8.71h15.83v-93.4h-15.83l-1.19,8.71c-3.16,24.54-18.99,28.1-34.83,28.1h-64.51v-24.03l-33.64,21.85v109.83c0,16.23-.4,23.75-32.45,23.75h-5.94v16.62h233.5l5.94-83.51h-15.83c-8.31,47.1-24.14,66.88-67.28,66.88Z"/><path d="m1454.51,11.51v19h5.94c32.06,0,32.45,12.66,32.45,28.1v78.11l48.28-31.42V31.3h33.24c21.08,0,38.55,6.73,52.42,18.26l30.03-19.54c-21.29-11.86-47.29-18.5-77.31-18.5h-125.06Z"/><path d="m1677.16,44.1l-25.53,16.58c20.78,23.17,31.24,56.47,31.24,92.51,0,75.99-40.76,117.54-96.96,117.54h-25.73c-33.24,0-33.64-12.66-33.64-28.89v-99.98l-33.64,21.85v78.14c0,16.23-.4,28.89-32.45,28.89h-5.94v16.62h136.93c79.94,0,130.6-58.97,130.6-138.12,0-43.55-16.01-80.5-44.89-105.14Z"/><path d="m717.7,0c-88.48,0-155.35,64.02-155.35,149.24,0,27.17,6.22,51.6,17.33,72.47l45.37-29.28c-4.02-15.35-7.9-32.32-7.9-49.32,0-70.54,40.2-121.73,95.25-121.73,41.16,0,71.49,22.32,88.26,56.6l39.1-24.93C811.76,19.61,768.28,0,717.7,0Z"/><path d="m238.25,9.14c-.25,4.38-1.18,7.57-2.73,9.82-3.35,4.84-9.93,4.82-21.01-.32-20.97-9.5-43.53-14.25-67.28-14.25-55.93,0-104.71,29.16-129.62,74.64C6.38,99.51,0,123.3,0,149.24c0,27.29,6.43,51.67,17.77,72.32.03.05.06.1.08.15l44.02-28.4,1.34-.87c-3.46-13.2-6.79-27.6-7.66-42.18-.07-2.18-.15-4.35-.15-6.56,0-66.49,35.22-117.15,91.02-117.15,51.84,0,81.13,29.29,91.82,72.43h19.79V9.14h-19.79Z"/><path d="m245.76,203.85c-10.68,52.64-41.55,71.24-89.83,71.24-27.28,0-49.97-7.45-67.9-20.28-11.05-9.01-20.1-20-27.13-32.34l-29.16,18.94c4.05,5.23,8.51,10.11,13.26,14.69.16.15.32.31.49.46,26.51,23.9,62.66,37.53,103.33,37.53,30.48,0,56.74-4.89,79.24-11.02,10.22-2.79,19.75-5.8,28.41-8.77l.66-9.09,3.67-50.25.81-11.11h-15.83Z"/></svg>