<?xml version="1.0" encoding="UTF-8"?><svg id="Layer_1" xmlns="http://www.w3.org/2000/svg" viewBox="0 0 830.11 87.03"><defs><style>.cls-1{fill:#3e4e4c;}</style></defs><path class="cls-1" d="M78.7,17.56l-11.33,7.55c-5.09-7.49-13.37-12.11-23.44-12.11-17.08,0-29.73,12.41-29.73,30.51s12.65,30.51,29.73,30.51c10.01,0,18.1-4.44,23.38-12.05l11.03,8.09c-7.13,10.49-19.66,16.96-34.4,16.96C18.16,87.03,0,68.63,0,43.51S18.16,0,43.93,0c14.92,0,28.17,6.65,34.76,17.56Z"/><path class="cls-1" d="M180.71,43.51c0,25.11-18.16,43.51-43.93,43.51s-43.93-18.4-43.93-43.51S111.01,0,136.78,0s43.93,18.4,43.93,43.51ZM107.05,43.51c0,18.1,12.65,30.51,29.73,30.51s29.73-12.41,29.73-30.51-12.65-30.51-29.73-30.51-29.73,12.41-29.73,30.51Z"/><path class="cls-1" d="M275.47,17.56l-11.33,7.55c-5.09-7.49-13.37-12.11-23.44-12.11-17.08,0-29.73,12.41-29.73,30.51s12.65,30.51,29.73,30.51c10.01,0,18.1-4.44,23.38-12.05l11.03,8.09c-7.13,10.49-19.66,16.96-34.4,16.96-25.77,0-43.93-18.4-43.93-43.51S214.94,0,240.71,0c14.92,0,28.17,6.65,34.76,17.56Z"/><path class="cls-1" d="M368.32,17.56l-11.33,7.55c-5.09-7.49-13.37-12.11-23.44-12.11-17.08,0-29.73,12.41-29.73,30.51s12.65,30.51,29.73,30.51c10.01,0,18.1-4.44,23.38-12.05l11.03,8.09c-7.13,10.49-19.66,16.96-34.4,16.96-25.77,0-43.93-18.4-43.93-43.51S307.78,0,333.56,0c14.92,0,28.17,6.65,34.76,17.56Z"/><path class="cls-1" d="M388.84,85.47V1.56h13.55v83.91h-13.55Z"/><path class="cls-1" d="M489.54,85.47l-46.81-60.72-.06,60.72h-13.55V1.56h12.23l46.87,60.72V1.56h13.55v83.91h-12.23Z"/><path class="cls-1" d="M528.7,85.47V1.56h60.42v12.71h-46.87v22.6h45.25v12.71h-45.25v23.19h47.65v12.71h-61.2Z"/><path class="cls-1" d="M613.65,85.47V1.56h13.55v71.08h46.45v12.83h-60Z"/><path class="cls-1" d="M691.28,85.47V1.56h13.55v71.08h46.45v12.83h-60Z"/><path class="cls-1" d="M768.91,85.47V1.56h60.42v12.71h-46.87v22.6h45.25v12.71h-45.25v23.19h47.65v12.71h-61.2Z"/></svg>