<?xml version="1.0" encoding="utf-8"?>
<!-- Generator: Adobe Illustrator 24.2.0, SVG Export Plug-In . SVG Version: 6.00 Build 0)  -->
<svg version="1.1" id="überarbeitet" xmlns="http://www.w3.org/2000/svg" xmlns:xlink="http://www.w3.org/1999/xlink" x="0px"
	 y="0px" viewBox="0 0 425.2 113.4" style="enable-background:new 0 0 425.2 113.4;" xml:space="preserve">
<g>
</g>
<g>
</g>
<g>
	<g>
	</g>
</g>
<path d="M101.9,79.2c13.8,0,26.7-7,26.7-23.2c0-14.5-10.9-22.8-27.2-22.8c-14.2,0-26.8,6.9-26.8,23.3
	C74.7,71.5,86.5,79.2,101.9,79.2z M101.9,40.3c12,0,17.2,8,17.2,15.8c0,11.2-9.7,15.5-17,15.5c-11.1,0-17.7-6.7-17.7-15.8
	C84.4,45.6,92.2,40.3,101.9,40.3z M265.2,33.7H256v45h43.2v-7c-2.5,0-34,0-34,0S265.2,36.2,265.2,33.7z M379.9,33.2
	c-14.2,0-26.8,6.9-26.8,23.3c0,15.1,11.8,22.8,27.3,22.8c13.8,0,26.7-7,26.7-23.2C407,41.6,396.2,33.2,379.9,33.2z M380.5,71.5
	c-11.1,0-17.7-6.7-17.7-15.8c0-10.2,7.8-15.5,17.6-15.5c12,0,17.2,8,17.2,15.8C397.5,67.2,387.7,71.5,380.5,71.5z M209.8,58.7h20.6
	v-6.5h-20.6V40.1h32c0,0,0-5.2,0-6.5H201v45h40.8v-7h-32V58.7z M317.7,33.7h-9.2v45h43.2v-7c-2.5,0-34,0-34,0S317.7,36.2,317.7,33.7
	z M165.8,33.7h-24.9l0,45c0,0,21.6,0,24.3,0c2.8,0,23-0.7,23.4-22.9v0l0,0c0-0.1,0-0.5,0-1C188.6,48.2,185.5,33.7,165.8,33.7z
	 M165.1,71.5c-10.2,0-14.9,0-14.9,0V40.3c0,0,8.8,0,13.6,0c9,0,16.2,4.5,16.2,15.7C180,67.1,173.5,71.5,165.1,71.5z M65.3,74.8
	l-3.5-6.7c0,0-6.3,4-15.7,4c-13.9,0-21.5-9-21.5-15.7c0-8.9,9.6-15.9,21.5-15.9c9.9,0,15.7,3.9,15.7,3.9l3.5-6.7
	c0,0-8.7-4.5-19.3-4.5c-26.5,0-31,16.3-31,23c0,7.7,5.6,23.1,31,23.1C56.3,79.3,65.3,74.8,65.3,74.8z"/>
</svg>
