<?xml version="1.0" encoding="utf-8"?>
<!-- Generator: Adobe Illustrator 23.0.4, SVG Export Plug-In . SVG Version: 6.00 Build 0)  -->
<svg version="1.1" id="Ebene_1" xmlns="http://www.w3.org/2000/svg" xmlns:xlink="http://www.w3.org/1999/xlink" x="0px" y="0px"
	 viewBox="0 0 104 37" style="enable-background:new 0 0 104 37;" xml:space="preserve">
<style type="text/css">
	.st0{fill:#1A1A18;}
</style>
<g id="Drykorn_Logotype_01251010_1_">
	<path id="DRYKORN" class="st0" d="M0,1.2h5.9c3.4,0,6.1,2,6.1,5.7v23c0,4.1-2.7,6.1-6.2,6.1H0V1.2z M5.6,31.9
		c1.8,0,2.1-1.3,2.1-2.4V7.3c0-1.2-0.6-2.1-2.1-2.1H4.3v26.8H5.6z M14.4,1.2h5.4c4.1,0,6.7,2.6,6.7,9.6c0,5.1-1.3,7.2-2.3,8.1
		l2.6,17.1h-4.3l-2.1-15.7h-1.7v15.7h-4.3V1.2z M20.1,16.9c1.3,0,2.1-1.8,2.1-5.8c0-3.5-0.4-6-2.4-6h-1v11.8H20.1z M31.7,21.5
		L27.1,1.2h4.5L34,14.6l2.2-13.4h4.1l-4.4,20.5v14.3h-4.2V21.5z M41.9,1.2h4.3v15.7l4-15.7h4.2l-3.8,13.1l3.9,21.7h-4.3L47.7,19
		l-1.5,4.7v12.2h-4.3V1.2z M55.7,29.7V7c0-4,2.5-6.3,6.2-6.3c3.7,0,6.1,2.2,6.1,6.1v23c0,4.2-2.4,6.5-6.2,6.5
		C57.6,36.3,55.7,33.8,55.7,29.7z M63.7,30V6.7c0-1.1-0.5-1.9-1.9-1.9c-1.4,0-1.9,1-1.9,1.9V30c0,1,0.5,2.2,1.9,2.2
		C63.4,32.2,63.7,31,63.7,30z M70.4,1.2h5.4c4.1,0,6.7,2.6,6.7,9.6c0,5.1-1.3,7.2-2.3,8.1l2.6,17.1h-4.3l-2.1-15.7h-1.7v15.7h-4.3
		V1.2z M76.1,16.9c1.3,0,2.1-1.8,2.1-5.8c0-3.5-0.4-6-2.4-6h-1v11.8H76.1z M84.9,1.2h4.8l4.4,21.3h0.1V1.2h3.7v34.8h-4.3l-4.9-23.7
		h-0.1v23.7h-3.7V1.2z"/>
	<path id="Registered_Trademark" class="st0" d="M100.6,2h1.2c0.5,0,1,0.3,1,0.8c0,0.3-0.2,0.6-0.5,0.8l0.6,1h-0.7l-0.5-0.9h-0.3
		v0.9h-0.7V2z M101.7,3.2c0.2,0,0.4-0.1,0.4-0.3c0-0.2-0.2-0.4-0.4-0.4h-0.4v0.7H101.7z M101.6,1c-1.3,0-2.4,1.1-2.4,2.4
		c0,1.3,1.1,2.4,2.4,2.4c1.3,0,2.4-1.1,2.4-2.4C104,2.1,102.9,1,101.6,1z M101.6,5.2c-1,0-1.8-0.8-1.8-1.8c0-1,0.8-1.8,1.8-1.8
		c1,0,1.8,0.8,1.8,1.8C103.4,4.4,102.6,5.2,101.6,5.2z"/>
</g>
</svg>
