<?xml version="1.0" encoding="utf-8"?>
<!-- Generator: Adobe Illustrator 23.0.4, SVG Export Plug-In . SVG Version: 6.00 Build 0)  -->
<svg version="1.1" id="Ebene_1" xmlns="http://www.w3.org/2000/svg" xmlns:xlink="http://www.w3.org/1999/xlink" x="0px" y="0px"
	 viewBox="0 0 104 40" style="enable-background:new 0 0 104 40;" xml:space="preserve">
<style type="text/css">
	.st0{fill:#1D1D1B;}
</style>
<g>
	<path class="st0" d="M14,13v-1.4h4.7v18.7c0,5.9-4.4,9.5-9.4,9.5c-2.4,0-4.8-0.9-6.7-2.8L6,33.6c3.4,3.4,8,0.8,8-3.4v-1.9
		c0,0-1.7,1.7-4.7,1.7c-5.2,0-9.3-4.2-9.3-9.4c0-5.2,4.1-9.4,9.3-9.4C12.3,11.3,14,13,14,13z M4.8,20.7c0,2.5,2,4.7,4.5,4.7
		c2.5,0,4.7-2.1,4.7-4.7c0-2.5-2.2-4.7-4.7-4.7C6.8,16,4.8,18.2,4.8,20.7z"/>
	<path class="st0" d="M27.1,20.9v-4.3h10.4v4.3H27.1z"/>
	<path class="st0" d="M50.7,0.2v29.6h-4.8V0.2H50.7z"/>
	<path class="st0" d="M72,29.9v-1.4c0,0-1.7,1.7-4.6,1.7c-5.2,0-9.4-4.2-9.4-9.4c0-5.2,4.1-9.4,9.4-9.4c3,0,4.6,1.7,4.6,1.7v-1.4
		h4.8v18.3H72z M72,20.7c0-2.6-2.1-4.6-4.6-4.6c-2.6,0-4.6,2-4.6,4.6c0,2.6,2.1,4.6,4.6,4.6C70,25.3,72,23.3,72,20.7z"/>
	<path class="st0" d="M85.2,29.9V0.2H90v12.7c0,0,1.7-1.7,4.7-1.7c5.2,0,9.3,4.2,9.3,9.4c0,5.2-4.1,9.4-9.3,9.4
		c-3,0-4.7-1.7-4.7-1.7v1.4H85.2z M94.6,25.3c2.6,0,4.6-2,4.6-4.6c0-2.6-2-4.6-4.6-4.6c-2.6,0-4.6,2-4.6,4.6
		C90,23.3,92.1,25.3,94.6,25.3z"/>
</g>
</svg>
