<?xml version="1.0" encoding="utf-8"?>
<!-- Generator: Adobe Illustrator 23.0.4, SVG Export Plug-In . SVG Version: 6.00 Build 0)  -->
<svg version="1.1" id="Ebene_1" xmlns="http://www.w3.org/2000/svg" xmlns:xlink="http://www.w3.org/1999/xlink" x="0px" y="0px"
	 viewBox="0 0 104 19" enable-background="new 0 0 104 19" xml:space="preserve">
<g>
	<path fill="#231F20" d="M10.89,9.67l0.29,0.02c1.14,0.07,1.52,0.27,1.65,0.38c0.09,0.08,0.31,0.4,0.31,1.62v4.08
		c0,0.2-0.04,0.34-0.13,0.42c-0.05,0.05-0.26,0.2-1.02,0.45c-0.36,0.12-0.74,0.21-1.13,0.26c-0.4,0.06-0.75,0.08-1.05,0.08
		c-1.73,0-3.2-0.64-4.38-1.89c-1.18-1.26-1.78-3.05-1.78-5.32c0-2.76,0.6-4.77,1.78-5.95C6.61,2.64,8,2.04,9.55,2.04
		c1.54,0,2.76,0.49,3.72,1.5c0.53,0.58,1.06,1.49,1.57,2.69l0.08,0.19h1.11L15.8,0.41h-1.07L14.66,0.6c-0.09,0.22-0.2,0.39-0.32,0.5
		c-0.05,0.05-0.2,0.13-0.57,0.13c-0.05,0-0.29-0.04-1.57-0.4c-0.98-0.28-2-0.43-3.01-0.43c-2.83,0-5.13,0.98-6.84,2.92
		C0.79,5.08,0,7.22,0,9.67c0,2.79,0.99,5.06,2.95,6.72c1.77,1.5,3.97,2.26,6.53,2.26c1.39,0,2.85-0.26,4.35-0.77
		c2.01-0.68,2.42-1.09,2.42-1.49v-5.04c0-0.72,0.14-1.21,0.41-1.41c0.09-0.07,0.35-0.2,1.09-0.25l0.29-0.02V8.6h-7.15V9.67z"/>
	<path fill="#231F20" d="M36.31,1.77l0.28,0.03c0.84,0.08,1.43,0.28,1.71,0.57c0.16,0.17,0.42,0.7,0.42,2.41v6.67
		c0,1.58-0.19,2.75-0.57,3.49c-0.67,1.3-1.96,1.94-3.94,1.94c-1.8,0-2.98-0.62-3.62-1.88c-0.34-0.7-0.52-1.72-0.52-3.01V3.8
		c0-1.11,0.21-1.47,0.34-1.58c0.13-0.12,0.54-0.33,1.73-0.42l0.29-0.02V0.71h-7.89v1.07l0.29,0.02c1.17,0.09,1.57,0.31,1.7,0.43
		c0.12,0.11,0.33,0.47,0.33,1.57v8.01c0,1.63,0.29,2.97,0.85,3.98c1.06,1.9,3.05,2.86,5.93,2.86c2.91,0,4.92-0.98,5.98-2.9
		c0.56-1.03,0.85-2.48,0.85-4.29V4.79c0-1.66,0.24-2.2,0.39-2.38c0.17-0.21,0.61-0.49,1.74-0.61l0.28-0.03V0.71h-6.55V1.77z"/>
	<path fill="#231F20" d="M63.69,13.52c-0.62,1.38-1.32,2.26-2.08,2.61c-0.78,0.36-2.03,0.54-3.72,0.54c-1.96,0-2.6-0.07-2.81-0.13
		c-0.06-0.02-0.26-0.07-0.26-0.6V9.9h3.65c1.3,0,1.72,0.24,1.85,0.38c0.18,0.19,0.44,0.66,0.66,1.82l0.05,0.25h1.16V5.82h-1.17
		l-0.05,0.25c-0.21,1.15-0.47,1.62-0.65,1.81c-0.13,0.14-0.55,0.39-1.86,0.39h-3.65V2.86c0-0.39,0.06-0.49,0.06-0.49
		c0,0,0.09-0.07,0.46-0.07h3.49c1.78,0,2.46,0.24,2.72,0.43c0.25,0.19,0.61,0.7,0.86,2.01L62.46,5h1.22l-0.1-4.29H49.35v1.07
		l0.29,0.02c1.14,0.08,1.52,0.3,1.64,0.43C51.4,2.35,51.6,2.72,51.6,3.8v11.4c0,1.17-0.22,1.48-0.31,1.56
		c-0.13,0.11-0.52,0.31-1.67,0.43l-0.28,0.03v1.06h14.4l1.33-4.95h-1.32L63.69,13.52z"/>
	<path fill="#231F20" d="M80.56,8.34l-2.25-1.39c-0.81-0.5-1.41-0.98-1.79-1.43c-0.35-0.41-0.52-0.9-0.52-1.49
		c0-0.64,0.22-1.12,0.67-1.48C77.13,2.18,77.66,2,78.3,2c0.83,0,1.69,0.31,2.56,0.92c0.86,0.6,1.49,1.7,1.89,3.27l0.06,0.23H84
		l-0.63-6.08h-1.05l-0.06,0.24c-0.06,0.23-0.13,0.4-0.22,0.52c-0.06,0.07-0.21,0.11-0.41,0.11c-0.04,0-0.26-0.04-1.32-0.41
		c-0.85-0.3-1.6-0.45-2.21-0.45c-1.5,0-2.72,0.46-3.64,1.38C73.56,2.64,73.1,3.8,73.1,5.17c0,1.05,0.39,2.02,1.17,2.89
		c0.41,0.44,0.96,0.89,1.64,1.32l2.19,1.36c1.23,0.77,2.05,1.35,2.42,1.72c0.55,0.56,0.81,1.21,0.81,1.96
		c0,0.84-0.26,1.47-0.79,1.93c-0.54,0.47-1.17,0.7-1.92,0.7c-1.43,0-2.59-0.55-3.55-1.68c-0.56-0.65-1.05-1.55-1.47-2.66l-0.08-0.2
		h-1.16l0.85,6.08h1.1l0.04-0.26c0.03-0.17,0.08-0.33,0.17-0.48c0.04-0.08,0.16-0.12,0.33-0.12c0.04,0,0.27,0.05,1.39,0.43
		c0.89,0.31,1.76,0.47,2.59,0.47c1.65,0,3.02-0.48,4.09-1.43c1.08-0.96,1.63-2.17,1.63-3.6c0-1.07-0.31-2.01-0.92-2.8
		C83.02,10.05,81.99,9.23,80.56,8.34z"/>
	<path fill="#231F20" d="M103.08,10.8c-0.6-0.75-1.63-1.58-3.06-2.46l-2.25-1.39c-0.81-0.5-1.41-0.98-1.79-1.43
		c-0.35-0.41-0.53-0.9-0.53-1.49c0-0.64,0.22-1.12,0.67-1.48C96.58,2.18,97.12,2,97.76,2c0.83,0,1.69,0.31,2.56,0.92
		c0.86,0.6,1.49,1.7,1.89,3.27l0.06,0.23h1.2l-0.63-6.08h-1.05l-0.06,0.24c-0.06,0.23-0.13,0.4-0.22,0.52
		c-0.06,0.07-0.21,0.11-0.41,0.11c-0.04,0-0.26-0.04-1.32-0.41c-0.85-0.3-1.6-0.45-2.21-0.45c-1.5,0-2.72,0.46-3.64,1.38
		c-0.92,0.92-1.38,2.08-1.38,3.45c0,1.05,0.39,2.02,1.17,2.89c0.41,0.44,0.96,0.89,1.64,1.32l2.19,1.36
		c1.23,0.77,2.05,1.35,2.42,1.72c0.55,0.56,0.81,1.21,0.81,1.96c0,0.84-0.26,1.47-0.79,1.93c-0.54,0.47-1.17,0.7-1.92,0.7
		c-1.43,0-2.59-0.55-3.55-1.68c-0.56-0.65-1.05-1.55-1.47-2.66l-0.07-0.2h-1.16l0.85,6.08h1.1l0.04-0.26
		c0.03-0.17,0.08-0.33,0.17-0.48c0.05-0.08,0.16-0.12,0.33-0.12c0.04,0,0.27,0.05,1.39,0.43c0.89,0.31,1.76,0.47,2.59,0.47
		c1.65,0,3.02-0.48,4.09-1.43c1.08-0.96,1.63-2.17,1.63-3.6C104,12.53,103.69,11.59,103.08,10.8z"/>
</g>
</svg>
