<?xml version="1.0" encoding="utf-8"?>
<!-- Generator: Adobe Illustrator 23.0.4, SVG Export Plug-In . SVG Version: 6.00 Build 0)  -->
<svg version="1.1" id="Ebene_1" xmlns="http://www.w3.org/2000/svg" xmlns:xlink="http://www.w3.org/1999/xlink" x="0px" y="0px"
	 viewBox="0 0 104 15" enable-background="new 0 0 104 15" xml:space="preserve">
<g>
	<path fill="#05171D" d="M0,6.03l3.29-0.9h0.48v6.76c0,1.41,0.3,1.75,1.59,1.75v0.53H0v-0.53c1.22,0.04,1.7-0.36,1.7-1.51V7.35
		C1.7,6.9,1.65,6.71,0,6.5V6.03L0,6.03z M2.61,0.49c0.78,0,1.33,0.45,1.33,1.11c0,0.68-0.57,1.15-1.39,1.15
		c-0.78,0-1.33-0.45-1.33-1.13C1.22,0.94,1.76,0.49,2.61,0.49L2.61,0.49z"/>
	<path fill="#05171D" d="M20.17,1.42c0.48-0.06,0.83-0.08,1.28-0.08c2.5,0,3.44,1.15,3.44,2.75c0,1.58-1.07,2.32-3.13,2.32h-1.59
		V1.42L20.17,1.42z M17.75,12.13c0,1.17-0.48,1.47-2.39,1.47v0.58h7.38c3.74,0,5.48-1.81,5.48-3.97c0-1.73-1.22-3-3.37-3.58V6.58
		c1.61-0.32,2.59-1.34,2.59-2.73c0-2.41-2.48-2.95-6.2-2.95h-2.91c0,0-1.9,0.01-2.97,0.01v0.57h0.74c1.5,0,1.65,0.73,1.65,2.15
		V12.13L17.75,12.13z M20.17,7.01h1.2c2.74,0,4.22,1.11,4.22,3.24c0,1.9-1.26,3.28-3.16,3.28c-1.81,0-2.26-0.83-2.26-2.47V7.01
		L20.17,7.01z"/>
	<path fill="#05171D" d="M35.25,14.17V13.6c1.74,0,2.11-0.15,2.11-1.83V3.32c0-1.45-0.15-1.88-2.11-1.84V0.91h7.14v0.57
		c-2.35,0-2.61,0.08-2.61,1.68v9c0,0.87,0.17,1.24,1.18,1.24h2.24c1.85,0,1.98-0.28,3.61-2.45h0.65l-1.68,3.22H35.25L35.25,14.17z"
		/>
	<path fill="#05171D" d="M53.22,0.91h6.18v0.57c-1.61,0-1.91,0.34-1.91,1.84v5.73c0,2.83,1.94,4.33,4.66,4.33
		c2.42,0,4.68-1.21,4.68-4.37V3.32c0-1.66-0.33-1.84-2.09-1.84V0.91h5.27v0.57c-1.65,0-1.98,0.34-1.98,1.84v5.92
		c0,3.35-2.63,5.27-6.59,5.27c-4.14,0-6.36-1.94-6.36-5.41V3.11c0-1.3-0.35-1.62-1.85-1.62V0.91L53.22,0.91z"/>
	<path fill="#05171D" d="M75.92,14.17V13.6c1.76,0,2.2-0.28,2.2-1.47V2.94c0-1.41-0.72-1.45-2.2-1.45V0.91h11.12l0.2,3.2h-0.59
		l-0.11-0.45c-0.43-1.75-0.78-1.98-2.18-1.98h-3.83V6.9h3.37c1.26,0,1.5-0.21,1.63-1.68h0.59V9.5h-0.59
		c-0.15-1.51-0.44-1.83-1.63-1.83h-3.37v4.01c0,1.32,0.17,1.73,1.28,1.73h2.42c2.2,0,2.63-0.49,3.22-2.58h0.59l-0.33,3.35H75.92
		L75.92,14.17z"/>
	<path fill="#05171D" d="M94.75,10.68h0.65c0.54,1.96,1.89,3.26,3.76,3.26c1.59,0,2.7-1.11,2.7-2.39c0-2.98-6.86-4.16-6.86-7.86
		c0-1.84,1.65-3.11,3.98-3.11c0.72,0,1.24,0.09,1.68,0.17c0.43,0.08,0.78,0.17,1.15,0.17c0.28,0,0.44-0.06,0.61-0.26h0.54l0.48,3.3
		h-0.65c-0.65-1.68-2-2.9-3.55-2.9c-1.39,0-2.13,1-2.13,1.94c0,2.86,6.88,3.71,6.88,7.82c0,2.19-1.89,3.69-4.68,3.69
		c-1.63,0-2.31-0.39-2.92-0.39c-0.26,0-0.44,0.06-0.59,0.23h-0.52L94.75,10.68L94.75,10.68z"/>
</g>
</svg>
