<?xml version="1.0" encoding="utf-8"?>
<!-- Generator: Adobe Illustrator 28.2.0, SVG Export Plug-In . SVG Version: 6.00 Build 0)  -->
<svg version="1.1" id="Lager_1" xmlns="http://www.w3.org/2000/svg" xmlns:xlink="http://www.w3.org/1999/xlink" x="0px" y="0px"
	 viewBox="0 0 810 160" style="enable-background:new 0 0 810 160;" xml:space="preserve">
<style type="text/css">
	.st0{fill:#010202;}
</style>
<path id="M_00000052093183136285060040000015609606123648828290_" class="st0" d="M163.5,5v3v1c-2,0-4,1-4,6v129c0,6,4,7,6,7v4h-33
	v-4c2,0,5-1,5-6V22l-55,133h-7l-55-131v120c0,6,3,7,6,7v1v3h-21v-3v-1c2,0,5-2,5-6V14c0-5-3-5-5-5l0,0V5h31l48,117l50-117h27H163.5z
	"/>
<path id="I_00000070828456088515817400000007767682472064168103_" class="st0" d="M497.5,5v3v1c-2,0-6,1-6,6c0,4,0,5.6,0,10v111
	c0,4.4,0,6,0,9c0,5,4,6,6,6v1v3h-33v-3v-1c2,0,6-1,6-6c0-4,0-4.6,0-9V25c0-4.4,0-7.1,0-10c0-5-4-6-6-6V8V5H497.5z"/>
<path id="N_00000134225337090332498340000002454875804488727223_" class="st0" d="M653.5,5v3v1c-2,0-5,1-5,6c0,3,0,3.6,0,8v132h-16
	l-92-129v119c0,5,3,6,5,6v1v3h-20v-3v-1c2,0,5-1,5-6V25c0-4.4,0-7,0-10c0-5-3-6-5-6V8V5h4.8h22.2l86,121V23c0-4.4,0-5.1,0-8
	c0-5-3-6-5-6V8V5h4.4H653.5L653.5,5z"/>
<path id="L_00000084517255437382903250000015425741344089683077_" class="st0" d="M375.5,5v3v1c-2,0-6,1-6,6c0,3,0,14.6,0,19v111h35
	c6.1,0,24,1,29-5c1.8-2.2,3-5,3-5h4v20h-99v-3v-1c2,0,6-1,6-7c0-4,0-9.6,0-14V34c0-4.4,0-16,0-19c0-5-4-6-6-6V8V5H375.5z"/>
<path id="A_00000138533053189062494990000001077218401263447988_" class="st0" d="M286.5,152v3h35v-3v-1c-1.2,0-3.4-0.2-5-2
	c-2-2-3-4-4.8-8.4L258.5,5h-11c0,0-52,132-56,142c-1.5,3.3-4,4-6,4v1v3h23v-3v-1c-2,0-4-1.4-3.9-4c0.2-5.8,2.1-11.2,5.3-16.5
	c2.5-4,5.6-7.4,9.3-10.2c7-5.3,16.4-6.5,24.9-7.5c9.8-1.2,21.1-1.1,30.1-5.6l12.3,28.8c0,0,3.8,9.1,3.9,11.1c0.2,2.7-2.5,4-3.9,4
	L286.5,152L286.5,152z M261.9,100.5c-6.6,1.4-13.5,1.5-20.1,2.5c-3.5,0.5-7.4,1.1-10.6,1.7c-5.3,1-10,2.7-14.2,5.1L246.5,34
	c1.8,4.6,3.6,9.1,5.3,13.7c3.6,9.1,7.1,18.2,10.7,27.4c2.9,7.4,5.8,14.9,8.7,22.3C268.1,98.9,265,99.9,261.9,100.5z"/>
<path id="A" class="st0" d="M769.5,152v3h35v-3v-1c-1.2,0-3.4-0.2-5-2c-2-2-3-4-4.8-8.4L741.5,5h-11c0,0-52,132-56,142
	c-1.5,3.3-4,4-6,4v1v3h23v-3v-1c-2,0-4-1.4-3.9-4c0.2-5.8,2.1-11.2,5.3-16.5c2.5-4,5.6-7.4,9.3-10.2c7-5.3,16.4-6.5,24.9-7.5
	c9.8-1.2,21.1-1.1,30.1-5.6l12.3,28.8c0,0,3.8,9.1,3.9,11.1c0.2,2.7-2.5,4-3.9,4L769.5,152L769.5,152z M744.9,100.5
	c-6.6,1.4-13.5,1.5-20.1,2.5c-3.5,0.5-7.4,1.1-10.6,1.7c-5.3,1-10,2.7-14.2,5.1L729.5,34c1.8,4.6,3.6,9.1,5.3,13.7
	c3.6,9.1,7.1,18.2,10.7,27.4c2.9,7.4,5.8,14.9,8.7,22.3C751.1,98.9,748,99.9,744.9,100.5z"/>
</svg>
