<?xml version="1.0" encoding="utf-8"?>
<!-- Generator: Adobe Illustrator 23.0.4, SVG Export Plug-In . SVG Version: 6.00 Build 0)  -->
<svg version="1.1" id="Ebene_1" xmlns="http://www.w3.org/2000/svg" xmlns:xlink="http://www.w3.org/1999/xlink" x="0px" y="0px"
	 viewBox="0 0 104 11" enable-background="new 0 0 104 11" xml:space="preserve">
<g>
	<path fill="#1D1D1B" d="M52.12,3.57c0,0-0.2,0.14-0.34,0.23c-0.31-0.36-0.58-0.68-0.58-0.98c0-0.44,0.27-0.71,0.73-0.71
		c0.44,0,0.73,0.28,0.73,0.71C52.65,3.08,52.48,3.32,52.12,3.57 M53.08,8.3c-0.43,0.35-0.82,0.5-1.34,0.5
		c-0.8,0-1.41-0.55-1.41-1.29c0-0.62,0.31-0.97,0.89-1.38L53.08,8.3z M55.71,8.35c0.63-0.74,0.96-1.71,1.03-3.07l0.01-0.1h-1.92
		l0,0.1c-0.03,0.66-0.16,1.19-0.41,1.58l-1.52-1.79c0.26-0.18,0.61-0.44,0.62-0.45c0.74-0.53,1.06-1.09,1.06-1.81
		c0-1.46-1.06-2.43-2.65-2.43c-1.68,0-2.76,0.95-2.76,2.41c0,0.95,0.58,1.66,0.94,2.08c-0.78,0.52-1.74,1.36-1.74,2.68
		c0,2,1.2,3.1,3.39,3.1c1.39,0,2.09-0.54,2.56-0.91l0.65,0.76h2.59L55.71,8.35z"/>
	<g>
		<polygon fill="#1D1D1B" points="8.77,0.6 6.89,7.86 5.32,0.6 2.2,0.6 0,10.4 2.18,10.4 3.71,3.3 5.5,10.4 8.35,10.4 10.22,3.3 
			11.44,10.4 13.85,10.4 11.89,0.6 		"/>
		<path fill="#1D1D1B" d="M19.99,8.81c-1.36,0-2.82-0.87-2.82-3.31c0-2.44,1.46-3.31,2.82-3.31c1.37,0,2.84,0.87,2.84,3.31
			C22.83,7.94,21.36,8.81,19.99,8.81 M20.01,0.31c-3.14,0-5.34,2.13-5.34,5.19c0,3.05,2.2,5.19,5.34,5.19
			c3.14,0,5.33-2.13,5.33-5.19C25.33,2.45,23.14,0.31,20.01,0.31"/>
		<path fill="#1D1D1B" d="M30.58,4.88h-1.28l0.06-2.57h1.16c1.12,0,1.66,0.42,1.66,1.28C32.17,4.42,31.61,4.88,30.58,4.88
			 M32.8,5.96c1.14-0.36,1.74-1.28,1.74-2.66c0-1.8-1.25-2.71-3.7-2.71h-3.86l-0.09,9.79h2.45l0.06-3.81h1.17l1.96,3.81h2.72
			L32.68,6L32.8,5.96z"/>
		<polygon fill="#1D1D1B" points="39.34,2.48 43.59,2.48 43.59,0.6 36.9,0.6 36.82,10.4 43.59,10.4 43.59,8.52 39.26,8.52 
			39.29,6.4 43.59,6.4 43.59,4.6 39.3,4.6 		"/>
	</g>
	<g>
		<polygon fill="#1D1D1B" points="69.18,0.6 67.3,7.86 65.73,0.6 62.61,0.6 60.41,10.4 62.59,10.4 64.12,3.3 65.91,10.4 68.76,10.4 
			70.63,3.3 71.85,10.4 74.26,10.4 72.3,0.6 		"/>
		<path fill="#1D1D1B" d="M80.41,8.81c-1.36,0-2.82-0.87-2.82-3.31c0-2.44,1.46-3.31,2.82-3.31c1.37,0,2.84,0.87,2.84,3.31
			C83.24,7.94,81.78,8.81,80.41,8.81 M80.42,0.31c-3.14,0-5.34,2.13-5.34,5.19c0,3.05,2.2,5.19,5.34,5.19
			c3.14,0,5.32-2.13,5.32-5.19C85.74,2.45,83.55,0.31,80.42,0.31"/>
		<path fill="#1D1D1B" d="M90.99,4.88H89.7l0.06-2.57h1.16c1.12,0,1.66,0.42,1.66,1.28C92.59,4.42,92.02,4.88,90.99,4.88
			 M93.21,5.96c1.14-0.36,1.74-1.28,1.74-2.66c0-1.8-1.25-2.71-3.7-2.71h-3.86l-0.09,9.79h2.45l0.06-3.81h1.17l1.96,3.81h2.72
			L93.09,6L93.21,5.96z"/>
		<polygon fill="#1D1D1B" points="99.75,2.48 104,2.48 104,0.6 97.31,0.6 97.23,10.4 104,10.4 104,8.52 99.67,8.52 99.7,6.4 
			104,6.4 104,4.6 99.71,4.6 		"/>
	</g>
</g>
</svg>
