<?xml version="1.0" encoding="utf-8"?>
<!-- Generator: Adobe Illustrator 28.0.0, SVG Export Plug-In . SVG Version: 6.00 Build 0)  -->
<svg version="1.1" id="Ebene_1" xmlns="http://www.w3.org/2000/svg" xmlns:xlink="http://www.w3.org/1999/xlink" x="0px" y="0px"
	 viewBox="0 0 553.8 125.5" style="enable-background:new 0 0 553.8 125.5;" xml:space="preserve">
<style type="text/css">
	.st0{clip-path:url(#SVGID_00000132064013743371189950000011439032282442423472_);}
	.st1{clip-path:url(#SVGID_00000119814188062606710930000004501852710965864112_);}
	.st2{clip-path:url(#SVGID_00000157278271726715322910000017701592595524966542_);}
	.st3{clip-path:url(#SVGID_00000170245763880366143170000005350810879662457245_);}
	.st4{clip-path:url(#SVGID_00000040543654084975982580000013156708023802459549_);}
	.st5{clip-path:url(#SVGID_00000011753709100535658570000017346203230748304786_);}
	.st6{clip-path:url(#SVGID_00000031186687164389312310000017069047852504899001_);}
	.st7{clip-path:url(#SVGID_00000121280828189048209700000012531003665756637623_);}
	.st8{clip-path:url(#SVGID_00000048501977440928964110000010650527064451734709_);}
	.st9{clip-path:url(#SVGID_00000042703747686544376960000007020124144747614889_);}
	.st10{clip-path:url(#SVGID_00000159463460379158009580000011038577383637822854_);}
	.st11{clip-path:url(#SVGID_00000165921146523090752030000011243155317288051625_);}
	.st12{clip-path:url(#SVGID_00000000221142699914267870000005464406213592848026_);}
</style>
<path id="e" d="M64.9,75.3c-1-3-1.6-6.7-1.6-11.1c0-5.4,0.6-9.9,1.6-13.3C66.9,44.3,70.6,41,76,41s9.1,3.1,11.1,9.3
	c1,3.3,1.6,7,1.6,11.5c0,7.3-1.2,12.9-3.6,16.6c-2.4,3.7-5.4,5.5-9.1,5.5C70.6,83.9,67,81.1,64.9,75.3 M68.5,35.7
	c-1.8,1.3-3.6,3.4-5.1,6v-7.5h-7.6v78.6h7.8V84.1c1.6,2.5,3.3,4.3,4.6,5.4c2.4,1.8,5.2,2.8,8.8,2.8c4.5,0,8.4-1.6,11.7-4.9
	c5.2-5.2,7.9-14.1,7.9-26.4c0-9.1-1.8-16-5.5-21c-3.7-4.9-8.1-7.3-13.3-7.3C74.4,32.6,71.2,33.6,68.5,35.7"/>
<path d="M64.9,75.3c-1-3-1.6-6.7-1.6-11.1c0-5.4,0.6-9.9,1.6-13.3C66.9,44.3,70.6,41,76,41s9.1,3.1,11.1,9.3c1,3.3,1.6,7,1.6,11.5
	c0,7.3-1.2,12.9-3.6,16.6c-2.4,3.7-5.4,5.5-9.1,5.5C70.6,83.9,67,81.1,64.9,75.3 M68.5,35.7c-1.8,1.3-3.6,3.4-5.1,6v-7.5h-7.6v78.6
	h7.8V84.1c1.6,2.5,3.3,4.3,4.6,5.4c2.4,1.8,5.2,2.8,8.8,2.8c4.5,0,8.4-1.6,11.7-4.9c5.2-5.2,7.9-14.1,7.9-26.4c0-9.1-1.8-16-5.5-21
	c-3.7-4.9-8.1-7.3-13.3-7.3C74.4,32.6,71.2,33.6,68.5,35.7"/>
<g>
	<defs>
		<path id="SVGID_1_" d="M64.9,75.3c-1-3-1.6-6.7-1.6-11.1c0-5.4,0.6-9.9,1.6-13.3C66.9,44.3,70.6,41,76,41s9.1,3.1,11.1,9.3
			c1,3.3,1.6,7,1.6,11.5c0,7.3-1.2,12.9-3.6,16.6c-2.4,3.7-5.4,5.5-9.1,5.5C70.6,83.9,67,81.1,64.9,75.3 M68.5,35.7
			c-1.8,1.3-3.6,3.4-5.1,6v-7.5h-7.6v78.6h7.8V84.1c1.6,2.5,3.3,4.3,4.6,5.4c2.4,1.8,5.2,2.8,8.8,2.8c4.5,0,8.4-1.6,11.7-4.9
			c5.2-5.2,7.9-14.1,7.9-26.4c0-9.1-1.8-16-5.5-21c-3.7-4.9-8.1-7.3-13.3-7.3C74.4,32.6,71.2,33.6,68.5,35.7"/>
	</defs>
	<clipPath id="SVGID_00000165234977836831711440000016610913846509367194_">
		<use xlink:href="#SVGID_1_"  style="overflow:visible;"/>
	</clipPath>
	<g style="clip-path:url(#SVGID_00000165234977836831711440000016610913846509367194_);">
		<path d="M55.8,32.6h40.9v80.3H55.8V32.6z"/>
	</g>
</g>
<path id="g" d="M134.6,33.9v27.7c0,5.5-0.6,9.9-1.5,13c-1.9,5.8-5.5,8.8-10.8,8.8c-3.7,0-6.1-1.6-7.5-5.1c-0.8-1.8-1-4.2-1-7V33.9
	h-7.9v38.4c0,4.8,0.6,8.7,1.9,11.5c2.4,5.4,6.7,8.1,13.2,8.1c4.2,0,7.6-1.5,10.6-4.5c1.5-1.5,2.7-3.3,3.7-5.4l-0.2,8.4h7.3V33.9
	C142.5,33.9,134.6,33.9,134.6,33.9z"/>
<path d="M134.6,33.9v27.7c0,5.5-0.6,9.9-1.5,13c-1.9,5.8-5.5,8.8-10.8,8.8c-3.7,0-6.1-1.6-7.5-5.1c-0.8-1.8-1-4.2-1-7V33.9h-7.9
	v38.4c0,4.8,0.6,8.7,1.9,11.5c2.4,5.4,6.7,8.1,13.2,8.1c4.2,0,7.6-1.5,10.6-4.5c1.5-1.5,2.7-3.3,3.7-5.4l-0.2,8.4h7.3V33.9
	C142.5,33.9,134.6,33.9,134.6,33.9z"/>
<g>
	<defs>
		<path id="SVGID_00000159444760415387682980000012226523772637018765_" d="M134.6,33.9v27.7c0,5.5-0.6,9.9-1.5,13
			c-1.9,5.8-5.5,8.8-10.8,8.8c-3.7,0-6.1-1.6-7.5-5.1c-0.8-1.8-1-4.2-1-7V33.9h-7.9v38.4c0,4.8,0.6,8.7,1.9,11.5
			c2.4,5.4,6.7,8.1,13.2,8.1c4.2,0,7.6-1.5,10.6-4.5c1.5-1.5,2.7-3.3,3.7-5.4l-0.2,8.4h7.3V33.9C142.5,33.9,134.6,33.9,134.6,33.9z"
			/>
	</defs>
	<clipPath id="SVGID_00000031164945972506530770000014299338826499583379_">
		<use xlink:href="#SVGID_00000159444760415387682980000012226523772637018765_"  style="overflow:visible;"/>
	</clipPath>
	<g style="clip-path:url(#SVGID_00000031164945972506530770000014299338826499583379_);">
		<path d="M105.5,33.9h36.7v58h-36.7V33.9z"/>
	</g>
</g>
<path id="i" d="M169.5,34.8c-2.4,1.5-4.8,3.7-6.9,7v-7.9h-7.3v56.5h7.8V60.9c0-3.7,0.2-6.6,0.6-8.5c0.4-1.9,1.2-3.9,2.5-5.8
	c1.6-2.4,3.4-3.9,5.7-4.6c1.2-0.4,2.7-0.8,4.5-0.8c3.6,0,6.1,1.8,7.5,5.2c0.9,2.1,1.2,4.9,1.2,8.4v35.7h7.9V54.2
	c0-5.7-0.6-10-1.9-13.2c-2.2-5.5-6.7-8.4-13.3-8.4C174.6,32.7,171.9,33.5,169.5,34.8"/>
<path d="M169.5,34.8c-2.4,1.5-4.8,3.7-6.9,7v-7.9h-7.3v56.5h7.8V60.9c0-3.7,0.2-6.6,0.6-8.5c0.4-1.9,1.2-3.9,2.5-5.8
	c1.6-2.4,3.4-3.9,5.7-4.6c1.2-0.4,2.7-0.8,4.5-0.8c3.6,0,6.1,1.8,7.5,5.2c0.9,2.1,1.2,4.9,1.2,8.4v35.7h7.9V54.2
	c0-5.7-0.6-10-1.9-13.2c-2.2-5.5-6.7-8.4-13.3-8.4C174.6,32.7,171.9,33.5,169.5,34.8"/>
<g>
	<defs>
		<path id="SVGID_00000127756870880653221780000009336888422597412508_" d="M169.5,34.8c-2.4,1.5-4.8,3.7-6.9,7v-7.9h-7.3v56.5h7.8
			V60.9c0-3.7,0.2-6.6,0.6-8.5c0.4-1.9,1.2-3.9,2.5-5.8c1.6-2.4,3.4-3.9,5.7-4.6c1.2-0.4,2.7-0.8,4.5-0.8c3.6,0,6.1,1.8,7.5,5.2
			c0.9,2.1,1.2,4.9,1.2,8.4v35.7h7.9V54.2c0-5.7-0.6-10-1.9-13.2c-2.2-5.5-6.7-8.4-13.3-8.4C174.6,32.7,171.9,33.5,169.5,34.8"/>
	</defs>
	<clipPath id="SVGID_00000031908051171220740200000000349682836625021835_">
		<use xlink:href="#SVGID_00000127756870880653221780000009336888422597412508_"  style="overflow:visible;"/>
	</clipPath>
	<g style="clip-path:url(#SVGID_00000031908051171220740200000000349682836625021835_);">
		<path d="M155.1,32.7h37.8v57.7h-37.8C155.1,90.4,155.1,32.7,155.1,32.7z"/>
	</g>
</g>
<path id="k" d="M205.9,18.2v15.7h-6.3v7.8h6.3V79c0,3.6,0.6,6.6,1.9,8.8s3.7,3.4,7.3,3.4c1.2,0,2.2,0,3.1-0.2
	c0.9-0.2,1.9-0.3,2.8-0.8v-7.5c-0.6,0.2-1,0.2-1.5,0.2h-1.2c-1.3,0-2.4-0.2-3-0.6c-1-0.8-1.6-1.9-1.6-3.9V41.7h7.3v-7.8h-7.3V18.2
	H205.9z"/>
<path d="M205.9,18.2v15.7h-6.3v7.8h6.3V79c0,3.6,0.6,6.6,1.9,8.8s3.7,3.4,7.3,3.4c1.2,0,2.2,0,3.1-0.2c0.9-0.2,1.9-0.3,2.8-0.8v-7.5
	c-0.6,0.2-1,0.2-1.5,0.2h-1.2c-1.3,0-2.4-0.2-3-0.6c-1-0.8-1.6-1.9-1.6-3.9V41.7h7.3v-7.8h-7.3V18.2H205.9z"/>
<g>
	<defs>
		<path id="SVGID_00000020359124280809999840000018169185791546719402_" d="M205.9,18.2v15.7h-6.3v7.8h6.3V79c0,3.6,0.6,6.6,1.9,8.8
			s3.7,3.4,7.3,3.4c1.2,0,2.2,0,3.1-0.2c0.9-0.2,1.9-0.3,2.8-0.8v-7.5c-0.6,0.2-1,0.2-1.5,0.2h-1.2c-1.3,0-2.4-0.2-3-0.6
			c-1-0.8-1.6-1.9-1.6-3.9V41.7h7.3v-7.8h-7.3V18.2H205.9z"/>
	</defs>
	<clipPath id="SVGID_00000095301684697112484740000006364102796029553046_">
		<use xlink:href="#SVGID_00000020359124280809999840000018169185791546719402_"  style="overflow:visible;"/>
	</clipPath>
	<g style="clip-path:url(#SVGID_00000095301684697112484740000006364102796029553046_);">
		<path d="M199.6,18.2h21.6v73.1h-21.6V18.2z"/>
	</g>
</g>
<path id="m" d="M237.1,78.3c-2.1-4-3.1-9-3.1-15c0-6.3,1-11.5,3.1-16c2.1-4.5,5.5-6.6,10.3-6.6c5.2,0,9,2.5,11.2,7.8
	c1.3,3.3,2.1,7.6,2.1,12.9c0,5.8-0.9,11.1-2.8,15.9c-1.9,4.8-5.4,7.2-10.5,7.2C242.6,84.3,239.2,82.3,237.1,78.3 M231.7,40.8
	c-3.9,5.5-5.8,13.2-5.8,22.6c0,8.8,1.8,15.9,5.5,21.1c3.7,5.2,8.7,7.9,15.1,7.9c7.6,0,13.2-3,16.8-8.8c3.6-6,5.4-13.5,5.4-22.5
	c0-9.4-2.1-16.5-6.1-21.4c-4-4.8-9.1-7.2-15-7.2C241,32.3,235.6,35.1,231.7,40.8"/>
<path d="M237.1,78.3c-2.1-4-3.1-9-3.1-15c0-6.3,1-11.5,3.1-16c2.1-4.5,5.5-6.6,10.3-6.6c5.2,0,9,2.5,11.2,7.8
	c1.3,3.3,2.1,7.6,2.1,12.9c0,5.8-0.9,11.1-2.8,15.9c-1.9,4.8-5.4,7.2-10.5,7.2C242.6,84.3,239.2,82.3,237.1,78.3 M231.7,40.8
	c-3.9,5.5-5.8,13.2-5.8,22.6c0,8.8,1.8,15.9,5.5,21.1c3.7,5.2,8.7,7.9,15.1,7.9c7.6,0,13.2-3,16.8-8.8c3.6-6,5.4-13.5,5.4-22.5
	c0-9.4-2.1-16.5-6.1-21.4c-4-4.8-9.1-7.2-15-7.2C241,32.3,235.6,35.1,231.7,40.8"/>
<g>
	<defs>
		<path id="SVGID_00000173874205702066613800000010270389557991248276_" d="M237.1,78.3c-2.1-4-3.1-9-3.1-15c0-6.3,1-11.5,3.1-16
			c2.1-4.5,5.5-6.6,10.3-6.6c5.2,0,9,2.5,11.2,7.8c1.3,3.3,2.1,7.6,2.1,12.9c0,5.8-0.9,11.1-2.8,15.9c-1.9,4.8-5.4,7.2-10.5,7.2
			C242.6,84.3,239.2,82.3,237.1,78.3 M231.7,40.8c-3.9,5.5-5.8,13.2-5.8,22.6c0,8.8,1.8,15.9,5.5,21.1c3.7,5.2,8.7,7.9,15.1,7.9
			c7.6,0,13.2-3,16.8-8.8c3.6-6,5.4-13.5,5.4-22.5c0-9.4-2.1-16.5-6.1-21.4c-4-4.8-9.1-7.2-15-7.2C241,32.3,235.6,35.1,231.7,40.8"
			/>
	</defs>
	<clipPath id="SVGID_00000000199747001136458340000004958045661121470849_">
		<use xlink:href="#SVGID_00000173874205702066613800000010270389557991248276_"  style="overflow:visible;"/>
	</clipPath>
	<g style="clip-path:url(#SVGID_00000000199747001136458340000004958045661121470849_);">
		<path d="M225.8,32.3h42.8v60.1h-42.8V32.3z"/>
	</g>
</g>
<path id="o" d="M286.3,78c-2.1-4-3.1-9.1-3.1-15.1c0-7,1.2-12.4,3.6-16.2c2.4-3.6,5.5-5.5,9.4-5.5c3.4,0,6.4,1.6,8.8,5.1
	c2.4,3.4,3.6,8.7,3.6,15.9s-1.2,12.4-3.4,16.2s-5.2,5.7-8.8,5.7C291.7,84.1,288.4,82.2,286.3,78 M308.4,12.6v28.5
	c-1.8-2.7-3.3-4.5-4.6-5.5c-2.4-1.8-5.2-2.7-8.8-2.7c-6.3,0-11.2,3-14.7,9c-3.4,6-5.1,13.2-5.1,21.4c0,8.8,1.9,15.9,5.7,21.1
	c3.7,5.2,8.2,7.9,13.3,7.9c3.1,0,6-0.8,8.4-2.2c2.4-1.5,4.6-4,6.4-7.5v7.8h7V12.6H308.4L308.4,12.6z"/>
<path d="M286.3,78c-2.1-4-3.1-9.1-3.1-15.1c0-7,1.2-12.4,3.6-16.2c2.4-3.6,5.5-5.5,9.4-5.5c3.4,0,6.4,1.6,8.8,5.1
	c2.4,3.4,3.6,8.7,3.6,15.9s-1.2,12.4-3.4,16.2s-5.2,5.7-8.8,5.7C291.7,84.1,288.4,82.2,286.3,78 M308.4,12.6v28.5
	c-1.8-2.7-3.3-4.5-4.6-5.5c-2.4-1.8-5.2-2.7-8.8-2.7c-6.3,0-11.2,3-14.7,9c-3.4,6-5.1,13.2-5.1,21.4c0,8.8,1.9,15.9,5.7,21.1
	c3.7,5.2,8.2,7.9,13.3,7.9c3.1,0,6-0.8,8.4-2.2c2.4-1.5,4.6-4,6.4-7.5v7.8h7V12.6H308.4L308.4,12.6z"/>
<g>
	<defs>
		<path id="SVGID_00000101066582593082686700000012077605487042581178_" d="M286.3,78c-2.1-4-3.1-9.1-3.1-15.1
			c0-7,1.2-12.4,3.6-16.2c2.4-3.6,5.5-5.5,9.4-5.5c3.4,0,6.4,1.6,8.8,5.1c2.4,3.4,3.6,8.7,3.6,15.9s-1.2,12.4-3.4,16.2
			s-5.2,5.7-8.8,5.7C291.7,84.1,288.4,82.2,286.3,78 M308.4,12.6v28.5c-1.8-2.7-3.3-4.5-4.6-5.5c-2.4-1.8-5.2-2.7-8.8-2.7
			c-6.3,0-11.2,3-14.7,9c-3.4,6-5.1,13.2-5.1,21.4c0,8.8,1.9,15.9,5.7,21.1c3.7,5.2,8.2,7.9,13.3,7.9c3.1,0,6-0.8,8.4-2.2
			c2.4-1.5,4.6-4,6.4-7.5v7.8h7V12.6H308.4L308.4,12.6z"/>
	</defs>
	<clipPath id="SVGID_00000119075579406625659780000006532979603667579835_">
		<use xlink:href="#SVGID_00000101066582593082686700000012077605487042581178_"  style="overflow:visible;"/>
	</clipPath>
	<g style="clip-path:url(#SVGID_00000119075579406625659780000006532979603667579835_);">
		<path d="M275,12.6h40.9v79.7H275V12.6z"/>
	</g>
</g>
<path id="q" d="M335.5,78.3c-2.1-4-3.1-9-3.1-15c0-6.3,1-11.5,3.1-16c2.1-4.5,5.5-6.6,10.3-6.6c5.2,0,9,2.5,11.2,7.8
	c1.3,3.3,2.1,7.6,2.1,12.9c0,5.8-0.9,11.1-2.8,15.9c-1.9,4.8-5.4,7.2-10.5,7.2C341,84.3,337.7,82.3,335.5,78.3 M330.2,40.8
	c-3.9,5.5-5.8,13.2-5.8,22.6c0,8.8,1.8,15.9,5.5,21.1c3.7,5.2,8.7,7.9,15.1,7.9c7.6,0,13.2-3,16.8-8.8c3.6-6,5.4-13.5,5.4-22.5
	c0-9.4-2.1-16.5-6.1-21.4c-4-4.8-9.1-7.2-15-7.2C339.4,32.3,334.1,35.1,330.2,40.8"/>
<path d="M335.5,78.3c-2.1-4-3.1-9-3.1-15c0-6.3,1-11.5,3.1-16c2.1-4.5,5.5-6.6,10.3-6.6c5.2,0,9,2.5,11.2,7.8
	c1.3,3.3,2.1,7.6,2.1,12.9c0,5.8-0.9,11.1-2.8,15.9c-1.9,4.8-5.4,7.2-10.5,7.2C341,84.3,337.7,82.3,335.5,78.3 M330.2,40.8
	c-3.9,5.5-5.8,13.2-5.8,22.6c0,8.8,1.8,15.9,5.5,21.1c3.7,5.2,8.7,7.9,15.1,7.9c7.6,0,13.2-3,16.8-8.8c3.6-6,5.4-13.5,5.4-22.5
	c0-9.4-2.1-16.5-6.1-21.4c-4-4.8-9.1-7.2-15-7.2C339.4,32.3,334.1,35.1,330.2,40.8"/>
<g>
	<defs>
		<path id="SVGID_00000086692648792286948470000017657752276884619671_" d="M335.5,78.3c-2.1-4-3.1-9-3.1-15c0-6.3,1-11.5,3.1-16
			c2.1-4.5,5.5-6.6,10.3-6.6c5.2,0,9,2.5,11.2,7.8c1.3,3.3,2.1,7.6,2.1,12.9c0,5.8-0.9,11.1-2.8,15.9c-1.9,4.8-5.4,7.2-10.5,7.2
			C341,84.3,337.7,82.3,335.5,78.3 M330.2,40.8c-3.9,5.5-5.8,13.2-5.8,22.6c0,8.8,1.8,15.9,5.5,21.1c3.7,5.2,8.7,7.9,15.1,7.9
			c7.6,0,13.2-3,16.8-8.8c3.6-6,5.4-13.5,5.4-22.5c0-9.4-2.1-16.5-6.1-21.4c-4-4.8-9.1-7.2-15-7.2C339.4,32.3,334.1,35.1,330.2,40.8
			"/>
	</defs>
	<clipPath id="SVGID_00000003062572468017389170000006381251582863064960_">
		<use xlink:href="#SVGID_00000086692648792286948470000017657752276884619671_"  style="overflow:visible;"/>
	</clipPath>
	<g style="clip-path:url(#SVGID_00000003062572468017389170000006381251582863064960_);">
		<path d="M324.2,32.3h42.8v60.1h-42.8V32.3z"/>
	</g>
</g>
<path id="s" d="M384.8,78c-2.1-4-3.1-9.1-3.1-15.1c0-7,1.2-12.4,3.6-16.2c2.4-3.6,5.5-5.5,9.4-5.5c3.4,0,6.4,1.6,8.8,5.1
	c2.4,3.4,3.6,8.7,3.6,15.9s-1.2,12.4-3.4,16.2s-5.2,5.7-8.8,5.7C390.3,84.1,386.9,82.2,384.8,78 M406.9,12.6v28.5
	c-1.8-2.7-3.3-4.5-4.6-5.5c-2.4-1.8-5.4-2.7-8.8-2.7c-6.4,0-11.2,3-14.7,9s-5.1,13.2-5.1,21.4c0,8.8,1.9,15.9,5.7,21.1
	c3.7,5.2,8.2,7.9,13.3,7.9c3.1,0,6-0.8,8.5-2.2c2.4-1.5,4.6-4,6.4-7.5v7.8h7V12.6H406.9z"/>
<path d="M384.8,78c-2.1-4-3.1-9.1-3.1-15.1c0-7,1.2-12.4,3.6-16.2c2.4-3.6,5.5-5.5,9.4-5.5c3.4,0,6.4,1.6,8.8,5.1
	c2.4,3.4,3.6,8.7,3.6,15.9s-1.2,12.4-3.4,16.2s-5.2,5.7-8.8,5.7C390.3,84.1,386.9,82.2,384.8,78 M406.9,12.6v28.5
	c-1.8-2.7-3.3-4.5-4.6-5.5c-2.4-1.8-5.4-2.7-8.8-2.7c-6.4,0-11.2,3-14.7,9s-5.1,13.2-5.1,21.4c0,8.8,1.9,15.9,5.7,21.1
	c3.7,5.2,8.2,7.9,13.3,7.9c3.1,0,6-0.8,8.5-2.2c2.4-1.5,4.6-4,6.4-7.5v7.8h7V12.6H406.9z"/>
<g>
	<defs>
		<path id="SVGID_00000098935123652401128500000015328255782741902507_" d="M384.8,78c-2.1-4-3.1-9.1-3.1-15.1
			c0-7,1.2-12.4,3.6-16.2c2.4-3.6,5.5-5.5,9.4-5.5c3.4,0,6.4,1.6,8.8,5.1c2.4,3.4,3.6,8.7,3.6,15.9s-1.2,12.4-3.4,16.2
			s-5.2,5.7-8.8,5.7C390.3,84.1,386.9,82.2,384.8,78 M406.9,12.6v28.5c-1.8-2.7-3.3-4.5-4.6-5.5c-2.4-1.8-5.4-2.7-8.8-2.7
			c-6.4,0-11.2,3-14.7,9s-5.1,13.2-5.1,21.4c0,8.8,1.9,15.9,5.7,21.1c3.7,5.2,8.2,7.9,13.3,7.9c3.1,0,6-0.8,8.5-2.2
			c2.4-1.5,4.6-4,6.4-7.5v7.8h7V12.6H406.9z"/>
	</defs>
	<clipPath id="SVGID_00000168797688460711449370000012111348540457393575_">
		<use xlink:href="#SVGID_00000098935123652401128500000015328255782741902507_"  style="overflow:visible;"/>
	</clipPath>
	<g style="clip-path:url(#SVGID_00000168797688460711449370000012111348540457393575_);">
		<path d="M373.5,12.6h40.9v79.7h-40.9V12.6z"/>
	</g>
</g>
<path id="u" d="M425.9,34.2h7.9v56.2h-7.9V34.2z"/>
<rect x="425.9" y="34.2" width="7.9" height="56.2"/>
<g>
	<defs>
		<rect id="SVGID_00000158009299184211858640000008069736730593221036_" x="425.9" y="34.2" width="7.9" height="56.2"/>
	</defs>
	<clipPath id="SVGID_00000038411156602118891140000008695385685145701015_">
		<use xlink:href="#SVGID_00000158009299184211858640000008069736730593221036_"  style="overflow:visible;"/>
	</clipPath>
	<g style="clip-path:url(#SVGID_00000038411156602118891140000008695385685145701015_);">
		<path d="M425.9,34.2h7.9v56.2h-7.9V34.2z"/>
	</g>
</g>
<path id="w" d="M425.9,12.9h7.9v10.8h-7.9V12.9z"/>
<rect x="425.9" y="12.9" width="7.9" height="10.8"/>
<g>
	<defs>
		<rect id="SVGID_00000145744152865769876460000004703175388903187080_" x="425.9" y="12.9" width="7.9" height="10.8"/>
	</defs>
	<clipPath id="SVGID_00000143581286710424366170000008110624944023639466_">
		<use xlink:href="#SVGID_00000145744152865769876460000004703175388903187080_"  style="overflow:visible;"/>
	</clipPath>
	<g style="clip-path:url(#SVGID_00000143581286710424366170000008110624944023639466_);">
		<path d="M425.9,12.9h7.9v10.8h-7.9V12.9z"/>
	</g>
</g>
<path id="y" d="M448.4,40.7c-3.9,5.5-6,13.2-6,23.1c0,8.1,1.8,14.8,5.4,20.2c3.6,5.4,8.4,8.1,14.5,8.1c5.4,0,9.9-1.8,13.3-5.2
	c3.4-3.4,5.7-9,6.4-16.5h-7.6c-0.8,4.2-2.1,7.5-3.9,9.9c-1.9,2.4-4.5,3.6-7.6,3.6c-4.2,0-7.3-1.9-9.3-5.8c-1.9-3.9-3-8.7-3-14.2
	s0.8-10.3,2.1-14.2c2.1-5.8,5.7-8.8,10.6-8.8c3.6,0,6.3,1.2,7.9,3.4s2.7,5.2,3.1,8.7h7.6c-0.6-7.5-2.7-12.9-5.8-16
	c-3.3-3.1-7.5-4.6-12.7-4.6C457.4,32.3,452.5,35.1,448.4,40.7"/>
<path d="M448.4,40.7c-3.9,5.5-6,13.2-6,23.1c0,8.1,1.8,14.8,5.4,20.2c3.6,5.4,8.4,8.1,14.5,8.1c5.4,0,9.9-1.8,13.3-5.2
	c3.4-3.4,5.7-9,6.4-16.5h-7.6c-0.8,4.2-2.1,7.5-3.9,9.9c-1.9,2.4-4.5,3.6-7.6,3.6c-4.2,0-7.3-1.9-9.3-5.8c-1.9-3.9-3-8.7-3-14.2
	s0.8-10.3,2.1-14.2c2.1-5.8,5.7-8.8,10.6-8.8c3.6,0,6.3,1.2,7.9,3.4s2.7,5.2,3.1,8.7h7.6c-0.6-7.5-2.7-12.9-5.8-16
	c-3.3-3.1-7.5-4.6-12.7-4.6C457.4,32.3,452.5,35.1,448.4,40.7"/>
<g>
	<defs>
		<path id="SVGID_00000013181389223716432160000010331554480262207918_" d="M448.4,40.7c-3.9,5.5-6,13.2-6,23.1
			c0,8.1,1.8,14.8,5.4,20.2c3.6,5.4,8.4,8.1,14.5,8.1c5.4,0,9.9-1.8,13.3-5.2c3.4-3.4,5.7-9,6.4-16.5h-7.6c-0.8,4.2-2.1,7.5-3.9,9.9
			c-1.9,2.4-4.5,3.6-7.6,3.6c-4.2,0-7.3-1.9-9.3-5.8c-1.9-3.9-3-8.7-3-14.2s0.8-10.3,2.1-14.2c2.1-5.8,5.7-8.8,10.6-8.8
			c3.6,0,6.3,1.2,7.9,3.4s2.7,5.2,3.1,8.7h7.6c-0.6-7.5-2.7-12.9-5.8-16c-3.3-3.1-7.5-4.6-12.7-4.6
			C457.4,32.3,452.5,35.1,448.4,40.7"/>
	</defs>
	<clipPath id="SVGID_00000015347768703785219190000018114220060946218140_">
		<use xlink:href="#SVGID_00000013181389223716432160000010331554480262207918_"  style="overflow:visible;"/>
	</clipPath>
	<g style="clip-path:url(#SVGID_00000015347768703785219190000018114220060946218140_);">
		<path d="M442.6,32.3h39.7V92h-39.7L442.6,32.3L442.6,32.3z"/>
	</g>
</g>
<path id="A" d="M490.1,12.9h7.9v10.8h-7.9V12.9z"/>
<rect x="490.1" y="12.9" width="7.9" height="10.8"/>
<g>
	<defs>
		<rect id="SVGID_00000090275276538619718800000000250589091830089397_" x="490.1" y="12.9" width="7.9" height="10.8"/>
	</defs>
	<clipPath id="SVGID_00000005241237115482758960000014814468108091339711_">
		<use xlink:href="#SVGID_00000090275276538619718800000000250589091830089397_"  style="overflow:visible;"/>
	</clipPath>
	<g style="clip-path:url(#SVGID_00000005241237115482758960000014814468108091339711_);">
		<path d="M490.1,12.9h7.9v10.8h-7.9V12.9z"/>
	</g>
</g>
<path id="C" d="M490.1,34.2h7.9v56.2h-7.9V34.2z"/>
<rect x="490.1" y="34.2" width="7.9" height="56.2"/>
<g>
	<defs>
		<rect id="SVGID_00000047025384090364619790000009318831179471007654_" x="490.1" y="34.2" width="7.9" height="56.2"/>
	</defs>
	<clipPath id="SVGID_00000147920068385010587100000007025748315511805570_">
		<use xlink:href="#SVGID_00000047025384090364619790000009318831179471007654_"  style="overflow:visible;"/>
	</clipPath>
	<g style="clip-path:url(#SVGID_00000147920068385010587100000007025748315511805570_);">
		<path d="M490.1,34.2h7.9v56.2h-7.9V34.2z"/>
	</g>
</g>
</svg>
