<?xml version="1.0" encoding="UTF-8"?>
<svg id="Ebene_1" xmlns="http://www.w3.org/2000/svg" version="1.1" viewBox="0 0 477.1 103.8">
  <!-- Generator: Adobe Illustrator 29.3.1, SVG Export Plug-In . SVG Version: 2.1.0 Build 151)  -->
  <g>
    <path d="M41.3,48.6c-.3-.9-.4-1.9-.6-3-.1-1.1-.2-2.2-.2-3.2,0-1.1,0-2-.1-2.8,0-1.4-.3-2.7-.6-3.9-.3-1.2-.8-2.4-1.4-3.3-.7-1-1.6-1.8-2.6-2.4-.3-.2-.7-.4-1.1-.5,1.8-.8,3.2-2,4.3-3.5,1.6-2.2,2.4-4.9,2.4-7.9s-.4-4-1.2-5.6c-.8-1.6-1.9-2.9-3.2-3.9-1.3-1-2.9-1.8-4.6-2.2-1.7-.5-3.6-.7-5.5-.7H5.4v46.5h6v-19.8h15.3c1.8,0,3.2.2,4.2.9,1,.7,1.8,1.5,2.3,2.6.6,1.1.9,2.5,1.1,3.9.2,1.5.3,3.1.4,4.7,0,.5,0,1,.1,1.6,0,.6,0,1.3.2,1.9,0,.7.2,1.4.3,2,.2.7.4,1.3.7,1.8l.3.4h7.1l-1.2-1.5c-.4-.4-.7-1.1-.9-1.9ZM11.5,10.9h15c3,0,5.2.7,6.6,2.1,1.4,1.4,2.1,3.4,2.1,5.9s-.2,2.3-.7,3.3c-.5,1-1.1,1.8-1.9,2.4-.8.7-1.7,1.2-2.8,1.6h0c-1.1.4-2.2.5-3.4.5h-15v-15.8Z"/>
    <rect x="63.4" y="5.5" width="6" height="46.5"/>
    <path d="M126.7,34c-.2,1.9-.7,3.7-1.4,5.3h0c-.7,1.6-1.6,3.1-2.8,4.3-1.1,1.2-2.5,2.2-4,2.9-1.5.7-3.3,1-5.3,1-2.8,0-5.2-.5-7.2-1.6-2-1.1-3.7-2.5-4.9-4.2-1.3-1.8-2.3-3.8-2.9-6-.6-2.3-.9-4.6-.9-6.9s.3-4.7.9-7c.6-2.2,1.6-4.2,2.9-6,1.3-1.7,2.9-3.2,4.9-4.2,2-1.1,4.4-1.6,7.2-1.6s3,.2,4.4.7c1.4.4,2.7,1.1,3.8,2,1.1.8,2.1,1.9,2.9,3.2.8,1.3,1.4,2.7,1.7,4.3l.2.7h6v-1c-.4-2.5-1.2-4.7-2.3-6.6-1.2-1.9-2.6-3.5-4.4-4.8-1.7-1.3-3.7-2.3-5.8-2.9-2.1-.6-4.3-1-6.5-1-3.6,0-6.9.7-9.6,2-2.8,1.3-5.1,3.1-6.9,5.4-1.8,2.2-3.2,4.8-4.1,7.7-.9,2.9-1.4,5.9-1.4,9.1s.5,6.2,1.4,9.1c.9,2.9,2.3,5.5,4.1,7.7,1.8,2.2,4.2,4,6.9,5.3,2.8,1.3,6,2,9.6,2s5.2-.4,7.5-1.3c2.2-.9,4.2-2.1,5.9-3.8,1.7-1.6,3-3.6,4.1-5.9,1-2.3,1.7-4.9,2-7.7v-1c.1,0-5.9,0-5.9,0v.8Z"/>
    <polygon points="184.9 24.9 160.1 24.9 160.1 5.5 154.1 5.5 154.1 52 160.1 52 160.1 30.3 184.9 30.3 184.9 52 190.9 52 190.9 5.5 184.9 5.5 184.9 24.9"/>
    <path d="M252.2,48.6c-.3-.9-.4-1.9-.6-3-.1-1.1-.2-2.2-.2-3.2,0-1.1,0-2-.1-2.8,0-1.4-.3-2.7-.6-3.9-.3-1.2-.8-2.4-1.4-3.3-.7-1-1.6-1.8-2.6-2.4-.3-.2-.7-.4-1.1-.5,1.8-.8,3.2-2,4.3-3.5,1.6-2.2,2.4-4.9,2.4-7.9s-.4-4-1.2-5.6c-.8-1.6-1.9-2.9-3.2-3.9-1.3-1-2.9-1.8-4.6-2.2-1.7-.5-3.6-.7-5.5-.7h-21.4v46.5h6v-19.8h15.3c1.8,0,3.2.2,4.2.9,1,.7,1.8,1.5,2.3,2.6.6,1.1.9,2.5,1.1,3.9.2,1.5.3,3.1.4,4.7,0,.5,0,1,.1,1.6,0,.6,0,1.3.2,1.9,0,.7.2,1.4.3,2,.2.7.4,1.3.7,1.8l.3.4h7.1l-1.2-1.5c-.4-.4-.7-1.1-.9-1.9ZM222.4,10.9h15c3,0,5.2.7,6.6,2.1,1.4,1.4,2.1,3.4,2.1,5.9s-.2,2.3-.7,3.3c-.5,1-1.1,1.8-1.9,2.4-.8.7-1.7,1.2-2.8,1.6h0c-1.1.4-2.2.5-3.4.5h-15v-15.8Z"/>
    <path d="M309.6,12h0c-1.8-2.2-4.1-4-6.9-5.4-2.7-1.3-6-2-9.6-2s-6.9.7-9.6,2c-2.8,1.3-5.1,3.1-6.9,5.4-1.8,2.2-3.2,4.8-4.1,7.7-.9,2.9-1.4,5.9-1.4,9.1s.5,6.2,1.4,9.1c.9,2.9,2.3,5.5,4.1,7.7,1.8,2.2,4.2,4,6.9,5.3,2.8,1.3,6,2,9.6,2s6.8-.7,9.6-2c2.7-1.3,5-3.1,6.9-5.3,1.8-2.2,3.2-4.8,4.1-7.7.9-2.9,1.4-5.9,1.4-9.1s-.5-6.2-1.4-9.1c-.9-2.9-2.3-5.5-4.1-7.7ZM293.1,47.5c-2.8,0-5.2-.5-7.2-1.6-2-1.1-3.7-2.5-4.9-4.2-1.3-1.8-2.2-3.8-2.9-6-.6-2.3-.9-4.6-.9-6.9s.3-4.7.9-7c.6-2.2,1.6-4.2,2.9-6,1.3-1.7,2.9-3.2,4.9-4.2,2-1.1,4.4-1.6,7.2-1.6s5.2.5,7.2,1.6c2,1.1,3.6,2.5,4.9,4.2,1.3,1.8,2.2,3.8,2.9,6,.6,2.2.9,4.6.9,7s-.3,4.7-.9,6.9c-.6,2.2-1.6,4.3-2.9,6-1.3,1.7-2.9,3.2-4.9,4.2-2,1.1-4.4,1.6-7.2,1.6Z"/>
    <polygon points="348.1 27.4 333.9 5.5 326.7 5.5 345 33 345 52 351 52 351 33 369.5 5.5 362.2 5.5 348.1 27.4"/>
    <path d="M397.8,5.5l-18.7,46.5h6.4l5.4-13.9h19.1l5.4,13.9h6.5l-18.2-46.5h-6ZM408,32.7h-15l7.6-19.5,7.4,19.5Z"/>
    <polygon points="447.1 46.6 447.1 5.5 441 5.5 441 52 472.1 52 472.1 46.6 447.1 46.6"/>
  </g>
  <g>
    <path d="M75.1,83.9c2.2,0,3.8.7,4.9,1.8,1.1,1.2,1.6,2.9,1.6,5.3s-.5,4.1-1.6,5.3c-1.1,1.2-2.7,1.8-4.9,1.8h-4.9v-14.3h4.9ZM74.5,97c1,0,1.9-.1,2.6-.3.7-.2,1.3-.6,1.8-1,.5-.5.8-1.1,1.1-1.9s.3-1.7.3-2.7-.1-2-.3-2.7c-.2-.8-.6-1.4-1.1-1.9-.5-.5-1.1-.8-1.8-1-.7-.2-1.6-.3-2.6-.3h-2.9v11.9h2.9Z"/>
    <path d="M96,83.9c.6,0,1.1,0,1.7.2s1,.4,1.4.7c.4.3.7.7.9,1.2.2.5.3,1,.3,1.7,0,.9-.2,1.7-.7,2.4-.5.7-1.2,1.1-2.1,1.3h0c.5.1.9.2,1.2.4.3.2.6.4.7.7.2.3.3.6.4,1,0,.4.1.8.2,1.2,0,.2,0,.5,0,.9s0,.7,0,1,.1.7.2,1c0,.3.2.6.3.7h-1.5c0-.1-.1-.3-.2-.5,0-.2,0-.4,0-.6,0-.2,0-.4,0-.6,0-.2,0-.4,0-.5,0-.5,0-1-.1-1.5s-.2-.9-.4-1.3c-.2-.4-.5-.7-.8-.9-.4-.2-.9-.3-1.5-.3h-5.2v6.3h-1.4v-14.3h6.5ZM95.9,90.7c.4,0,.8,0,1.2-.2.4-.1.7-.3,1-.6.3-.2.5-.5.7-.9.2-.3.2-.7.2-1.2,0-.9-.3-1.6-.8-2.1-.5-.5-1.3-.8-2.3-.8h-5.1v5.6h5.1Z"/>
    <path d="M118.2,83.9v1.2h-8.5v5.2h7.9v1.2h-7.9v5.6h8.6v1.2h-9.9v-14.3h9.8Z"/>
    <path d="M126.7,95.3c.2.5.6.9,1,1.2s.9.5,1.5.6c.6.1,1.2.2,1.8.2s.8,0,1.2-.2.8-.3,1.2-.5.7-.5.9-.9c.3-.4.4-.8.4-1.3s0-.7-.3-1c-.2-.3-.4-.5-.7-.7-.3-.2-.6-.4-.9-.5-.3-.1-.7-.2-1-.3l-3.2-.8c-.4-.1-.8-.2-1.2-.4-.4-.2-.7-.4-1-.6-.3-.3-.5-.6-.7-1-.2-.4-.3-.9-.3-1.4s0-.8.2-1.2c.1-.5.4-.9.7-1.3.4-.4.9-.8,1.5-1,.6-.3,1.5-.4,2.5-.4s1.4,0,2,.3c.6.2,1.2.5,1.7.8.5.4.9.8,1.1,1.4.3.6.4,1.2.4,1.9h-1.4c0-.5-.1-1-.4-1.4-.2-.4-.5-.7-.9-1s-.8-.5-1.2-.6-.9-.2-1.4-.2-.9,0-1.3.2c-.4,0-.8.3-1.1.5s-.6.5-.8.9c-.2.4-.3.8-.3,1.3s0,.6.2.9c.1.2.3.5.5.6.2.2.4.3.7.4.3.1.5.2.8.3l3.5.9c.5.1,1,.3,1.4.5s.8.4,1.2.7c.3.3.6.6.8,1,.2.4.3.9.3,1.5s0,.4,0,.6-.1.5-.2.8c-.1.3-.3.6-.5.9-.2.3-.6.6-1,.8s-.9.4-1.5.6c-.6.2-1.3.2-2.2.2s-1.6,0-2.3-.3c-.7-.2-1.3-.5-1.8-.9-.5-.4-.9-.9-1.2-1.5-.3-.6-.4-1.4-.3-2.3h1.4c0,.7,0,1.3.3,1.8Z"/>
    <path d="M144.8,95.3c.2.5.6.9,1,1.2s.9.5,1.5.6c.6.1,1.2.2,1.8.2s.8,0,1.2-.2.8-.3,1.2-.5.7-.5.9-.9c.3-.4.4-.8.4-1.3s0-.7-.3-1c-.2-.3-.4-.5-.7-.7-.3-.2-.6-.4-.9-.5-.3-.1-.7-.2-1-.3l-3.2-.8c-.4-.1-.8-.2-1.2-.4-.4-.2-.7-.4-1-.6-.3-.3-.5-.6-.7-1-.2-.4-.3-.9-.3-1.4s0-.8.2-1.2c.1-.5.4-.9.7-1.3.4-.4.9-.8,1.5-1,.6-.3,1.5-.4,2.5-.4s1.4,0,2,.3c.6.2,1.2.5,1.7.8.5.4.9.8,1.1,1.4.3.6.4,1.2.4,1.9h-1.4c0-.5-.1-1-.4-1.4-.2-.4-.5-.7-.9-1s-.8-.5-1.2-.6-.9-.2-1.4-.2-.9,0-1.3.2c-.4,0-.8.3-1.1.5s-.6.5-.8.9c-.2.4-.3.8-.3,1.3s0,.6.2.9c.1.2.3.5.5.6.2.2.4.3.7.4.3.1.5.2.8.3l3.5.9c.5.1,1,.3,1.4.5s.8.4,1.2.7c.3.3.6.6.8,1,.2.4.3.9.3,1.5s0,.4,0,.6-.1.5-.2.8c-.1.3-.3.6-.5.9-.2.3-.6.6-1,.8s-.9.4-1.5.6c-.6.2-1.3.2-2.2.2s-1.6,0-2.3-.3c-.7-.2-1.3-.5-1.8-.9-.5-.4-.9-.9-1.2-1.5-.3-.6-.4-1.4-.3-2.3h1.4c0,.7,0,1.3.3,1.8Z"/>
    <path d="M163.4,83.9v14.3h-1.4v-14.3h1.4Z"/>
    <path d="M173.4,83.9l8.3,12.1h0v-12.1h1.4v14.3h-1.5l-8.3-12.1h0v12.1h-1.4v-14.3h1.5Z"/>
    <path d="M202.8,98.2l-.2-2.6h0c-.2.5-.5.9-.9,1.3-.4.4-.7.7-1.2.9s-.9.4-1.4.5c-.5.1-1,.2-1.5.2-1.1,0-2.1-.2-2.9-.6s-1.5-.9-2.1-1.6c-.6-.7-1-1.5-1.3-2.4-.3-.9-.4-1.8-.4-2.8s.1-1.9.4-2.8c.3-.9.7-1.7,1.3-2.4.6-.7,1.3-1.2,2.1-1.6s1.8-.6,2.9-.6,1.5.1,2.1.3c.7.2,1.3.5,1.8.9.5.4,1,.9,1.3,1.5.4.6.6,1.3.7,2.1h-1.4c0-.4-.2-.8-.4-1.2-.2-.4-.5-.8-.9-1.1-.4-.3-.9-.6-1.4-.8-.5-.2-1.2-.3-1.8-.3s-1.8.2-2.4.5c-.7.4-1.2.8-1.7,1.4-.4.6-.8,1.3-1,2-.2.7-.3,1.5-.3,2.3s.1,1.5.3,2.3c.2.8.5,1.4,1,2,.4.6,1,1.1,1.7,1.4.7.4,1.5.5,2.4.5s1.5-.1,2.1-.4c.6-.3,1.1-.6,1.6-1.1.4-.5.7-1,1-1.7.2-.6.3-1.3.3-2.1h-4.9v-1.2h6.1v7.2h-1Z"/>
    <path d="M224,95.3c.2.5.6.9,1,1.2s.9.5,1.5.6c.6.1,1.2.2,1.8.2s.8,0,1.2-.2.8-.3,1.2-.5.7-.5.9-.9c.3-.4.4-.8.4-1.3s0-.7-.3-1c-.2-.3-.4-.5-.7-.7-.3-.2-.6-.4-.9-.5-.3-.1-.7-.2-1-.3l-3.2-.8c-.4-.1-.8-.2-1.2-.4-.4-.2-.7-.4-1-.6-.3-.3-.5-.6-.7-1-.2-.4-.3-.9-.3-1.4s0-.8.2-1.2c.1-.5.4-.9.7-1.3.4-.4.9-.8,1.5-1,.6-.3,1.5-.4,2.5-.4s1.4,0,2,.3c.6.2,1.2.5,1.7.8.5.4.9.8,1.1,1.4.3.6.4,1.2.4,1.9h-1.4c0-.5-.1-1-.4-1.4-.2-.4-.5-.7-.9-1s-.8-.5-1.2-.6-.9-.2-1.4-.2-.9,0-1.3.2c-.4,0-.8.3-1.1.5s-.6.5-.8.9c-.2.4-.3.8-.3,1.3s0,.6.2.9c.1.2.3.5.5.6.2.2.4.3.7.4.3.1.5.2.8.3l3.5.9c.5.1,1,.3,1.4.5s.8.4,1.2.7c.3.3.6.6.8,1,.2.4.3.9.3,1.5s0,.4,0,.6-.1.5-.2.8c-.1.3-.3.6-.5.9-.2.3-.6.6-1,.8s-.9.4-1.5.6c-.6.2-1.3.2-2.2.2s-1.6,0-2.3-.3c-.7-.2-1.3-.5-1.8-.9-.5-.4-.9-.9-1.2-1.5-.3-.6-.4-1.4-.3-2.3h1.4c0,.7,0,1.3.3,1.8Z"/>
    <path d="M242.4,83.9v8.8c0,.8,0,1.5.3,2.1.2.6.5,1.1.8,1.4.4.4.8.6,1.3.8.5.2,1.1.2,1.8.2s1.3,0,1.8-.2c.5-.2,1-.4,1.3-.8.4-.4.6-.8.8-1.4.2-.6.3-1.3.3-2.1v-8.8h1.4v9.1c0,.7-.1,1.4-.3,2.1-.2.7-.5,1.2-1,1.7-.4.5-1,.9-1.7,1.2-.7.3-1.5.4-2.5.4s-1.8-.1-2.5-.4c-.7-.3-1.3-.7-1.7-1.2-.4-.5-.8-1.1-1-1.7-.2-.7-.3-1.4-.3-2.1v-9.1h1.4Z"/>
    <path d="M266.7,83.9c.6,0,1.2,0,1.7.3s1,.4,1.3.8.7.8.9,1.3c.2.5.3,1.1.3,1.7s-.1,1.2-.3,1.7c-.2.5-.5.9-.9,1.3-.4.4-.8.6-1.3.8-.5.2-1.1.3-1.7.3h-5v6.1h-1.4v-14.3h6.3ZM266.4,90.9c.9,0,1.7-.2,2.3-.7.6-.5.9-1.2.9-2.2s-.3-1.7-.9-2.2c-.6-.5-1.4-.7-2.3-.7h-4.7v5.8h4.7Z"/>
    <path d="M288.1,83.9v1.2h-8.5v5.2h7.9v1.2h-7.9v5.6h8.6v1.2h-9.9v-14.3h9.8Z"/>
    <path d="M302.2,83.9c.6,0,1.1,0,1.7.2s1,.4,1.4.7.7.7.9,1.2c.2.5.4,1,.4,1.7,0,.9-.2,1.7-.7,2.4-.5.7-1.2,1.1-2.1,1.3h0c.5.1.9.2,1.2.4.3.2.6.4.7.7.2.3.3.6.4,1,0,.4.1.8.2,1.2,0,.2,0,.5,0,.9s0,.7,0,1,.1.7.2,1c0,.3.2.6.3.7h-1.5c0-.1-.1-.3-.2-.5,0-.2,0-.4-.1-.6,0-.2,0-.4,0-.6,0-.2,0-.4,0-.5,0-.5,0-1-.1-1.5s-.2-.9-.4-1.3c-.2-.4-.5-.7-.8-.9-.4-.2-.9-.3-1.5-.3h-5.2v6.3h-1.4v-14.3h6.5ZM302.1,90.7c.4,0,.8,0,1.2-.2s.7-.3,1-.6c.3-.2.5-.5.7-.9.2-.3.2-.7.2-1.2,0-.9-.3-1.6-.8-2.1-.5-.5-1.3-.8-2.3-.8h-5.1v5.6h5.1Z"/>
    <path d="M314.5,83.9l3.2,12.5h0l3.5-12.5h1.7l3.5,12.5h0l3.3-12.5h1.4l-3.9,14.3h-1.4l-3.6-12.8h0l-3.6,12.8h-1.5l-4-14.3h1.5Z"/>
    <path d="M337.4,88.3c.3-.9.7-1.7,1.3-2.4.6-.7,1.3-1.2,2.1-1.6.8-.4,1.8-.6,2.9-.6s2.1.2,2.9.6,1.5,1,2.1,1.6c.6.7,1,1.5,1.3,2.4.3.9.4,1.8.4,2.8s-.1,1.9-.4,2.8c-.3.9-.7,1.7-1.3,2.4-.6.7-1.3,1.2-2.1,1.6s-1.8.6-2.9.6-2.1-.2-2.9-.6c-.8-.4-1.5-.9-2.1-1.6-.6-.7-1-1.5-1.3-2.4-.3-.9-.4-1.8-.4-2.8s.1-1.9.4-2.8ZM338.6,93.4c.2.8.5,1.4,1,2,.4.6,1,1.1,1.7,1.4.7.4,1.5.5,2.4.5s1.8-.2,2.4-.5c.7-.4,1.2-.8,1.7-1.4.4-.6.8-1.3,1-2,.2-.8.3-1.5.3-2.3s-.1-1.6-.3-2.3c-.2-.7-.5-1.4-1-2-.4-.6-1-1.1-1.7-1.4-.7-.4-1.5-.5-2.4-.5s-1.8.2-2.4.5c-.7.4-1.2.8-1.7,1.4-.4.6-.8,1.3-1,2-.2.7-.3,1.5-.3,2.3s.1,1.5.3,2.3Z"/>
    <path d="M359.5,83.9l4.7,12.5,4.9-12.5h2v14.3h-1.4v-12.3h0l-4.9,12.3h-1.3l-4.7-12.3h0v12.3h-1.4v-14.3h2Z"/>
    <path d="M388.8,83.9v1.2h-8.5v5.2h7.9v1.2h-7.9v5.6h8.6v1.2h-9.9v-14.3h9.8Z"/>
    <path d="M397.6,83.9l8.3,12.1h0v-12.1h1.4v14.3h-1.5l-8.3-12.1h0v12.1h-1.4v-14.3h1.5Z"/>
  </g>
</svg>