<?xml version="1.0" encoding="utf-8"?>
<!-- Generator: Adobe Illustrator 23.0.4, SVG Export Plug-In . SVG Version: 6.00 Build 0)  -->
<svg version="1.1" id="Ebene_1" xmlns="http://www.w3.org/2000/svg" xmlns:xlink="http://www.w3.org/1999/xlink" x="0px" y="0px"
	 viewBox="0 0 104 32" enable-background="new 0 0 104 32" xml:space="preserve">
<g>
	<g>
		<path fill="#1D1D1B" d="M37.68,0.5c-0.04-0.17-0.23-0.49-0.65-0.49s-0.61,0.32-0.64,0.47l-6.06,15.08h1.31l1.9-4.77h6.92
			l1.87,4.77h1.3L37.68,0.5z M33.95,9.69l3.11-7.9l2.99,7.9H33.95z"/>
		<path fill="#1D1D1B" d="M98.05,0.5c-0.04-0.17-0.23-0.49-0.65-0.49c-0.42,0-0.61,0.32-0.64,0.47L90.7,15.55h1.31l1.9-4.77h6.92
			l1.87,4.77h1.3L98.05,0.5z M94.32,9.69l3.11-7.9l2.99,7.9H94.32z"/>
		<path fill="#1D1D1B" d="M13.51,0.33c-0.01-0.01-0.3-0.3-0.65-0.3c-0.15,0-0.37,0.06-0.56,0.32c-0.67,0.91-4.74,6.64-5.5,7.71
			c-0.76-1.07-4.83-6.8-5.5-7.71C1.11,0.08,0.89,0.03,0.74,0.03c-0.35,0-0.64,0.29-0.65,0.3L0,0.42l6.25,8.77v6.36h1.1V9.19
			l6.25-8.77L13.51,0.33z"/>
		<path fill="#1D1D1B" d="M73.88,0.33c-0.01-0.01-0.3-0.3-0.65-0.3c-0.15,0-0.37,0.06-0.56,0.32c-0.67,0.91-4.74,6.64-5.5,7.71
			c-0.76-1.07-4.83-6.8-5.5-7.71c-0.19-0.26-0.41-0.32-0.56-0.32c-0.35,0-0.64,0.29-0.65,0.3l-0.09,0.09l6.25,8.77v6.36h1.1V9.19
			l6.25-8.77L73.88,0.33z"/>
	</g>
	<g>
		<path fill="#1D1D1B" d="M2.99,28.05c0.16,0,0.31,0.01,0.45,0.04c0.14,0.03,0.27,0.08,0.38,0.15c0.11,0.07,0.2,0.16,0.26,0.28
			c0.07,0.12,0.1,0.26,0.1,0.43c0,0.1-0.02,0.19-0.05,0.28C4.1,29.34,4.06,29.42,4,29.49c-0.06,0.07-0.12,0.14-0.2,0.19
			c-0.08,0.05-0.17,0.09-0.26,0.11v0.01c0.24,0.03,0.43,0.13,0.57,0.29c0.14,0.16,0.21,0.37,0.21,0.61c0,0.06-0.01,0.13-0.02,0.2
			c-0.01,0.07-0.03,0.15-0.06,0.23c-0.03,0.08-0.08,0.16-0.13,0.23c-0.06,0.08-0.14,0.14-0.24,0.2c-0.1,0.06-0.22,0.1-0.36,0.14
			c-0.14,0.04-0.32,0.05-0.52,0.05H1.43v-3.7H2.99z M2.99,29.68c0.14,0,0.26-0.02,0.37-0.05c0.1-0.03,0.19-0.08,0.26-0.13
			c0.07-0.06,0.12-0.12,0.16-0.2c0.03-0.08,0.05-0.16,0.05-0.24c0-0.46-0.28-0.69-0.83-0.69H1.78v1.32H2.99z M2.99,31.46
			c0.13,0,0.26-0.01,0.37-0.03c0.12-0.02,0.22-0.06,0.31-0.12c0.09-0.06,0.16-0.14,0.21-0.24c0.05-0.1,0.08-0.22,0.08-0.37
			c0-0.24-0.08-0.42-0.25-0.54c-0.17-0.12-0.41-0.18-0.72-0.18H1.78v1.48H2.99z"/>
		<path fill="#1D1D1B" d="M8.37,28.05c0.15,0,0.3,0.02,0.43,0.06c0.14,0.04,0.26,0.1,0.36,0.17c0.1,0.08,0.18,0.18,0.24,0.3
			c0.06,0.12,0.09,0.27,0.09,0.43c0,0.23-0.06,0.44-0.18,0.61c-0.12,0.17-0.3,0.28-0.54,0.33v0.01c0.12,0.02,0.22,0.05,0.3,0.1
			c0.08,0.05,0.14,0.11,0.19,0.18c0.05,0.07,0.09,0.16,0.11,0.25c0.02,0.1,0.04,0.2,0.04,0.31c0,0.06,0.01,0.14,0.01,0.23
			c0,0.09,0.01,0.18,0.02,0.27c0.01,0.09,0.03,0.18,0.05,0.26c0.02,0.08,0.05,0.14,0.09,0.19H9.2c-0.02-0.03-0.04-0.08-0.05-0.13
			s-0.02-0.1-0.03-0.16c-0.01-0.05-0.01-0.11-0.01-0.16c0-0.05-0.01-0.1-0.01-0.13c-0.01-0.13-0.02-0.26-0.03-0.39
			c-0.02-0.13-0.05-0.25-0.1-0.35c-0.05-0.1-0.12-0.18-0.22-0.25c-0.1-0.06-0.23-0.09-0.39-0.08H7.03v1.64H6.67v-3.7H8.37z
			 M8.34,29.81c0.11,0,0.21-0.02,0.31-0.05c0.1-0.03,0.18-0.08,0.25-0.14c0.07-0.06,0.13-0.14,0.17-0.23s0.06-0.19,0.06-0.3
			c0-0.23-0.07-0.41-0.2-0.54c-0.13-0.13-0.33-0.2-0.6-0.2H7.03v1.46H8.34z"/>
		<path fill="#1D1D1B" d="M13.3,28.05l1.45,3.7h-0.38l-0.45-1.15h-1.69l-0.45,1.15h-0.37l1.49-3.7H13.3z M13.8,30.3l-0.72-1.9
			l-0.74,1.9H13.8z"/>
		<path fill="#1D1D1B" d="M17.16,28.05l2.16,3.13h0.01v-3.13h0.35v3.7h-0.39l-2.16-3.13h-0.01v3.13h-0.35v-3.7H17.16z"/>
		<path fill="#1D1D1B" d="M23.59,28.05c0.56,0.01,0.99,0.17,1.27,0.47c0.29,0.3,0.43,0.76,0.43,1.38c0,0.62-0.14,1.07-0.43,1.38
			c-0.29,0.3-0.71,0.46-1.27,0.47h-1.28v-3.7H23.59z M23.42,31.46c0.27,0,0.5-0.03,0.69-0.09c0.19-0.06,0.35-0.15,0.47-0.27
			c0.12-0.12,0.22-0.29,0.27-0.48c0.06-0.2,0.09-0.43,0.09-0.71c0-0.28-0.03-0.51-0.09-0.71c-0.06-0.2-0.15-0.36-0.27-0.48
			c-0.12-0.12-0.28-0.22-0.47-0.27c-0.19-0.06-0.42-0.09-0.69-0.09h-0.75v3.1H23.42z"/>
		<path fill="#1D1D1B" d="M31.03,29.17c0.07-0.23,0.18-0.44,0.33-0.61c0.15-0.18,0.33-0.32,0.55-0.43c0.22-0.11,0.47-0.16,0.76-0.16
			c0.29,0,0.54,0.05,0.76,0.16c0.22,0.11,0.4,0.25,0.54,0.43c0.15,0.18,0.25,0.38,0.33,0.61c0.07,0.23,0.11,0.48,0.11,0.73
			c0,0.26-0.04,0.5-0.11,0.73c-0.07,0.23-0.18,0.44-0.33,0.61c-0.15,0.18-0.33,0.32-0.54,0.42c-0.22,0.11-0.47,0.16-0.76,0.16
			c-0.29,0-0.55-0.05-0.76-0.16c-0.22-0.11-0.4-0.25-0.55-0.42c-0.15-0.18-0.25-0.38-0.33-0.61c-0.07-0.23-0.11-0.48-0.11-0.73
			C30.92,29.65,30.96,29.41,31.03,29.17z M31.35,30.5c0.05,0.2,0.14,0.37,0.25,0.52c0.11,0.15,0.26,0.28,0.43,0.37
			c0.18,0.09,0.39,0.14,0.63,0.14c0.25,0,0.46-0.05,0.63-0.14c0.17-0.09,0.32-0.22,0.43-0.37c0.11-0.15,0.2-0.33,0.25-0.52
			c0.05-0.2,0.08-0.39,0.08-0.59c0-0.2-0.03-0.4-0.08-0.6c-0.05-0.19-0.14-0.37-0.25-0.52c-0.11-0.15-0.26-0.28-0.43-0.37
			c-0.17-0.09-0.38-0.14-0.63-0.14c-0.25,0-0.46,0.05-0.63,0.14c-0.18,0.09-0.32,0.22-0.43,0.37c-0.11,0.15-0.2,0.33-0.25,0.52
			c-0.05,0.19-0.08,0.39-0.08,0.6C31.27,30.11,31.3,30.3,31.35,30.5z"/>
		<path fill="#1D1D1B" d="M38.89,28.05v0.3h-2v1.34h1.77v0.3h-1.77v1.76h-0.35v-3.7H38.89z"/>
		<path fill="#1D1D1B" d="M47.09,31.56c-0.25,0.18-0.57,0.27-0.96,0.27c-0.29,0-0.55-0.05-0.76-0.16c-0.22-0.11-0.4-0.25-0.55-0.42
			c-0.15-0.18-0.25-0.38-0.33-0.61c-0.07-0.23-0.11-0.48-0.11-0.73c0-0.26,0.04-0.5,0.11-0.73c0.07-0.23,0.18-0.44,0.33-0.61
			c0.15-0.18,0.33-0.32,0.55-0.43c0.22-0.11,0.47-0.16,0.76-0.16c0.29,0,0.54,0.05,0.76,0.16c0.22,0.11,0.4,0.25,0.54,0.43
			c0.15,0.18,0.25,0.38,0.33,0.61c0.07,0.23,0.11,0.48,0.11,0.73c0,0.29-0.05,0.56-0.14,0.82c-0.09,0.25-0.23,0.47-0.42,0.65
			l0.53,0.4l-0.18,0.22L47.09,31.56z M47.4,30.6c0.07-0.22,0.11-0.46,0.11-0.69c0-0.2-0.03-0.4-0.08-0.6
			c-0.05-0.19-0.14-0.37-0.25-0.52c-0.11-0.15-0.26-0.28-0.43-0.37c-0.17-0.09-0.38-0.14-0.63-0.14c-0.25,0-0.46,0.05-0.63,0.14
			c-0.18,0.09-0.32,0.22-0.43,0.37c-0.11,0.15-0.2,0.33-0.25,0.52c-0.05,0.19-0.08,0.39-0.08,0.6c0,0.2,0.03,0.4,0.08,0.59
			c0.05,0.2,0.14,0.37,0.25,0.52c0.11,0.15,0.26,0.28,0.43,0.37c0.18,0.09,0.39,0.14,0.63,0.14c0.26,0,0.49-0.06,0.68-0.18
			l-0.49-0.37l0.18-0.22l0.54,0.41C47.21,31.01,47.33,30.82,47.4,30.6z"/>
		<path fill="#1D1D1B" d="M50.37,28.05v2.29c0,0.21,0.02,0.4,0.07,0.55c0.05,0.15,0.12,0.27,0.21,0.37c0.09,0.1,0.21,0.16,0.34,0.21
			s0.29,0.06,0.46,0.06c0.17,0,0.33-0.02,0.46-0.06s0.25-0.11,0.34-0.21c0.09-0.1,0.16-0.22,0.21-0.37
			c0.05-0.15,0.07-0.33,0.07-0.55v-2.29h0.35v2.37c0,0.19-0.03,0.37-0.08,0.54c-0.05,0.17-0.14,0.32-0.25,0.45s-0.26,0.23-0.45,0.3
			c-0.18,0.07-0.4,0.11-0.66,0.11c-0.26,0-0.47-0.04-0.66-0.11c-0.18-0.07-0.33-0.18-0.45-0.3c-0.12-0.13-0.2-0.28-0.25-0.45
			s-0.08-0.35-0.08-0.54v-2.37H50.37z"/>
		<path fill="#1D1D1B" d="M56.58,28.05l1.45,3.7h-0.38l-0.45-1.15h-1.68l-0.45,1.15H54.7l1.49-3.7H56.58z M57.09,30.3l-0.72-1.9
			l-0.74,1.9H57.09z"/>
		<path fill="#1D1D1B" d="M60.49,28.05v3.4h2.07v0.3h-2.43v-3.7H60.49z"/>
		<path fill="#1D1D1B" d="M64.75,28.05v3.7H64.4v-3.7H64.75z"/>
		<path fill="#1D1D1B" d="M69.67,28.05v0.3h-1.29v3.4h-0.35v-3.4h-1.29v-0.3H69.67z"/>
		<path fill="#1D1D1B" d="M71.17,28.05h0.41l1.22,1.88l1.21-1.88h0.42l-1.46,2.18v1.52h-0.35v-1.52L71.17,28.05z"/>
		<path fill="#1D1D1B" d="M82.92,31.76l-0.05-0.67h-0.01c-0.06,0.13-0.14,0.24-0.23,0.34c-0.09,0.1-0.19,0.17-0.3,0.23
			c-0.11,0.06-0.23,0.1-0.35,0.13c-0.13,0.03-0.26,0.04-0.39,0.04c-0.29,0-0.55-0.05-0.76-0.16c-0.22-0.11-0.4-0.25-0.55-0.42
			c-0.15-0.18-0.25-0.38-0.33-0.61c-0.07-0.23-0.11-0.48-0.11-0.73c0-0.26,0.04-0.5,0.11-0.73c0.07-0.23,0.18-0.44,0.33-0.61
			c0.15-0.18,0.33-0.32,0.55-0.43c0.22-0.11,0.47-0.16,0.76-0.16c0.19,0,0.38,0.03,0.55,0.08c0.17,0.05,0.33,0.13,0.46,0.23
			c0.13,0.1,0.25,0.23,0.34,0.38c0.09,0.15,0.16,0.33,0.19,0.53h-0.35c-0.01-0.11-0.05-0.22-0.11-0.32
			c-0.06-0.11-0.14-0.21-0.24-0.3c-0.1-0.09-0.22-0.16-0.37-0.22c-0.14-0.06-0.3-0.09-0.48-0.09c-0.25,0-0.46,0.05-0.63,0.14
			c-0.18,0.09-0.32,0.22-0.43,0.37c-0.11,0.15-0.2,0.33-0.25,0.52c-0.05,0.19-0.08,0.39-0.08,0.6c0,0.2,0.03,0.4,0.08,0.59
			c0.05,0.2,0.14,0.37,0.25,0.52c0.11,0.15,0.26,0.28,0.43,0.37c0.18,0.09,0.39,0.14,0.63,0.14c0.2,0,0.39-0.03,0.55-0.1
			c0.16-0.07,0.3-0.16,0.41-0.28c0.11-0.12,0.19-0.26,0.25-0.43c0.06-0.17,0.08-0.35,0.08-0.54h-1.26v-0.3h1.57v1.88H82.92z"/>
		<path fill="#1D1D1B" d="M85.43,29.17c0.07-0.23,0.18-0.44,0.33-0.61c0.15-0.18,0.33-0.32,0.55-0.43c0.22-0.11,0.47-0.16,0.76-0.16
			c0.29,0,0.54,0.05,0.76,0.16c0.22,0.11,0.4,0.25,0.54,0.43s0.25,0.38,0.33,0.61c0.07,0.23,0.11,0.48,0.11,0.73
			c0,0.26-0.04,0.5-0.11,0.73c-0.07,0.23-0.18,0.44-0.33,0.61c-0.15,0.18-0.33,0.32-0.54,0.42c-0.22,0.11-0.47,0.16-0.76,0.16
			c-0.29,0-0.55-0.05-0.76-0.16c-0.22-0.11-0.4-0.25-0.55-0.42c-0.15-0.18-0.25-0.38-0.33-0.61c-0.07-0.23-0.11-0.48-0.11-0.73
			C85.32,29.65,85.35,29.41,85.43,29.17z M85.75,30.5c0.05,0.2,0.14,0.37,0.25,0.52c0.11,0.15,0.26,0.28,0.43,0.37
			c0.18,0.09,0.39,0.14,0.63,0.14c0.25,0,0.46-0.05,0.63-0.14c0.17-0.09,0.32-0.22,0.43-0.37c0.11-0.15,0.2-0.33,0.25-0.52
			c0.05-0.2,0.08-0.39,0.08-0.59c0-0.2-0.03-0.4-0.08-0.6c-0.05-0.19-0.14-0.37-0.25-0.52c-0.11-0.15-0.26-0.28-0.43-0.37
			c-0.17-0.09-0.38-0.14-0.63-0.14c-0.25,0-0.46,0.05-0.63,0.14c-0.18,0.09-0.32,0.22-0.43,0.37c-0.11,0.15-0.2,0.33-0.25,0.52
			c-0.05,0.19-0.08,0.39-0.08,0.6C85.67,30.11,85.7,30.3,85.75,30.5z"/>
		<path fill="#1D1D1B" d="M90.62,29.17c0.07-0.23,0.18-0.44,0.33-0.61c0.15-0.18,0.33-0.32,0.55-0.43c0.22-0.11,0.47-0.16,0.76-0.16
			c0.29,0,0.54,0.05,0.76,0.16c0.22,0.11,0.4,0.25,0.54,0.43c0.15,0.18,0.25,0.38,0.33,0.61c0.07,0.23,0.11,0.48,0.11,0.73
			c0,0.26-0.04,0.5-0.11,0.73c-0.07,0.23-0.18,0.44-0.33,0.61c-0.15,0.18-0.33,0.32-0.54,0.42c-0.22,0.11-0.47,0.16-0.76,0.16
			c-0.29,0-0.55-0.05-0.76-0.16c-0.22-0.11-0.4-0.25-0.55-0.42c-0.15-0.18-0.25-0.38-0.33-0.61c-0.07-0.23-0.11-0.48-0.11-0.73
			C90.51,29.65,90.55,29.41,90.62,29.17z M90.94,30.5c0.05,0.2,0.14,0.37,0.25,0.52c0.11,0.15,0.26,0.28,0.43,0.37
			c0.18,0.09,0.39,0.14,0.63,0.14c0.25,0,0.46-0.05,0.63-0.14s0.32-0.22,0.43-0.37c0.11-0.15,0.2-0.33,0.25-0.52
			c0.05-0.2,0.08-0.39,0.08-0.59c0-0.2-0.03-0.4-0.08-0.6c-0.05-0.19-0.14-0.37-0.25-0.52c-0.11-0.15-0.26-0.28-0.43-0.37
			s-0.38-0.14-0.63-0.14c-0.25,0-0.46,0.05-0.63,0.14c-0.18,0.09-0.32,0.22-0.43,0.37c-0.11,0.15-0.2,0.33-0.25,0.52
			c-0.05,0.19-0.08,0.39-0.08,0.6C90.86,30.11,90.89,30.3,90.94,30.5z"/>
		<path fill="#1D1D1B" d="M97.36,28.05c0.56,0.01,0.99,0.17,1.27,0.47c0.29,0.3,0.43,0.76,0.43,1.38c0,0.62-0.14,1.07-0.43,1.38
			c-0.29,0.3-0.71,0.46-1.27,0.47h-1.28v-3.7H97.36z M97.18,31.46c0.27,0,0.5-0.03,0.69-0.09c0.19-0.06,0.35-0.15,0.47-0.27
			c0.12-0.12,0.22-0.29,0.27-0.48c0.06-0.2,0.09-0.43,0.09-0.71c0-0.28-0.03-0.51-0.09-0.71c-0.06-0.2-0.15-0.36-0.27-0.48
			c-0.12-0.12-0.28-0.22-0.47-0.27c-0.19-0.06-0.42-0.09-0.69-0.09h-0.75v3.1H97.18z"/>
		<path fill="#1D1D1B" d="M101.46,31.01c0.06,0.13,0.15,0.23,0.26,0.31c0.11,0.08,0.24,0.13,0.39,0.16
			c0.15,0.03,0.31,0.05,0.48,0.05c0.1,0,0.2-0.01,0.32-0.04c0.11-0.03,0.22-0.07,0.32-0.13c0.1-0.06,0.18-0.14,0.25-0.23
			c0.07-0.1,0.1-0.21,0.1-0.34c0-0.1-0.02-0.19-0.07-0.27c-0.05-0.08-0.11-0.14-0.18-0.19c-0.07-0.05-0.16-0.09-0.25-0.13
			c-0.09-0.03-0.18-0.06-0.26-0.08l-0.82-0.2c-0.11-0.03-0.21-0.06-0.31-0.1c-0.1-0.04-0.19-0.1-0.27-0.17
			c-0.08-0.07-0.14-0.15-0.18-0.25c-0.05-0.1-0.07-0.22-0.07-0.37c0-0.09,0.02-0.2,0.05-0.32c0.03-0.12,0.1-0.24,0.19-0.34
			c0.1-0.11,0.23-0.2,0.39-0.27c0.17-0.07,0.38-0.11,0.64-0.11c0.18,0,0.36,0.02,0.52,0.07c0.17,0.05,0.31,0.12,0.44,0.22
			c0.12,0.1,0.22,0.22,0.3,0.36c0.07,0.14,0.11,0.31,0.11,0.5h-0.35c-0.01-0.14-0.04-0.27-0.1-0.37c-0.06-0.11-0.13-0.19-0.22-0.26
			c-0.09-0.07-0.2-0.12-0.32-0.16c-0.12-0.04-0.24-0.05-0.38-0.05c-0.12,0-0.24,0.01-0.35,0.04c-0.11,0.03-0.21,0.07-0.3,0.12
			c-0.08,0.06-0.15,0.13-0.2,0.23c-0.05,0.09-0.08,0.21-0.08,0.35c0,0.09,0.01,0.16,0.04,0.23c0.03,0.06,0.07,0.12,0.12,0.16
			c0.05,0.04,0.11,0.08,0.18,0.11c0.07,0.03,0.14,0.05,0.22,0.07l0.9,0.22c0.13,0.03,0.25,0.08,0.37,0.13
			c0.12,0.05,0.22,0.11,0.31,0.19c0.09,0.07,0.16,0.17,0.21,0.27c0.05,0.11,0.08,0.24,0.08,0.39c0,0.04,0,0.1-0.01,0.17
			c-0.01,0.07-0.03,0.14-0.06,0.22c-0.03,0.08-0.08,0.16-0.14,0.24c-0.06,0.08-0.14,0.15-0.25,0.22c-0.11,0.06-0.24,0.12-0.39,0.16
			c-0.16,0.04-0.34,0.06-0.56,0.06c-0.22,0-0.42-0.03-0.61-0.08c-0.19-0.05-0.35-0.13-0.48-0.23c-0.13-0.1-0.23-0.24-0.3-0.4
			c-0.07-0.16-0.1-0.36-0.09-0.59h0.35C101.37,30.73,101.4,30.89,101.46,31.01z"/>
	</g>
</g>
</svg>
